<svg width="140" height="50" viewBox="0 0 140 50" fill="none" xmlns="http://www.w3.org/2000/svg">
<path d="M55.6426 18.8013L49.7588 35H47.354L54.1289 17.2266H55.6792L55.6426 18.8013ZM60.5742 35L54.6782 18.8013L54.6416 17.2266H56.1919L62.9912 35H60.5742ZM60.269 28.4204V30.3491H50.2837V28.4204H60.269ZM70.3154 33.3887C70.8525 33.3887 71.349 33.2788 71.8047 33.0591C72.2604 32.8394 72.6348 32.5382 72.9277 32.1558C73.2207 31.7651 73.3875 31.3216 73.4282 30.8252H75.5767C75.536 31.6064 75.2715 32.3348 74.7832 33.0103C74.3031 33.6776 73.6724 34.2188 72.8911 34.6338C72.1099 35.0407 71.2513 35.2441 70.3154 35.2441C69.3226 35.2441 68.4559 35.0692 67.7153 34.7192C66.9829 34.3693 66.3726 33.8892 65.8843 33.2788C65.4041 32.6685 65.042 31.9686 64.7979 31.1792C64.5618 30.3817 64.4438 29.5394 64.4438 28.6523V28.1396C64.4438 27.2526 64.5618 26.4144 64.7979 25.625C65.042 24.8275 65.4041 24.1235 65.8843 23.5132C66.3726 22.9028 66.9829 22.4227 67.7153 22.0728C68.4559 21.7228 69.3226 21.5479 70.3154 21.5479C71.349 21.5479 72.2523 21.7594 73.0254 22.1826C73.7985 22.5977 74.4048 23.1673 74.8442 23.8916C75.2918 24.6077 75.536 25.4215 75.5767 26.333H73.4282C73.3875 25.7878 73.2329 25.2954 72.9644 24.856C72.7039 24.4165 72.3459 24.0666 71.8901 23.8062C71.4425 23.5376 70.9176 23.4033 70.3154 23.4033C69.6237 23.4033 69.0418 23.5417 68.5698 23.8184C68.106 24.0869 67.7357 24.4531 67.459 24.917C67.1904 25.3727 66.9951 25.8813 66.873 26.4429C66.7591 26.9963 66.7021 27.5618 66.7021 28.1396V28.6523C66.7021 29.2301 66.7591 29.7998 66.873 30.3613C66.987 30.9229 67.1782 31.4315 67.4468 31.8872C67.7235 32.3429 68.0938 32.7091 68.5576 32.9858C69.0296 33.2544 69.6156 33.3887 70.3154 33.3887ZM83.4014 33.3887C83.9385 33.3887 84.4349 33.2788 84.8906 33.0591C85.3464 32.8394 85.7207 32.5382 86.0137 32.1558C86.3066 31.7651 86.4735 31.3216 86.5142 30.8252H88.6626C88.6219 31.6064 88.3574 32.3348 87.8691 33.0103C87.389 33.6776 86.7583 34.2188 85.9771 34.6338C85.1958 35.0407 84.3372 35.2441 83.4014 35.2441C82.4085 35.2441 81.5418 35.0692 80.8013 34.7192C80.0688 34.3693 79.4585 33.8892 78.9702 33.2788C78.4901 32.6685 78.1279 31.9686 77.8838 31.1792C77.6478 30.3817 77.5298 29.5394 77.5298 28.6523V28.1396C77.5298 27.2526 77.6478 26.4144 77.8838 25.625C78.1279 24.8275 78.4901 24.1235 78.9702 23.5132C79.4585 22.9028 80.0688 22.4227 80.8013 22.0728C81.5418 21.7228 82.4085 21.5479 83.4014 21.5479C84.4349 21.5479 85.3382 21.7594 86.1113 22.1826C86.8844 22.5977 87.4907 23.1673 87.9302 23.8916C88.3778 24.6077 88.6219 25.4215 88.6626 26.333H86.5142C86.4735 25.7878 86.3188 25.2954 86.0503 24.856C85.7899 24.4165 85.4318 24.0666 84.9761 23.8062C84.5285 23.5376 84.0036 23.4033 83.4014 23.4033C82.7096 23.4033 82.1278 23.5417 81.6558 23.8184C81.1919 24.0869 80.8216 24.4531 80.5449 24.917C80.2764 25.3727 80.0811 25.8813 79.959 26.4429C79.8451 26.9963 79.7881 27.5618 79.7881 28.1396V28.6523C79.7881 29.2301 79.8451 29.7998 79.959 30.3613C80.0729 30.9229 80.2642 31.4315 80.5327 31.8872C80.8094 32.3429 81.1797 32.7091 81.6436 32.9858C82.1156 33.2544 82.7015 33.3887 83.4014 33.3887ZM90.6035 28.5425V28.2617C90.6035 27.3096 90.7419 26.4266 91.0186 25.6128C91.2952 24.7909 91.694 24.0788 92.2148 23.4766C92.7357 22.8662 93.3664 22.3942 94.1069 22.0605C94.8475 21.7188 95.6776 21.5479 96.5972 21.5479C97.5249 21.5479 98.359 21.7188 99.0996 22.0605C99.8483 22.3942 100.483 22.8662 101.004 23.4766C101.533 24.0788 101.936 24.7909 102.212 25.6128C102.489 26.4266 102.627 27.3096 102.627 28.2617V28.5425C102.627 29.4946 102.489 30.3776 102.212 31.1914C101.936 32.0052 101.533 32.7173 101.004 33.3276C100.483 33.9299 99.8524 34.4019 99.1118 34.7437C98.3794 35.0773 97.5493 35.2441 96.6216 35.2441C95.6938 35.2441 94.8597 35.0773 94.1191 34.7437C93.3786 34.4019 92.7438 33.9299 92.2148 33.3276C91.694 32.7173 91.2952 32.0052 91.0186 31.1914C90.7419 30.3776 90.6035 29.4946 90.6035 28.5425ZM92.8618 28.2617V28.5425C92.8618 29.2017 92.9391 29.8242 93.0938 30.4102C93.2484 30.988 93.4803 31.5007 93.7896 31.9482C94.1069 32.3958 94.5016 32.7498 94.9736 33.0103C95.4456 33.2625 95.995 33.3887 96.6216 33.3887C97.2401 33.3887 97.7812 33.2625 98.2451 33.0103C98.7171 32.7498 99.1077 32.3958 99.417 31.9482C99.7262 31.5007 99.9582 30.988 100.113 30.4102C100.276 29.8242 100.357 29.2017 100.357 28.5425V28.2617C100.357 27.6107 100.276 26.9963 100.113 26.4185C99.9582 25.8325 99.7222 25.3158 99.4048 24.8682C99.0955 24.4124 98.7049 24.0544 98.2329 23.7939C97.769 23.5335 97.2238 23.4033 96.5972 23.4033C95.9787 23.4033 95.4334 23.5335 94.9614 23.7939C94.4976 24.0544 94.1069 24.4124 93.7896 24.8682C93.4803 25.3158 93.2484 25.8325 93.0938 26.4185C92.9391 26.9963 92.8618 27.6107 92.8618 28.2617ZM113.541 31.9482V21.792H115.811V35H113.65L113.541 31.9482ZM113.968 29.165L114.908 29.1406C114.908 30.0195 114.814 30.8333 114.627 31.582C114.448 32.3226 114.155 32.9655 113.748 33.5107C113.341 34.056 112.808 34.4832 112.149 34.7925C111.49 35.0936 110.688 35.2441 109.744 35.2441C109.101 35.2441 108.511 35.1506 107.974 34.9634C107.445 34.7762 106.989 34.4873 106.607 34.0967C106.224 33.7061 105.927 33.1974 105.716 32.5708C105.512 31.9442 105.411 31.1914 105.411 30.3125V21.792H107.669V30.3369C107.669 30.931 107.734 31.4233 107.864 31.814C108.003 32.1965 108.186 32.5016 108.414 32.7295C108.65 32.9492 108.91 33.1038 109.195 33.1934C109.488 33.2829 109.789 33.3276 110.098 33.3276C111.058 33.3276 111.819 33.1445 112.381 32.7783C112.942 32.404 113.345 31.9035 113.589 31.2769C113.842 30.6421 113.968 29.9382 113.968 29.165ZM121.512 24.6118V35H119.253V21.792H121.39L121.512 24.6118ZM120.975 27.8955L120.035 27.8589C120.043 26.9556 120.177 26.1214 120.438 25.3564C120.698 24.5833 121.064 23.9119 121.536 23.3423C122.008 22.7726 122.57 22.3332 123.221 22.0239C123.88 21.7065 124.608 21.5479 125.406 21.5479C126.057 21.5479 126.643 21.6374 127.164 21.8164C127.684 21.9873 128.128 22.264 128.494 22.6465C128.868 23.029 129.153 23.5254 129.349 24.1357C129.544 24.738 129.642 25.4744 129.642 26.3452V35H127.371V26.3208C127.371 25.6291 127.269 25.0757 127.066 24.6606C126.862 24.2375 126.565 23.9323 126.175 23.7451C125.784 23.5498 125.304 23.4521 124.734 23.4521C124.173 23.4521 123.66 23.5701 123.196 23.8062C122.741 24.0422 122.346 24.3677 122.012 24.7827C121.687 25.1978 121.43 25.6738 121.243 26.2109C121.064 26.7399 120.975 27.3014 120.975 27.8955ZM138.602 21.792V23.5254H131.46V21.792H138.602ZM133.877 18.5815H136.136V31.7285C136.136 32.1761 136.205 32.5138 136.343 32.7417C136.482 32.9696 136.661 33.1201 136.88 33.1934C137.1 33.2666 137.336 33.3032 137.588 33.3032C137.776 33.3032 137.971 33.2869 138.174 33.2544C138.386 33.2137 138.545 33.1812 138.65 33.1567L138.663 35C138.484 35.057 138.248 35.1099 137.955 35.1587C137.67 35.2157 137.324 35.2441 136.917 35.2441C136.364 35.2441 135.855 35.1343 135.391 34.9146C134.927 34.6948 134.557 34.3286 134.28 33.8159C134.012 33.2951 133.877 32.5952 133.877 31.7163V18.5815Z" fill="#5C5C5C"/>
<path d="M35 36.25V33.75C35 32.4239 34.4732 31.1521 33.5355 30.2145C32.5979 29.2768 31.3261 28.75 30 28.75H20C18.6739 28.75 17.4021 29.2768 16.4645 30.2145C15.5268 31.1521 15 32.4239 15 33.75V36.25" stroke="#5C5C5C" stroke-width="2" stroke-linecap="round" stroke-linejoin="round"/>
<path d="M25 23.75C27.7614 23.75 30 21.5114 30 18.75C30 15.9886 27.7614 13.75 25 13.75C22.2386 13.75 20 15.9886 20 18.75C20 21.5114 22.2386 23.75 25 23.75Z" stroke="#5C5C5C" stroke-width="2" stroke-linecap="round" stroke-linejoin="round"/>
</svg>
