<svg width="1038" height="712" viewBox="0 0 1038 712" fill="none" xmlns="http://www.w3.org/2000/svg">
<g clip-path="url(#clip0_323_109)">
<path d="M152.514 698.33C150.725 702.162 149.064 707.912 147.658 711.872C184.079 711.872 223.696 711.872 256.283 711.872C293.471 711.872 330.659 711.872 367.975 711.872C442.352 711.872 516.856 711.872 591.232 711.872C739.856 711.872 888.481 711.872 1037.11 711.872C1037.36 711.872 1037.62 711.872 1037.87 711.872C1037.87 476.029 1038 240.187 1038 4.34375C949.439 -13.6702 857.683 26.5738 790.591 81.7656C759.92 106.934 732.189 135.68 696.151 154.205C660.113 172.73 612.19 178.735 578.58 157.016C544.203 134.913 534.874 91.9863 504.843 65.157C474.811 38.3276 429.572 31.0453 389.061 38.7109C348.295 46.5042 306.506 77.9328 293.855 114.472C290.788 123.287 289.637 132.741 289.893 142.068C291.171 175.157 310.851 204.031 329.765 231.371C344.206 252.196 373.854 266.249 378.327 292.057C381.01 307.643 372.704 323.358 360.691 334.728C348.551 346.099 333.087 353.764 317.88 361.557C274.174 383.66 231.108 406.912 188.808 431.186C159.671 447.922 116.476 478.073 132.578 514.612C142.419 536.97 171.3 545.658 191.619 558.178C202.61 564.949 212.578 574.276 215.389 586.03C218.584 599.572 211.555 613.242 203.632 625.252C187.785 649.27 165.038 672.267 152.514 698.33Z" fill="#FF5C00" fill-opacity="0.48"/>
</g>
<g clip-path="url(#clip1_323_109)">
<path d="M794.209 388.161C756.223 342.947 683.615 336.399 638.032 297.979C588.589 256.471 575.761 197.791 533.416 149.858C515.731 129.845 495.556 101.555 471.519 88.4603C449.848 76.7243 426.434 66.3472 400.405 64.3706C367.775 61.8999 332.405 73.2653 305.379 94.8843C278.851 116.256 259.672 147.14 228.91 161.471C190.177 179.507 148.58 166.536 110.843 163.941C66.6305 160.853 20.7988 185.19 5.72913 226.081C-0.996175 244.488 -0.996174 264.501 2.11739 283.772C5.23096 303.291 11.9563 323.181 25.0332 338.87C38.6084 355.547 56.9162 368.148 68.9968 386.308C83.3192 407.68 82.1983 436.711 77.4657 463.766C72.7331 490.821 64.8869 518.246 67.2532 544.683C70.7404 583.597 98.0153 616.828 136.25 628.688C185.195 643.883 242.609 624.735 294.668 605.092C341.247 587.426 395.174 566.796 443.87 570.131C495.182 573.59 537.526 605.834 586.347 616.581C648.743 630.294 724.59 610.651 772.538 561.484C820.363 512.192 832.817 434.241 794.209 388.161Z" fill="#F5E8FF"/>
</g>
<defs>
<clipPath id="clip0_323_109">
<rect width="909" height="712" fill="white" transform="translate(129)"/>
</clipPath>
<clipPath id="clip1_323_109">
<rect width="817" height="570" fill="white" transform="translate(0 64)"/>
</clipPath>
</defs>
</svg>
