<svg width="563" height="370" viewBox="0 0 563 370" fill="none" xmlns="http://www.w3.org/2000/svg">
<g clip-path="url(#clip0_292_301)">
<path d="M197.482 368.773C197.445 368.606 193.786 351.892 201.258 338.01C208.73 324.128 224.68 318.006 224.84 317.945L225.569 317.671L225.741 318.433C225.779 318.599 229.438 335.314 221.966 349.196C214.494 363.078 198.544 369.2 198.383 369.26L197.654 369.534L197.482 368.773ZM224.569 319.529C221.374 320.906 208.765 326.931 202.454 338.656C196.143 350.381 198.047 364.248 198.654 367.677C201.848 366.303 214.452 360.287 220.769 348.55C227.08 336.825 225.177 322.96 224.569 319.529Z" fill="#F1F1F1"/>
<path d="M216.255 344.327C202.828 352.42 197.656 368.495 197.656 368.495C197.656 368.495 214.255 371.449 227.683 363.356C241.111 355.262 246.282 339.187 246.282 339.187C246.282 339.187 229.683 336.233 216.255 344.327Z" fill="#F1F1F1"/>
<path d="M179.8 242.017H217.736V222.777H179.8V242.017Z" fill="#FF0101"/>
<path d="M187.728 224.683C187.824 223.899 187.747 223.104 187.503 222.353C187.258 221.602 186.853 220.914 186.314 220.337C185.776 219.76 185.118 219.308 184.386 219.013C183.655 218.719 182.868 218.588 182.08 218.631L176.744 207.502L169.202 209.102L176.959 224.712C177.119 226.032 177.756 227.248 178.751 228.128C179.746 229.009 181.029 229.493 182.356 229.49C183.683 229.486 184.963 228.995 185.953 228.109C186.944 227.223 187.575 226.004 187.728 224.683H187.728Z" fill="#FFB7B7"/>
<path d="M71.8711 353.895L78.1478 357.113L93.5254 334.39L84.2608 329.64L71.8711 353.895Z" fill="#FFB7B7"/>
<path d="M71.3186 351.022L83.6803 357.359L83.6808 357.36C85.7699 358.431 87.3488 360.29 88.07 362.527C88.7912 364.765 88.5958 367.197 87.5267 369.29L87.3957 369.547L67.1561 359.17L71.3186 351.022Z" fill="#2F2E41"/>
<path d="M144.367 362.7L151.418 362.699L154.773 335.452H144.366L144.367 362.7Z" fill="#FFB7B7"/>
<path d="M142.568 360.393L156.455 360.393H156.455C158.802 360.393 161.053 361.327 162.713 362.989C164.372 364.652 165.305 366.907 165.305 369.258V369.546L142.569 369.547L142.568 360.393Z" fill="#2F2E41"/>
<path d="M111.384 140.454C111.384 140.454 106.662 136.83 106.662 145.683L105.917 174.936L114.242 202.571L119.088 193.609L117.1 174.189L111.384 140.454Z" fill="#731D18"/>
<path d="M161.894 220.468C161.894 220.468 167.369 247.181 160.434 269.105L156.601 353.396L142.547 352.299L137.619 289.766L132.874 258.682L123.018 287.023L90.5309 346.996L75.5648 335.294C75.5648 335.294 92.1497 289.959 104.402 280.441L110.547 210.326L161.894 220.468Z" fill="#731D18"/>
<path d="M145.235 104.738C154.085 104.738 161.259 97.5509 161.259 88.685C161.259 79.8191 154.085 72.6318 145.235 72.6318C136.386 72.6318 129.211 79.8191 129.211 88.685C129.211 97.5509 136.386 104.738 145.235 104.738Z" fill="#FFB8B8"/>
<path d="M144.101 92.0899C146.022 92.3403 147.471 90.3714 148.143 88.5513C148.815 86.7312 149.328 84.6123 150.998 83.6292C153.279 82.286 156.199 83.9015 158.808 83.4583C161.754 82.9578 163.67 79.8293 163.82 76.839C163.971 73.8487 162.783 70.9727 161.617 68.2157L161.21 71.642C161.265 70.4807 161.021 69.3249 160.502 68.2851C159.983 67.2452 159.206 66.3561 158.246 65.7029L158.771 70.7305C158.659 70.0369 158.412 69.3722 158.043 68.7745C157.675 68.1768 157.192 67.658 156.622 67.2477C156.053 66.8375 155.409 66.5439 154.726 66.3839C154.043 66.2238 153.335 66.2005 152.643 66.3151L152.726 69.3108C149.322 68.9054 145.889 68.4993 142.476 68.8082C139.062 69.1171 135.625 70.199 133.038 72.4511C129.168 75.8199 127.755 81.367 128.229 86.4809C128.704 91.5949 130.811 96.3991 133.007 101.04C133.56 102.208 134.324 103.525 135.605 103.674C136.186 103.682 136.753 103.497 137.217 103.146C137.681 102.796 138.016 102.301 138.168 101.739C138.444 100.606 138.433 99.422 138.137 98.2941C137.813 96.5704 137.405 94.8085 137.709 93.0812C138.014 91.3539 139.254 89.647 140.992 89.4354C142.73 89.2237 144.509 91.2139 143.673 92.7553L144.101 92.0899Z" fill="#2F2E41"/>
<path d="M162.886 227.612L109.397 224.155L113.422 207.446L162.31 218.393L162.886 227.612Z" fill="#FAE347"/>
<path d="M129.899 110.578L133.254 105.912C133.254 105.912 137.004 107.189 147.046 112.196L147.756 116.568L165.188 223.983L133.502 222.613L124.874 222.429L122.05 216.088L118.568 222.295L110.142 222.115L101.568 217.136L110.017 191.243L112.751 167.592L108.526 145.309C108.526 145.309 103.21 124.847 123.686 113.815L129.899 110.578Z" fill="#731D18"/>
<path d="M173.813 218.969L174.963 223.002L183.015 217.749L179.977 214.264L173.813 218.969Z" fill="#CBCBCB"/>
<path d="M135.892 123.56C135.892 123.56 148.374 107.597 155.918 125.389L158.296 144.034C158.296 144.034 167.436 167.211 167.71 176.588C167.71 176.588 173.906 188.826 173.85 195.253L183.015 216.042L173.614 221.889L147.596 181.924L135.892 123.56Z" fill="#731D18"/>
<path d="M259.577 370H0.679522C0.499302 370 0.326462 369.928 0.199027 369.801C0.0715918 369.673 0 369.5 0 369.319C0 369.139 0.0715918 368.965 0.199027 368.838C0.326462 368.71 0.499302 368.638 0.679522 368.638H259.577C259.758 368.638 259.931 368.71 260.058 368.838C260.185 368.965 260.257 369.139 260.257 369.319C260.257 369.5 260.185 369.673 260.058 369.801C259.931 369.928 259.758 370 259.577 370Z" fill="#CBCBCB"/>
<path d="M247.799 161.134H560.421V2.58374H247.799V161.134Z" fill="white"/>
<path d="M563 163.718H245.22V0H563V163.718ZM250.377 158.551H557.842V5.16708H250.377V158.551Z" fill="#E5E5E5"/>
<path d="M497.841 31.4583H438.941V132.262H497.841V31.4583Z" fill="#E5E5E5"/>
<path d="M429.182 31.4565H310.379V59.2038H429.182V31.4565Z" fill="#FF0101"/>
<path d="M429.182 66.9307H310.379V96.7853H429.182V66.9307Z" fill="#E5E5E5"/>
<path d="M429.182 104.512H310.379V132.26H429.182V104.512Z" fill="#E5E5E5"/>
</g>
<defs>
<clipPath id="clip0_292_301">
<rect width="563" height="370" fill="white"/>
</clipPath>
</defs>
</svg>
