<svg width="87" height="29" viewBox="0 0 87 29" fill="none" xmlns="http://www.w3.org/2000/svg">
<path d="M52.793 19.3481H55.1367C55.0146 20.4712 54.6932 21.4762 54.1724 22.3633C53.6515 23.2503 52.915 23.9543 51.9629 24.4751C51.0107 24.9878 49.8226 25.2441 48.3984 25.2441C47.3568 25.2441 46.4087 25.0488 45.5542 24.6582C44.7078 24.2676 43.9795 23.7142 43.3691 22.998C42.7588 22.2738 42.2868 21.4071 41.9531 20.3979C41.6276 19.3807 41.4648 18.2495 41.4648 17.0044V15.2344C41.4648 13.9893 41.6276 12.8621 41.9531 11.853C42.2868 10.8358 42.7629 9.96501 43.3813 9.24072C44.008 8.51644 44.7607 7.95898 45.6396 7.56836C46.5186 7.17773 47.5073 6.98242 48.606 6.98242C49.9487 6.98242 51.084 7.2347 52.0117 7.73926C52.9395 8.24382 53.6597 8.94368 54.1724 9.83887C54.6932 10.7259 55.0146 11.7554 55.1367 12.9272H52.793C52.679 12.0972 52.4674 11.3851 52.1582 10.791C51.849 10.1888 51.4095 9.72493 50.8398 9.39941C50.2702 9.07389 49.5256 8.91113 48.606 8.91113C47.8166 8.91113 47.1208 9.06169 46.5186 9.36279C45.9245 9.6639 45.424 10.0911 45.0171 10.6445C44.6183 11.1979 44.3172 11.8612 44.1138 12.6343C43.9103 13.4074 43.8086 14.266 43.8086 15.21V17.0044C43.8086 17.8752 43.8981 18.693 44.0771 19.458C44.2643 20.223 44.5451 20.8944 44.9194 21.4722C45.2938 22.05 45.7699 22.5057 46.3477 22.8394C46.9255 23.1649 47.609 23.3276 48.3984 23.3276C49.3994 23.3276 50.1969 23.1689 50.791 22.8516C51.3851 22.5342 51.8327 22.0785 52.1338 21.4844C52.443 20.8903 52.6628 20.1782 52.793 19.3481ZM65.7935 22.7417V15.9424C65.7935 15.4215 65.6877 14.9699 65.4761 14.5874C65.2726 14.1968 64.9634 13.8957 64.5483 13.6841C64.1333 13.4725 63.6206 13.3667 63.0103 13.3667C62.4406 13.3667 61.9401 13.4644 61.5088 13.6597C61.0856 13.855 60.752 14.1113 60.5078 14.4287C60.2718 14.7461 60.1538 15.0879 60.1538 15.4541H57.8955C57.8955 14.9821 58.0176 14.5142 58.2617 14.0503C58.5059 13.5864 58.8558 13.1673 59.3115 12.793C59.7754 12.4105 60.3288 12.1094 60.9717 11.8896C61.6227 11.6618 62.347 11.5479 63.1445 11.5479C64.1048 11.5479 64.9512 11.7106 65.6836 12.0361C66.4242 12.3617 67.002 12.854 67.417 13.5132C67.8402 14.1642 68.0518 14.9821 68.0518 15.9668V22.1191C68.0518 22.5586 68.0884 23.0265 68.1616 23.5229C68.243 24.0194 68.361 24.4466 68.5156 24.8047V25H66.1597C66.0457 24.7396 65.9562 24.3937 65.8911 23.9624C65.826 23.5229 65.7935 23.116 65.7935 22.7417ZM66.1841 16.9922L66.2085 18.5791H63.9258C63.2829 18.5791 62.7091 18.632 62.2046 18.7378C61.7 18.8354 61.2769 18.986 60.9351 19.1895C60.5933 19.3929 60.3328 19.6493 60.1538 19.9585C59.9748 20.2596 59.8853 20.6136 59.8853 21.0205C59.8853 21.4355 59.9788 21.814 60.166 22.1558C60.3532 22.4976 60.634 22.7702 61.0083 22.9736C61.3908 23.1689 61.8587 23.2666 62.4121 23.2666C63.1038 23.2666 63.7142 23.1201 64.2432 22.8271C64.7721 22.5342 65.1912 22.1761 65.5005 21.7529C65.8179 21.3298 65.9888 20.9188 66.0132 20.52L66.9775 21.6064C66.9206 21.9482 66.766 22.3267 66.5137 22.7417C66.2614 23.1567 65.9237 23.5555 65.5005 23.938C65.0854 24.3123 64.589 24.6257 64.0112 24.8779C63.4416 25.1221 62.7987 25.2441 62.0825 25.2441C61.1873 25.2441 60.402 25.0692 59.7266 24.7192C59.0592 24.3693 58.5384 23.9014 58.1641 23.3154C57.7979 22.7214 57.6147 22.0581 57.6147 21.3257C57.6147 20.6177 57.7531 19.9951 58.0298 19.458C58.3065 18.9128 58.7052 18.4611 59.2261 18.103C59.7469 17.7368 60.3735 17.4601 61.106 17.2729C61.8384 17.0858 62.6562 16.9922 63.5596 16.9922H66.1841ZM73.8623 13.8672V25H71.604V11.792H73.8013L73.8623 13.8672ZM77.9883 11.7188L77.9761 13.8184C77.7889 13.7777 77.6099 13.7533 77.439 13.7451C77.2762 13.7288 77.089 13.7207 76.8774 13.7207C76.3566 13.7207 75.8968 13.8021 75.498 13.9648C75.0993 14.1276 74.7616 14.3555 74.4849 14.6484C74.2082 14.9414 73.9884 15.2913 73.8257 15.6982C73.6711 16.097 73.5693 16.5365 73.5205 17.0166L72.8857 17.3828C72.8857 16.5853 72.9631 15.8366 73.1177 15.1367C73.2804 14.4368 73.5286 13.8184 73.8623 13.2812C74.196 12.736 74.6191 12.3128 75.1318 12.0117C75.6527 11.7025 76.2712 11.5479 76.9873 11.5479C77.1501 11.5479 77.3372 11.5682 77.5488 11.6089C77.7604 11.6414 77.9069 11.6781 77.9883 11.7188ZM86.2158 11.792V13.5254H79.0747V11.792H86.2158ZM81.4917 8.58154H83.75V21.7285C83.75 22.1761 83.8192 22.5138 83.9575 22.7417C84.0959 22.9696 84.2749 23.1201 84.4946 23.1934C84.7144 23.2666 84.9504 23.3032 85.2026 23.3032C85.3898 23.3032 85.5851 23.2869 85.7886 23.2544C86.0002 23.2137 86.1589 23.1812 86.2646 23.1567L86.2769 25C86.0978 25.057 85.8618 25.1099 85.5688 25.1587C85.284 25.2157 84.9382 25.2441 84.5312 25.2441C83.9779 25.2441 83.4692 25.1343 83.0054 24.9146C82.5415 24.6948 82.1712 24.3286 81.8945 23.8159C81.626 23.2951 81.4917 22.5952 81.4917 21.7163V8.58154Z" fill="#5C5C5C"/>
<path d="M11.25 27.5C11.9404 27.5 12.5 26.9404 12.5 26.25C12.5 25.5596 11.9404 25 11.25 25C10.5596 25 10 25.5596 10 26.25C10 26.9404 10.5596 27.5 11.25 27.5Z" stroke="#5C5C5C" stroke-width="2" stroke-linecap="round" stroke-linejoin="round"/>
<path d="M25 27.5C25.6904 27.5 26.25 26.9404 26.25 26.25C26.25 25.5596 25.6904 25 25 25C24.3096 25 23.75 25.5596 23.75 26.25C23.75 26.9404 24.3096 27.5 25 27.5Z" stroke="#5C5C5C" stroke-width="2" stroke-linecap="round" stroke-linejoin="round"/>
<path d="M1.25 1.25H6.25L9.6 17.9875C9.71431 18.563 10.0274 19.0799 10.4844 19.4479C10.9415 19.8158 11.5134 20.0112 12.1 20H24.25C24.8366 20.0112 25.4085 19.8158 25.8656 19.4479C26.3226 19.0799 26.6357 18.563 26.75 17.9875L28.75 7.5H7.5" stroke="#5C5C5C" stroke-width="2" stroke-linecap="round" stroke-linejoin="round"/>
</svg>
