<svg width="290" height="255" viewBox="0 0 290 255" fill="none" xmlns="http://www.w3.org/2000/svg">
<g clip-path="url(#clip0_42_393)">
<path d="M145.92 255C225.493 255 290 250.723 290 245.446C290 240.17 225.493 235.893 145.92 235.893C66.3463 235.893 1.83936 240.17 1.83936 245.446C1.83936 250.723 66.3463 255 145.92 255Z" fill="#E6E7E8"/>
<path d="M185.04 105.901C184.466 105.228 183.873 104.437 183.794 103.586C182.983 103.665 182.33 103.745 182.014 103.725C180.649 103.685 179.285 103.487 177.94 103.646C173.668 104.12 170.325 108.215 169.989 112.507C169.91 113.437 170.147 114.604 171.057 114.801C171.334 114.861 171.631 114.821 171.888 114.92C172.204 115.059 172.382 115.434 172.659 115.652C173.015 115.949 173.509 115.968 173.964 115.988C175.151 116.048 176.338 116.087 177.485 115.79C177.841 115.692 178.217 115.573 178.592 115.553C178.849 115.553 179.107 115.593 179.344 115.514C179.799 115.395 180.076 114.92 180.273 114.485C181.163 112.467 181.539 109.975 183.418 108.828C184.427 108.215 185.633 108.155 186.8 107.958C186.187 107.285 185.613 106.593 185.04 105.901Z" fill="#F5B251"/>
<path d="M16.9692 94.092C16.7318 94.1909 16.455 94.1712 16.2572 94.0129C11.7083 90.7097 8.84055 86.2197 8.18789 81.3737C7.29789 74.5892 11.5699 67.1916 18.3536 63.7895C25.9878 59.972 33.8989 63.3939 37.7753 68.7542C41.177 73.4618 41.9681 79.3562 39.8124 84.1626C39.6542 84.5187 39.219 84.6967 38.8433 84.5582C38.4675 84.4198 38.3093 84.0044 38.4675 83.6286C40.7815 78.4265 39.0015 72.9673 36.5688 69.6048C33.0484 64.739 25.8691 61.594 18.9667 65.0554C12.8159 68.1411 8.80099 75.0442 9.61188 81.1561C10.2052 85.6263 12.8752 89.7801 17.1274 92.8657C17.4438 93.1031 17.5032 93.5382 17.2658 93.8547C17.1867 93.9536 17.0878 94.0327 16.9692 94.092Z" fill="#231F20"/>
<path d="M51.2242 68.7147L35.2043 75.7563L15.8617 84.2814L8.26707 87.6044L5.99263 91.7185L0 91.8768L21.1819 160.275L44.7371 149.91L64.0797 141.385L87.6349 131.021L51.2242 68.7147Z" fill="#E71F25"/>
<path d="M8.26707 87.6043L5.99263 91.7185L0 91.8767L21.1819 160.275L26.2845 151.038L32.9892 148.071L8.26707 87.6043Z" fill="#C12129"/>
<path d="M21.1819 160.275L26.2845 151.038L76.9154 128.746L87.6349 131.021L21.1819 160.275Z" fill="#C12129"/>
<path d="M0 91.8768L7.33752 89.2856L5.99263 91.7185L0 91.8768Z" fill="#D61F29"/>
<path d="M18.9471 94.6855C18.69 94.8041 18.3933 94.7646 18.156 94.6063C13.0929 90.9273 9.80977 85.923 8.95933 80.5232C7.7529 72.9476 12.1435 64.6797 19.4019 60.8622C27.5701 56.57 36.2921 60.3677 40.7025 66.3411C44.5592 71.5828 45.6074 78.1694 43.4516 83.5297C43.2934 83.9451 42.8187 84.1231 42.4232 83.9649C42.0078 83.8066 41.8298 83.3319 41.9881 82.9363C44.3218 77.1211 42.2056 71.0289 39.4367 67.2708C35.4416 61.8314 27.5306 58.3699 20.1535 62.2467C13.5873 65.7082 9.434 73.4421 10.5218 80.2661C11.3129 85.2505 14.3586 89.8988 19.0855 93.3207C19.4415 93.5778 19.5206 94.0723 19.2635 94.4283C19.1844 94.547 19.0657 94.6261 18.9471 94.6855Z" fill="#231F20"/>
<path d="M109.074 70.8509C108.817 70.7323 108.639 70.4751 108.599 70.1784C108.025 63.8489 109.687 58.093 113.326 53.9393C118.409 48.124 127.862 46.2647 135.793 49.5086C144.713 53.1481 147.68 62.405 146.018 69.6839C144.555 76.053 140.144 81.1166 134.468 82.8572C134.033 82.9957 133.578 82.7583 133.42 82.3232C133.262 81.9078 133.499 81.4529 133.934 81.3144C140.065 79.4155 143.368 73.8574 144.416 69.2686C145.919 62.6621 143.249 54.236 135.2 50.9525C128.021 48.0251 119.16 49.7657 114.592 54.9876C111.249 58.8051 109.687 64.1654 110.241 70.0597C110.28 70.4949 109.944 70.8707 109.489 70.9103C109.351 70.9498 109.192 70.9103 109.074 70.8509Z" fill="#231F20"/>
<path d="M135.042 72.6509L114.612 62.6819L105.257 58.1128L99.7387 59.5567L97.2467 55.126L55.9312 119.825L80.7917 131.95L101.222 141.939L126.102 154.064L151.972 80.899L135.042 72.6509Z" fill="#E71F25"/>
<path d="M110.023 72.6113C109.766 72.4927 109.568 72.2157 109.548 71.919C109.054 65.1939 110.873 59.0425 114.71 54.5722C120.09 48.3219 129.919 46.1856 138.107 49.4889C147.304 53.2074 150.251 63.0182 148.392 70.7916C146.77 77.5958 142.102 83.0352 136.189 84.9934C135.734 85.1319 135.259 84.8945 135.121 84.4594C134.982 84.0044 135.22 83.5297 135.655 83.3913C142.043 81.2748 145.564 75.3014 146.73 70.4158C148.411 63.3544 145.761 54.4536 137.455 51.091C130.058 48.0647 120.841 50.0427 115.996 55.6799C112.456 59.7941 110.755 65.5104 111.229 71.7806C111.269 72.2553 110.913 72.6509 110.438 72.6904C110.3 72.7102 110.142 72.6707 110.023 72.6113Z" fill="#231F20"/>
<path d="M55.9312 119.825L67.066 117.59L120.525 143.7L126.102 154.064L55.9312 119.825Z" fill="#C12129"/>
<path d="M99.7387 59.5567L97.2467 55.126L55.9312 119.825L67.066 117.59L73.5135 120.735L105.257 58.1128L99.7387 59.5567Z" fill="#C12129"/>
<path d="M97.2468 55.126L99.7388 59.5567L103.754 58.4886L97.2468 55.126Z" fill="#D61F29"/>
<path d="M63.1503 106.593C62.8536 106.613 62.5767 106.494 62.3987 106.237C58.7399 101.015 57.3554 95.1602 58.5223 89.7801C60.1638 82.2243 67.6398 75.9541 76.3024 74.886C86.0528 73.6795 93.3112 80.3057 95.4472 87.4659C97.3261 93.7361 95.9021 100.303 91.729 104.615C91.4126 104.931 90.8786 104.971 90.5423 104.674C90.2061 104.378 90.1863 103.883 90.483 103.547C94.9923 98.8788 95.1703 92.4108 93.8057 87.9011C91.8674 81.3935 85.2815 75.3805 76.4804 76.4684C68.6287 77.4376 61.6076 83.2924 60.1441 90.0768C59.0563 95.0613 60.3616 100.481 63.7832 105.347C64.0403 105.703 63.9414 106.197 63.5458 106.454C63.4469 106.534 63.3085 106.573 63.1503 106.593Z" fill="#231F20"/>
<path d="M108.698 91.2636L88.7029 93.38L64.5742 95.9118L54.4876 96.9799L51.3231 100.995L44.5789 98.8788L43.8076 180.885L73.1972 177.8L97.3458 175.248L126.716 172.143L108.698 91.2636Z" fill="#E71F25"/>
<path d="M64.3368 109.837C64.0203 109.876 63.7039 109.738 63.5061 109.481C59.2539 103.685 57.4146 97.0788 58.3639 90.8482C59.689 82.1451 67.3825 74.6289 76.678 72.9871C87.1206 71.1476 95.3284 78.3672 98.0577 86.4373C100.451 93.5185 99.3037 101.094 95.0515 106.197C94.735 106.593 94.1615 106.632 93.7659 106.316C93.3704 105.999 93.3308 105.426 93.6473 105.03C98.2357 99.4919 98.0379 92.0943 96.3172 87.011C93.845 79.6727 86.4086 73.1058 76.9747 74.7673C68.5692 76.2508 61.3503 83.2726 60.1439 91.1054C59.2737 96.8415 60.9745 102.973 64.9499 108.373C65.2465 108.769 65.1674 109.342 64.7521 109.639C64.6532 109.758 64.495 109.817 64.3368 109.837Z" fill="#231F20"/>
<path d="M43.8076 180.886L52.6285 172.578L115.818 165.912L126.716 172.143L43.8076 180.886Z" fill="#C12129"/>
<path d="M54.4876 96.9799L51.3231 100.995L44.5789 98.8788L43.8076 180.885L52.6285 172.578L60.2231 171.767L54.4876 96.9799Z" fill="#C12129"/>
<path d="M44.5789 98.8788L51.3231 100.995L53.5579 98.1667L44.5789 98.8788Z" fill="#D61F29"/>
<path d="M224.042 51.091C219.631 62.5434 215.498 74.6486 206.697 83.1934C203.928 85.8835 200.763 88.1186 197.619 90.3537C192.852 93.736 188.086 97.1183 183.319 100.501C182.627 100.995 181.876 101.569 181.678 102.4C181.421 103.468 182.172 104.516 182.884 105.366C184.209 106.969 185.534 108.551 186.86 110.153C187.156 110.509 187.492 110.885 187.947 110.885C188.323 110.905 188.659 110.648 188.956 110.41C197.698 103.507 206.459 96.6041 215.023 89.4636C217.634 87.2878 220.264 85.0527 222.4 82.4022C224.496 79.7913 226.059 76.8046 227.562 73.7981C230.37 68.1609 232.942 62.405 235.256 56.5502C236.343 53.781 237.411 50.7943 236.739 47.8867C236.086 45.0977 232.704 42.3483 229.698 43.0802C226.632 43.8516 225.03 48.5592 224.042 51.091Z" fill="#A71838"/>
<path d="M117.499 237.099C117.044 243.824 122.127 249.659 128.851 250.114C135.576 250.569 141.41 245.486 141.865 238.761C142.32 232.036 137.237 226.201 130.513 225.746C123.808 225.271 117.954 230.374 117.499 237.099ZM129.642 232.669C128.495 232.669 127.408 233.064 126.537 233.717L124.935 231.878C126.28 230.809 127.981 230.196 129.82 230.236L129.642 232.669ZM135.22 232.57L133.38 234.172C132.609 233.401 131.581 232.867 130.434 232.708L130.592 230.275C132.431 230.493 134.033 231.343 135.22 232.57ZM137.395 238.049L134.963 237.891C134.963 236.743 134.567 235.655 133.914 234.785L135.754 233.183C136.802 234.528 137.415 236.229 137.395 238.049ZM135.042 243.468L133.44 241.629C134.211 240.858 134.745 239.829 134.903 238.682L137.336 238.84C137.118 240.66 136.268 242.262 135.042 243.468ZM129.722 243.192C130.869 243.192 131.956 242.796 132.827 242.143L134.429 243.983C133.084 245.051 131.383 245.664 129.544 245.624L129.722 243.192ZM129.504 240.482C128.1 240.383 127.032 239.156 127.131 237.752C127.23 236.348 128.456 235.28 129.86 235.379C131.264 235.477 132.332 236.704 132.233 238.108C132.154 239.513 130.928 240.581 129.504 240.482ZM124.164 243.271L126.003 241.668C126.775 242.44 127.803 242.974 128.95 243.132L128.792 245.565C126.953 245.348 125.351 244.517 124.164 243.271ZM121.989 237.792L124.421 237.95C124.421 239.097 124.817 240.185 125.469 241.055L123.63 242.657C122.582 241.332 121.949 239.631 121.989 237.792ZM122.048 237C122.265 235.181 123.116 233.579 124.342 232.392L125.944 234.231C125.173 235.003 124.639 236.031 124.481 237.178L122.048 237Z" fill="#231F20"/>
<path d="M4.90479 232.708C4.58835 238.108 8.70211 242.776 14.1212 243.093C19.5205 243.409 24.188 239.295 24.5045 233.875C24.8209 228.475 20.7072 223.807 15.2881 223.491C9.88877 223.174 5.24101 227.308 4.90479 232.708ZM14.6354 229.069C13.7059 229.089 12.8356 229.405 12.1434 229.939L10.8381 228.475C11.9061 227.605 13.2707 227.111 14.7541 227.111L14.6354 229.069ZM19.1052 228.97L17.6416 230.275C17.0087 229.662 16.1978 229.247 15.2683 229.128L15.387 227.17C16.8505 227.308 18.1558 227.981 19.1052 228.97ZM20.8852 233.361L18.9272 233.242C18.9074 232.313 18.5909 231.442 18.0569 230.75L19.5205 229.445C20.3907 230.513 20.9049 231.878 20.8852 233.361ZM19.0458 237.713L17.7405 236.249C18.3536 235.616 18.7689 234.805 18.8876 233.875L20.8456 233.994C20.6874 235.438 20.0149 236.743 19.0458 237.713ZM14.7739 237.535C15.7034 237.515 16.5736 237.198 17.2658 236.664L18.5712 238.128C17.5032 238.998 16.1385 239.493 14.6552 239.493L14.7739 237.535ZM14.5761 235.359C13.4487 235.299 12.5785 234.31 12.6379 233.183C12.6972 232.056 13.6861 231.185 14.8134 231.245C15.9407 231.304 16.811 232.293 16.7516 233.42C16.6923 234.568 15.7232 235.418 14.5761 235.359ZM10.3041 237.633L11.7676 236.328C12.4005 236.941 13.2114 237.357 14.141 237.475L14.0223 239.433C12.5588 239.295 11.2732 238.622 10.3041 237.633ZM8.52411 233.242L10.4821 233.361C10.5019 234.291 10.8183 235.161 11.3523 235.853L9.88877 237.159C9.01855 236.091 8.50433 234.726 8.52411 233.242ZM8.56366 232.609C8.72188 231.146 9.39432 229.86 10.3832 228.891L11.6885 230.355C11.0754 230.987 10.6601 231.798 10.5414 232.728L8.56366 232.609Z" fill="#231F20"/>
<path d="M1.08769 105.802L0.731689 170.956C0.731689 171.787 1.30524 172.519 2.11613 172.697L124.006 200.645L128.298 225.785C129.029 225.706 129.761 225.687 130.513 225.726C130.987 225.766 131.462 225.825 131.917 225.904L127.625 200.843C128.001 200.566 128.258 200.151 128.337 199.676L140.599 122.654L158.419 112.191L180.333 113.694C181.322 113.753 182.172 113.021 182.231 112.032C182.291 111.043 181.559 110.193 180.57 110.133L158.122 108.591C157.766 108.571 157.41 108.65 157.094 108.828L138.582 119.707L3.06545 104.041C2.57101 103.982 2.05679 104.14 1.68102 104.476C1.30524 104.813 1.08769 105.287 1.08769 105.802ZM4.62789 107.799L11.7083 108.61L11.1347 116.938L4.58834 116.503L4.62789 107.799ZM112.199 194.296L112.812 185.336L126.043 186.246L124.184 197.045L112.199 194.296ZM10.6205 146.864L11.5303 133.473L24.9198 134.383L24.01 147.774L10.6205 146.864ZM23.8913 149.297L22.9816 162.688L9.59209 161.778L10.5019 148.387L23.8913 149.297ZM11.6292 131.95L12.539 118.56L25.9284 119.469L25.0187 132.86L11.6292 131.95ZM25.5329 147.873L26.4427 134.482L39.8321 135.392L38.9224 148.783L25.5329 147.873ZM38.8037 150.306L37.8939 163.697L24.5044 162.787L25.4142 149.396L38.8037 150.306ZM26.5415 132.979L27.4513 119.588L40.8408 120.498L39.931 133.889L26.5415 132.979ZM27.57 118.065L28.0842 110.509L41.4144 112.052L40.9397 118.975L27.57 118.065ZM54.7247 136.421L53.815 149.812L40.4255 148.902L41.3352 135.511L54.7247 136.421ZM41.4539 133.988L42.3637 120.597L55.7532 121.507L54.8434 134.898L41.4539 133.988ZM53.6963 151.335L52.7865 164.725L39.397 163.816L40.3068 150.425L53.6963 151.335ZM42.4626 119.094L42.9372 112.25L56.2674 113.793L55.8521 120.004L42.4626 119.094ZM54.3094 164.824L55.2192 151.433L68.6087 152.343L67.6989 165.734L54.3094 164.824ZM67.6 167.257L66.6902 180.648L53.3007 179.738L54.2105 166.347L67.6 167.257ZM55.3378 149.91L56.2476 136.52L69.6371 137.429L68.7273 150.82L55.3378 149.91ZM56.3465 135.016L57.2563 121.625L70.6458 122.535L69.736 135.926L56.3465 135.016ZM57.3749 120.102L57.7903 113.951L71.1204 115.494L70.7446 121.012L57.3749 120.102ZM69.2218 165.833L70.1315 152.442L83.521 153.352L82.6112 166.743L69.2218 165.833ZM82.4926 168.286L81.5828 181.677L68.1933 180.767L69.1031 167.376L82.4926 168.286ZM70.2304 150.939L71.1402 137.548L84.5297 138.458L83.6199 151.849L70.2304 150.939ZM71.2589 136.025L72.1686 122.634L85.5581 123.544L84.6483 136.935L71.2589 136.025ZM72.2675 121.131L72.6433 115.692L85.9734 117.234L85.6372 122.041L72.2675 121.131ZM84.1143 166.862L85.0241 153.471L98.4136 154.381L97.5038 167.772L84.1143 166.862ZM97.4049 169.295L96.4952 182.685L83.1057 181.776L84.0155 168.385L97.4049 169.295ZM85.1428 151.948L86.0526 138.557L99.442 139.467L98.5323 152.858L85.1428 151.948ZM86.1514 137.054L87.0612 123.663L100.451 124.573L99.5409 137.963L86.1514 137.054ZM87.1799 122.14L87.4963 117.393L100.826 118.935L100.55 123.05L87.1799 122.14ZM99.0267 167.87L99.9365 154.48L113.326 155.389L112.416 168.78L99.0267 167.87ZM112.298 170.323L111.388 183.714L97.9983 182.804L98.908 169.413L112.298 170.323ZM100.035 152.976L100.945 139.585L114.335 140.495L113.425 153.886L100.035 152.976ZM101.064 138.062L101.974 124.672L115.363 125.581L114.453 138.972L101.064 138.062ZM102.072 123.168L102.349 119.133L115.68 120.676L115.442 124.078L102.072 123.168ZM130.869 140.1L131.779 126.709L136.248 127.006L133.954 140.297L130.869 140.1ZM133.697 141.821L131.403 155.113L129.84 155.014L130.75 141.623L133.697 141.821ZM128.851 169.908H128.832L129.741 156.517L131.146 156.616L128.851 169.908ZM113.939 168.899L114.849 155.508L128.238 156.418L127.329 169.809L113.939 168.899ZM127.21 171.332L126.3 184.723L112.911 183.813L113.82 170.422L127.21 171.332ZM114.948 153.985L115.858 140.594L129.247 141.504L128.337 154.895L114.948 153.985ZM115.976 139.091L116.886 125.7L130.275 126.61L129.366 140.001L115.976 139.091ZM116.985 124.177L117.222 120.834L130.552 122.377L130.374 125.087L116.985 124.177ZM132.075 122.555L136.941 123.109L136.525 125.502L131.897 125.186L132.075 122.555ZM110.696 193.94L97.4643 190.914L97.9192 184.307L111.309 185.217L110.696 193.94ZM95.9414 190.558L82.7101 187.531L83.0068 183.279L96.3963 184.189L95.9414 190.558ZM81.207 187.175L67.9758 184.149L68.1142 182.27L81.5037 183.18L81.207 187.175ZM66.4529 183.813L56.2081 181.459L66.5716 182.171L66.4529 183.813ZM46.7148 179.283L38.4873 177.404L39.3179 165.339L52.7074 166.248L51.7976 179.639L46.7148 179.283ZM36.9842 177.048L23.7331 174.002L24.4056 164.29L37.795 165.2L36.9842 177.048ZM22.23 173.666L8.99876 170.64L9.4932 163.301L22.8827 164.211L22.23 173.666ZM12.6576 117.056L13.2312 108.808L26.5613 110.351L26.0471 117.966L12.6576 117.056ZM8.08898 161.66L4.351 161.402L4.43011 147.952L8.99876 148.269L8.08898 161.66ZM4.43011 146.429L4.50922 132.979L10.0272 133.355L9.09764 146.765L4.43011 146.429ZM4.50922 131.476L4.58834 118.026L11.0359 118.461L10.1261 131.852L4.50922 131.476ZM4.29167 169.552L4.33123 162.925L7.97032 163.183L7.47587 170.284L4.29167 169.552Z" fill="#231F20"/>
<path d="M118.29 233.519C117.855 234.627 117.578 235.814 117.499 237.06L24.2078 235.695C24.3462 235.102 24.4451 234.508 24.4847 233.875C24.5242 233.282 24.5044 232.708 24.4253 232.135L118.29 233.519Z" fill="#231F20"/>
<path d="M181.5 114.327L162.612 113.041C162.296 113.021 162.038 112.725 162.058 112.408L162.296 108.947C162.315 108.63 162.612 108.373 162.928 108.393L181.816 109.679C182.133 109.698 182.39 109.995 182.37 110.311L182.133 113.773C182.113 114.109 181.836 114.347 181.5 114.327Z" fill="#231F20"/>
<path d="M225.782 52.0009C221.371 63.4533 217.238 75.5585 208.437 84.1033C205.668 86.7934 202.503 89.0285 199.359 91.2636C194.592 94.6459 189.826 98.0283 185.06 101.411C184.367 101.905 183.616 102.479 183.418 103.309C183.161 104.378 183.912 105.426 184.624 106.276C185.95 107.879 187.275 109.461 188.6 111.063C188.896 111.419 189.233 111.795 189.688 111.795C190.063 111.815 190.4 111.558 190.696 111.32C199.438 104.417 208.199 97.514 216.763 90.3735C219.374 88.1977 222.004 85.9626 224.14 83.3122C226.237 80.7012 227.799 77.7145 229.302 74.708C232.111 69.0708 234.682 63.3149 236.996 57.4601C238.084 54.6909 239.152 51.7042 238.479 48.7966C237.826 46.0076 234.444 43.2582 231.438 43.9901C228.373 44.7615 226.771 49.4493 225.782 52.0009Z" fill="#A71838"/>
<path d="M285.214 229.484L264.368 192.417L261.955 188.105C259.701 190.063 254.835 192.14 250.563 193.722L282.86 231.205C282.88 231.185 282.9 231.185 282.919 231.165L285.214 229.484Z" fill="#F5B251"/>
<path d="M263.003 189.964C262.726 190.202 262.43 190.419 262.113 190.637C260.215 192.377 256.2 194.217 252.323 195.72L250.583 193.703C254.855 192.14 259.72 190.063 261.975 188.085L263.003 189.964Z" fill="#F5B251"/>
<path d="M259.325 51.2888C258.613 48.6383 256.18 46.779 255.112 44.2472C253.51 40.4891 255.132 36.098 254.262 32.1025C253.194 27.1773 248.625 23.8543 246.351 19.3643C244.136 14.9732 244.136 9.47447 240.951 5.71633C238.242 2.49224 233.851 1.32523 229.678 0.712063C224.655 -0.0197865 219.532 -0.197804 214.449 0.21757C212.214 0.395587 209.821 0.771402 208.199 2.334C206.815 3.67902 206.241 5.65699 206.143 7.5954C206.024 9.51403 206.321 11.4524 206.34 13.3711C206.4 18.3951 204.6 23.3994 201.396 27.2564C199.537 29.4915 197.243 31.3113 195.285 33.4475C194.118 34.7134 193.05 36.1375 192.654 37.8188C192.259 39.4803 192.654 41.4583 194.019 42.4868C194.138 42.5659 194.256 42.6648 194.375 42.7439C194.414 42.7637 194.454 42.8033 194.494 42.8231C194.573 42.8824 194.672 42.9417 194.751 43.0011C195.601 43.5549 196.531 44.0692 197.243 44.7812C197.618 45.1571 197.935 45.5922 198.172 46.1263C199.122 48.4207 198.805 51.091 198.746 53.4843C198.746 53.4843 198.627 58.449 201.396 64.0269C201.396 64.0269 204.501 69.3872 210.375 69.5059C210.415 69.5059 210.691 69.5454 211.166 69.5454C210.968 68.6751 210.83 67.8048 210.869 66.9345C211.127 64.4027 213.5 62.7412 215.221 61.1786C217.614 59.0029 219.809 56.5897 221.807 54.0184C222.914 52.5942 223.942 51.1305 224.912 49.6273C225.782 48.2823 226.474 46.6405 227.404 45.256L227.305 45.1768C227.245 45.1373 227.186 45.0779 227.107 45.0384C226.968 44.9395 226.83 44.8406 226.692 44.7417C226.731 44.7615 226.771 44.801 226.81 44.8208C226.573 44.6626 226.336 44.4846 226.118 44.3263C225.287 43.7725 224.397 43.3373 223.468 43.0209C223.151 42.922 222.835 42.8231 222.519 42.7439C222.36 42.7044 222.202 42.6648 222.044 42.645C220.917 42.4077 219.75 42.3483 218.603 42.4868C218.563 42.4868 218.504 42.4868 218.464 42.5066C217.218 42.6648 215.873 43.0011 214.746 42.4275C214.667 42.3879 214.588 42.3286 214.509 42.289C214.489 42.2692 214.449 42.2494 214.429 42.2297C214.37 42.1901 214.331 42.1506 214.271 42.111C214.251 42.0912 214.212 42.0714 214.192 42.0517C214.153 42.0121 214.093 41.9725 214.054 41.933C214.034 41.9132 213.994 41.8934 213.975 41.8539C213.915 41.7945 213.876 41.755 213.816 41.6956C213.777 41.6561 213.737 41.5967 213.698 41.5572C213.658 41.5176 213.638 41.478 213.619 41.4583C213.599 41.4187 213.559 41.3989 213.539 41.3594C213.46 41.2605 213.401 41.1813 213.322 41.0824C213.223 40.944 213.124 40.8055 213.025 40.6473C212.847 40.3704 212.649 40.1132 212.471 39.8363L212.452 39.8165C212.274 39.5396 212.076 39.2627 211.898 38.9858C211.403 38.2144 210.949 37.4232 210.553 36.6122C210.474 36.4342 210.395 36.276 210.316 36.098C210.276 36.0188 210.256 35.9397 210.217 35.8606C210.197 35.8013 210.177 35.7419 210.157 35.7024C210.098 35.5639 210.059 35.4254 209.999 35.287C209.505 33.8233 209.327 32.2805 209.149 30.7377C208.892 28.6014 208.654 26.4652 208.397 24.3093C208.061 21.3819 207.705 18.4149 208.041 15.4875C208.338 12.837 209.366 9.21734 211.641 7.4965C211.957 8.92064 212.808 10.503 213.322 11.4524C215.359 15.2106 218.879 18.1578 222.954 19.5028C225.149 20.2346 227.522 20.5313 229.619 21.461C229.896 20.7291 230.331 19.9775 230.845 19.3248C232.17 17.6633 234.128 16.4963 235.888 17.1688C240.951 19.0874 238.894 28.0081 234.978 30.164C234.741 30.2827 234.504 30.3816 234.227 30.4607C234.168 31.0937 234.088 31.6673 234.049 31.9838C234.009 32.3398 233.93 32.6959 233.851 33.0519C233.02 36.3947 231.676 39.6781 229.678 42.5066C229.599 42.6253 229.52 42.7439 229.441 42.8428C229.342 42.9813 229.243 43.1 229.144 43.2187C229.124 43.2384 229.104 43.278 229.085 43.2978C229.006 43.3967 228.946 43.4956 228.867 43.5747C228.847 43.5945 228.847 43.6143 228.828 43.6143C228.729 43.7329 228.63 43.8516 228.531 43.9703C228.432 44.089 228.313 44.2274 228.214 44.3461C228.155 44.4252 228.096 44.4846 228.036 44.5637C227.977 44.623 227.918 44.7021 227.878 44.7812C227.819 44.8604 227.76 44.9395 227.7 45.0186C227.641 45.0779 227.601 45.1571 227.562 45.2164C227.502 45.2955 227.443 45.3746 227.384 45.4538C227.285 45.612 227.166 45.7702 227.067 45.9285C226.612 46.6801 226.217 47.4713 225.92 48.2823C225.92 48.2823 225.9 48.3416 225.861 48.4603C225.861 48.4603 225.05 50.5965 225.525 51.8624C225.545 51.9019 225.544 51.9415 225.564 51.9811C225.782 53.0492 226.454 53.9195 227.107 54.77C228.472 56.5304 229.599 58.5281 229.915 60.7237C230.212 62.8401 229.757 65.2137 230.964 66.9939C232.229 68.8532 234.959 69.229 237.035 68.3982C239.112 67.5477 240.674 65.7675 241.98 63.9478C243.285 62.1281 244.472 60.1699 246.173 58.6864C246.331 58.5479 246.509 58.3897 246.707 58.271C246.766 58.2315 246.845 58.1721 246.904 58.1326L246.924 58.1128C246.983 58.0732 247.063 58.0337 247.122 57.9941C247.201 57.9545 247.26 57.915 247.339 57.8754C247.359 57.8754 247.359 57.8556 247.379 57.8556C247.438 57.8161 247.517 57.7963 247.597 57.7567C247.676 57.737 247.735 57.6974 247.814 57.6776C247.834 57.6776 247.854 57.6578 247.854 57.6578C247.933 57.6381 247.992 57.6183 248.071 57.5985C248.15 57.5787 248.229 57.5787 248.289 57.5589C248.309 57.5589 248.328 57.5589 248.348 57.5589C248.427 57.5589 248.506 57.5392 248.585 57.5392C249.614 57.5194 250.543 58.1326 251.513 58.4886C253.55 59.2204 255.982 58.7457 257.565 57.282C259.186 55.759 259.879 53.3656 259.325 51.2888Z" fill="#231F20"/>
<path d="M226.791 44.801C226.751 44.7813 226.711 44.7417 226.672 44.7219C226.711 44.7417 226.751 44.7615 226.791 44.801Z" fill="#231F20"/>
<path d="M195.285 33.4475C197.243 31.3113 199.537 29.4915 201.396 27.2564C204.62 23.3994 206.4 18.3951 206.34 13.3711C206.34 12.5601 206.281 11.7294 206.222 10.9184C206.419 12.5008 206.934 14.1623 208.021 15.4084C207.685 18.3358 208.021 21.3027 208.377 24.2301C208.635 26.3664 208.872 28.5026 209.129 30.6585C209.307 32.2014 209.485 33.7442 209.979 35.2079C210.019 35.3463 210.078 35.4848 210.138 35.6233C210.157 35.6826 210.177 35.7419 210.197 35.7815C210.237 35.8606 210.256 35.9397 210.296 36.0189C210.375 36.1969 210.454 36.3749 210.533 36.5331C210.909 37.3639 211.384 38.1551 211.878 38.9067C212.056 39.1836 212.234 39.4605 212.432 39.7374L212.452 39.7572C212.63 40.0341 212.827 40.3111 213.005 40.5682C213.104 40.7066 213.203 40.8451 213.302 41.0033C213.361 41.1022 213.441 41.1814 213.52 41.2803C213.539 41.3198 213.579 41.3396 213.599 41.3792C213.619 41.4187 213.658 41.4583 213.698 41.4781C213.737 41.5176 213.777 41.5769 213.816 41.6165C213.876 41.6758 213.915 41.7154 213.975 41.7747C213.994 41.7945 214.034 41.8143 214.054 41.8539C214.093 41.8934 214.153 41.933 214.192 41.9725C214.212 41.9923 214.251 42.0121 214.271 42.0319C214.331 42.0714 214.37 42.111 214.429 42.1506C214.449 42.1703 214.489 42.1901 214.509 42.2099C214.588 42.2692 214.667 42.3088 214.746 42.3484C215.873 42.922 217.218 42.5857 218.464 42.4275C218.504 42.4275 218.563 42.4275 218.603 42.4077C219.75 42.289 220.916 42.3484 222.044 42.5659C222.202 42.6055 222.36 42.6253 222.518 42.6648C222.835 42.744 223.151 42.8429 223.468 42.9417C224.397 43.2582 225.307 43.6934 226.118 44.2472C226.355 44.4054 226.573 44.5637 226.81 44.7417C226.909 44.8208 227.008 44.8802 227.107 44.9593C227.166 44.9988 227.226 45.0582 227.305 45.0977L227.404 45.1769C227.404 45.1769 227.324 45.3153 227.166 45.5329C226.988 45.8296 226.81 46.1263 226.652 46.423C226.632 46.4823 226.593 46.5219 226.573 46.5812C226.019 47.59 225.505 48.6383 224.912 49.5482C223.942 51.0514 222.914 52.5151 221.806 53.9393C219.809 56.5106 217.614 58.9238 215.221 61.0995C213.5 62.6621 211.127 64.3236 210.869 66.8554C210.83 67.7455 210.949 68.596 211.166 69.4663C210.691 69.4663 210.415 69.4268 210.375 69.4268C204.501 69.3081 201.396 63.9478 201.396 63.9478C198.647 58.3699 198.746 53.4052 198.746 53.4052C198.805 50.9921 199.102 48.3218 198.172 46.0472C197.955 45.5131 197.638 45.078 197.243 44.7021C196.531 43.9901 195.601 43.4758 194.751 42.922C194.672 42.8626 194.573 42.8033 194.494 42.744C194.454 42.7242 194.414 42.6846 194.375 42.6648C194.256 42.5857 194.138 42.4868 194.019 42.4077C192.654 41.3594 192.239 39.4012 192.654 37.7397C193.05 36.1375 194.118 34.7134 195.285 33.4475Z" fill="#231F20"/>
<path d="M206.143 8.01077C206.143 7.87231 206.143 7.73385 206.162 7.59539C206.202 7.002 206.281 6.38883 206.4 5.79544C206.4 5.79544 206.222 6.70531 206.143 8.01077Z" fill="#231F20"/>
<path d="M209.109 30.6388C209.287 32.1816 209.465 33.7244 209.96 35.1881C210.612 37.1463 211.799 38.8869 212.966 40.588C213.441 41.2803 213.935 41.9923 214.687 42.3681C215.814 42.9417 217.159 42.6055 218.405 42.4473C218.444 42.4473 218.504 42.4473 218.543 42.4275C221.174 42.1506 223.883 42.8231 226.079 44.2868C226.474 44.5439 226.87 44.8406 227.265 45.1373L227.364 45.2164C227.76 44.623 228.195 44.0692 228.709 43.6143C228.729 43.5747 228.768 43.5549 228.788 43.5154C228.808 43.4956 228.808 43.4758 228.828 43.4758C229.006 43.2582 229.203 43.0011 229.401 42.7242C229.48 42.6055 229.559 42.5066 229.639 42.3879C229.678 42.3484 229.698 42.3088 229.737 42.2495L229.757 42.2297C229.836 42.111 229.935 41.9725 230.014 41.8341C230.133 41.6758 230.232 41.4978 230.331 41.3198C230.351 41.2803 230.39 41.2209 230.43 41.1814C230.865 40.4891 231.241 39.777 231.616 39.0451C231.636 39.0254 231.636 38.9858 231.656 38.966C231.775 38.7089 231.913 38.4518 232.032 38.1748C232.111 37.9968 232.19 37.8188 232.269 37.6408C232.269 37.6408 232.269 37.621 232.289 37.621C232.348 37.4825 232.407 37.3441 232.467 37.2056C232.526 37.0672 232.566 36.9485 232.625 36.81C232.684 36.6518 232.744 36.4936 232.803 36.3155C232.902 36.0584 233.001 35.7815 233.1 35.5046C233.159 35.3463 233.218 35.1683 233.258 34.9903C233.337 34.7529 233.416 34.5156 233.475 34.2585C233.495 34.1596 233.535 34.0607 233.555 33.9618C233.574 33.8826 233.614 33.7837 233.634 33.7046V33.6848C233.634 33.6651 233.634 33.6453 233.653 33.6453C233.713 33.4079 233.772 33.1706 233.831 32.9332C233.911 32.5772 233.97 32.2211 234.029 31.8651C234.069 31.5289 234.148 30.975 234.207 30.3421C234.464 30.2827 234.721 30.1838 234.939 30.0652C238.855 27.9092 240.892 18.9885 235.849 17.0699C234.089 16.3974 232.131 17.5644 230.805 19.2259C230.271 19.8984 229.856 20.6302 229.579 21.3621C227.483 20.4324 225.109 20.116 222.914 19.4039C218.86 18.0589 215.339 15.1117 213.282 11.3536C212.768 10.4041 211.938 8.82175 211.601 7.39761C210.039 8.5844 209.07 10.6613 208.516 12.6986C208.457 12.8766 208.417 13.0744 208.378 13.2524C208.378 13.2722 208.378 13.292 208.358 13.3117C208.318 13.47 208.279 13.648 208.239 13.8062C208.239 13.8458 208.219 13.8854 208.219 13.9447C208.2 14.0832 208.16 14.2216 208.14 14.3601C208.12 14.4392 208.12 14.5183 208.101 14.5974C208.081 14.6963 208.061 14.7952 208.061 14.8941C208.041 15.0721 208.022 15.2502 208.002 15.4084C207.666 18.3358 208.002 21.3027 208.358 24.2301C208.615 26.3664 208.872 28.5026 209.109 30.6388Z" fill="#F5B251"/>
<path d="M213.757 41.3198C215.715 41.7352 217.732 41.0627 219.73 41.0429C221.47 41.0231 223.25 41.4781 224.892 40.944C226.355 40.4693 227.483 39.243 228.135 37.8584C228.768 36.454 228.966 34.9112 228.986 33.3684C229.006 31.608 228.828 29.8476 228.432 28.1268C228.274 27.3949 228.056 26.6631 227.621 26.0499C226.85 24.962 225.525 24.428 224.318 23.8939C220.798 22.3511 217.475 20.2347 215.043 17.2677C213.539 15.4282 212.412 13.2326 211.898 10.8986C211.661 9.79097 211.522 8.60419 211.601 7.47675C211.937 8.8811 212.748 10.4437 213.263 11.3733C215.3 15.1315 218.82 18.0787 222.894 19.4237C225.09 20.1555 227.463 20.4522 229.559 21.3819C229.836 20.65 230.271 19.8984 230.786 19.2457C232.111 17.5842 234.069 16.4172 235.829 17.0897C240.892 19.0083 238.835 27.929 234.919 30.085C234.682 30.2036 234.444 30.3025 234.187 30.3619C234.128 30.9948 234.049 31.5684 234.009 31.8849C233.97 32.2409 233.891 32.597 233.812 32.953C233.752 33.1904 233.693 33.4277 233.634 33.6651C233.634 33.6849 233.634 33.7046 233.614 33.7046V33.7244C233.594 33.8035 233.554 33.9024 233.535 33.9816C233.515 34.0805 233.475 34.1793 233.456 34.2782C233.376 34.5156 233.317 34.7727 233.238 35.0101C233.179 35.1881 233.119 35.3464 233.08 35.5244C232.981 35.8013 232.882 36.0782 232.783 36.3353C232.724 36.4936 232.664 36.6716 232.605 36.8298C232.546 36.9683 232.506 37.087 232.447 37.2254C232.388 37.3639 232.328 37.5023 232.269 37.6408C232.269 37.6408 232.269 37.6606 232.249 37.6606C232.17 37.8386 232.091 38.0166 232.012 38.1946C231.893 38.4518 231.774 38.7287 231.636 38.9858C231.616 39.0056 231.616 39.0452 231.596 39.0649C231.24 39.7968 230.845 40.5089 230.41 41.2011C230.37 41.2407 230.35 41.3 230.311 41.3396C230.212 41.5176 230.093 41.6759 229.994 41.8539C229.915 41.9923 229.816 42.111 229.737 42.2495L229.718 42.2692C229.678 42.3088 229.658 42.3681 229.619 42.4077C229.54 42.5264 229.46 42.6451 229.381 42.744C229.184 43.0209 228.986 43.2582 228.808 43.4956C228.788 43.5154 228.788 43.5352 228.768 43.5352C228.748 43.5747 228.709 43.5945 228.689 43.6341C228.175 44.1088 227.74 44.6428 227.344 45.2362L227.245 45.1571C226.85 44.8802 226.454 44.5835 226.059 44.3066C223.863 42.8429 221.154 42.1704 218.523 42.4473C218.484 42.4473 218.424 42.4473 218.385 42.467C217.139 42.6253 215.794 42.9615 214.667 42.3879C214.153 42.1308 213.757 41.6956 213.401 41.2407C213.539 41.2605 213.658 41.2803 213.757 41.3198Z" fill="#F5B251"/>
<path d="M234.563 25.6345C234.247 25.6147 233.93 25.4763 233.713 25.2389C233.436 24.9422 233.337 24.5466 233.436 24.1115C233.515 23.7554 233.792 23.4588 234.128 23.3599C234.445 23.261 234.741 23.3401 234.939 23.5576C235.038 23.6763 235.038 23.8543 234.939 23.973C234.84 24.0917 234.662 24.0917 234.563 23.973C234.464 23.8741 234.326 23.8939 234.267 23.9137C234.108 23.973 233.99 24.0917 233.95 24.2302C233.911 24.4477 233.95 24.6258 234.089 24.784C234.286 25.0016 234.662 25.0807 234.939 24.9818C236.146 24.5466 236.62 22.3115 236.581 20.9467C236.541 19.7995 235.869 19.2259 235.256 19.0874C234.544 18.9292 233.614 19.2457 233.139 20.3138C233.08 20.4522 232.922 20.5314 232.783 20.4522C232.645 20.3731 232.605 20.1951 232.665 20.0566C233.278 18.7116 234.445 18.316 235.354 18.5138C236.383 18.7512 237.055 19.661 237.095 20.9072C237.154 22.5093 236.581 25.0016 235.097 25.5356C234.919 25.6345 234.741 25.6543 234.563 25.6345Z" fill="#EE7475"/>
<path d="M181.519 194.059L183.458 190.162C186.602 191.883 189.905 193.129 192.714 193.999L190.538 201.259L168.585 236.031L165.875 234.963L181.519 194.059Z" fill="#F5B251"/>
<path d="M182.39 192.358L183.477 190.182C186.622 191.903 189.925 193.149 192.733 194.019L192.041 196.333C189.134 195.424 185.673 194.158 182.39 192.358Z" fill="#F5B251"/>
<path d="M178.078 221.018C175.883 219.495 172.303 218.21 172.303 218.21L165.875 234.983L165.895 234.904C164.768 235.022 163.561 235.477 162.79 235.675C160.397 236.269 158.004 236.842 155.611 237.436C155.176 237.535 154.721 237.653 154.365 237.91C154.009 238.167 153.732 238.622 153.831 239.058C153.969 239.671 154.661 239.948 155.275 240.106C158.419 240.996 161.564 241.886 164.689 242.756C165.124 242.875 165.559 242.994 166.014 242.934C167.121 242.737 167.636 241.49 167.893 240.403C168.11 239.532 168.269 238.642 168.407 237.772C168.466 237.416 168.506 237.02 168.486 236.664L178.078 221.018Z" fill="#231F20"/>
<path d="M288.734 232.214C288.101 231.581 287.449 230.968 286.776 230.374C286.361 230.018 285.906 229.662 285.392 229.524L275.958 213.027C272.932 214.135 270.677 217.043 270.677 217.043L282.9 231.245C282.485 232.214 282.247 233.321 282.01 234.014C281.239 236.348 280.467 238.682 279.676 241.036C279.538 241.471 279.399 241.906 279.419 242.341C279.459 242.796 279.696 243.251 280.111 243.409C280.705 243.627 281.298 243.172 281.773 242.756C284.185 240.561 286.618 238.385 289.031 236.19C289.367 235.893 289.703 235.576 289.881 235.161C290.297 234.113 289.506 233.005 288.734 232.214Z" fill="#231F20"/>
<path d="M184.605 106.257C184.348 105.94 184.071 105.604 183.853 105.248C183.576 105.268 183.359 105.287 183.201 105.287C181.836 105.248 180.471 105.05 179.126 105.208C174.854 105.683 171.512 109.777 171.176 114.07C171.097 114.999 171.334 116.166 172.244 116.364C172.521 116.423 172.817 116.384 173.074 116.483C173.391 116.621 173.569 116.997 173.846 117.215C174.202 117.511 174.696 117.531 175.151 117.551C176.338 117.61 177.524 117.65 178.672 117.353C179.028 117.254 179.403 117.135 179.779 117.116C180.036 117.116 180.293 117.155 180.531 117.076C180.986 116.957 181.262 116.483 181.46 116.048C182.35 114.03 182.726 111.538 184.605 110.391C185.436 109.876 186.424 109.758 187.413 109.619C186.484 108.512 185.534 107.384 184.605 106.257Z" fill="#F5B251"/>
<path d="M181.44 105.188C180.669 105.149 179.898 105.129 179.146 105.208C174.874 105.683 171.532 109.777 171.196 114.07C171.116 114.999 171.354 116.166 172.264 116.364C172.54 116.423 172.837 116.384 173.094 116.483C173.411 116.621 173.589 116.997 173.866 117.215C174.222 117.511 174.716 117.531 175.171 117.551C176.358 117.61 177.544 117.65 178.691 117.353C179.047 117.254 179.423 117.135 179.799 117.116C180.056 117.116 180.313 117.155 180.55 117.076C181.005 116.957 181.282 116.483 181.48 116.048C182.37 114.03 182.746 111.538 184.625 110.391C184.842 110.272 185.06 110.153 185.277 110.074L181.44 105.188Z" fill="#F5B251"/>
<path d="M213.856 85.033C213.856 85.033 214.034 87.1098 213.955 90.8284C213.935 92.2921 213.876 93.8547 213.757 95.4767C213.5 99.4524 212.986 104.437 211.977 110.232C217.04 110.944 231.834 112.804 243.74 112.111C242.988 101.233 243.305 91.2833 243.305 91.2833C243.265 84.9538 243.562 77.6354 244.393 69.1696C244.749 62.6028 245.085 55.6601 241.96 49.8646C240.615 47.3526 238.756 44.9197 236.145 43.6538C235.117 43.1593 233.99 42.8626 232.842 42.7835C231.517 42.7044 229.935 42.6055 228.887 43.4956C227.067 45.0582 226.158 47.6493 224.892 49.6471C222.202 53.8601 218.919 57.8359 215.221 61.1984C213.5 62.761 211.127 64.4225 210.869 66.9543C210.751 69.5652 212.096 72.0179 212.63 74.8662C212.63 74.8266 213.539 78.6639 213.856 85.033Z" fill="#A71838"/>
<path d="M243.74 112.092C231.834 112.804 217.04 110.944 211.977 110.213C210.949 116.067 209.426 122.733 207.171 129.992C216.269 130.744 230.983 131.219 245.955 128.509C244.808 123.623 244.136 117.729 243.74 112.092Z" fill="#F5B251"/>
<path d="M251.532 166.268C248.566 157.031 248.348 151.335 248.348 151.335C249.95 136.361 245.955 128.509 245.955 128.509C245.223 125.364 244.689 121.823 244.294 118.184C233.416 118.797 215.458 117.709 210.553 117.393C209.663 121.349 208.555 125.562 207.171 129.992L183.181 190.024C186.998 192.14 191.072 193.564 194.217 194.454L216.466 154.618C216.466 154.618 218.939 150.346 224.793 151.058C225.129 151.077 225.446 151.157 225.742 151.315C225.742 151.315 228.63 152.007 229.698 155.844C229.698 155.844 236.64 178.987 248.922 194.336C253.629 192.694 259.681 190.261 262.133 187.986C262.232 187.907 262.351 187.828 262.45 187.769C257.248 180.866 251.532 166.268 251.532 166.268Z" fill="url(#paint0_linear_42_393)"/>
<path d="M213.816 156.24L192.733 193.999C193.248 194.158 193.742 194.316 194.236 194.435L216.486 154.598C216.486 154.598 218.959 150.326 224.813 151.038C224.793 151.038 218.029 148.447 213.816 156.24Z" fill="#FF0101"/>
<path d="M251.532 166.268C248.566 157.031 248.348 151.335 248.348 151.335C249.95 136.361 245.955 128.509 245.955 128.509C245.223 125.364 244.689 121.823 244.294 118.184C233.416 118.797 215.458 117.709 210.553 117.393C209.979 119.964 209.307 122.634 208.536 125.423C217.732 127.816 224.2 136.381 224.2 136.381C228.017 140.713 231.715 154.44 231.715 154.44C238.499 178.294 250.583 193.722 250.583 193.742C254.954 192.14 259.958 190.004 262.133 187.986C262.232 187.907 262.351 187.828 262.45 187.769C257.248 180.866 251.532 166.268 251.532 166.268Z" fill="#FF0101"/>
<path d="M173.074 116.503H173.055C172.956 116.483 172.877 116.384 172.877 116.285C172.896 116.127 173.411 112.27 174.775 110.054C174.835 109.955 174.953 109.936 175.052 109.995C175.151 110.054 175.171 110.173 175.112 110.272C173.806 112.408 173.272 116.305 173.272 116.344C173.252 116.423 173.173 116.503 173.074 116.503Z" fill="#F5B251"/>
<path d="M179.087 117.294H179.067C178.968 117.274 178.909 117.195 178.909 117.096C178.928 116.938 179.383 113.338 180.59 111.281C180.649 111.202 180.748 111.162 180.827 111.221C180.906 111.281 180.926 111.38 180.886 111.478C179.72 113.476 179.265 117.116 179.265 117.155C179.245 117.234 179.166 117.294 179.087 117.294Z" fill="#F5B251"/>
<path d="M175.922 117.61H175.903C175.804 117.59 175.725 117.492 175.725 117.393C175.744 117.215 176.259 113.081 177.623 110.687C177.683 110.588 177.801 110.569 177.9 110.608C177.999 110.667 178.019 110.786 177.979 110.885C176.654 113.199 176.14 117.393 176.14 117.452C176.1 117.531 176.021 117.61 175.922 117.61Z" fill="#F5B251"/>
</g>
<defs>
<linearGradient id="paint0_linear_42_393" x1="222.815" y1="117.393" x2="222.815" y2="194.454" gradientUnits="userSpaceOnUse">
<stop stop-color="#FF0101"/>
<stop offset="1" stop-color="#F7941D"/>
</linearGradient>
<clipPath id="clip0_42_393">
<rect width="290" height="255" fill="white"/>
</clipPath>
</defs>
</svg>
