<svg width="302" height="249" viewBox="0 0 302 249" fill="none" xmlns="http://www.w3.org/2000/svg">
<path d="M120.34 140.17C93.1698 112.28 93.1698 67.0622 120.34 39.1726C147.51 11.283 191.562 11.283 218.732 39.1726C245.903 67.0622 245.903 112.28 218.732 140.17C191.562 168.059 147.51 168.059 120.34 140.17Z" fill="url(#paint0_linear_28_44)" fill-opacity="0.1"/>
<path d="M122.155 108.812C95.1642 108.812 73.2839 86.3525 73.2839 58.6472C73.2839 30.942 95.1642 8.48239 122.155 8.48239C149.146 8.48239 171.026 30.942 171.026 58.6472C171.026 86.3525 149.146 108.812 122.155 108.812Z" fill="url(#paint1_linear_28_44)" fill-opacity="0.1"/>
<path d="M215.099 103.34C188.108 103.34 166.228 80.88 166.228 53.1747C166.228 25.4694 188.108 3.00989 215.099 3.00989C242.089 3.00989 263.97 25.4694 263.97 53.1747C263.97 80.88 242.089 103.34 215.099 103.34Z" fill="url(#paint2_linear_28_44)" fill-opacity="0.1"/>
<path d="M237.668 157.518C210.677 157.518 188.797 135.058 188.797 107.353C188.797 79.6474 210.677 57.1879 237.668 57.1879C264.659 57.1879 286.539 79.6474 286.539 107.353C286.539 135.058 264.659 157.518 237.668 157.518Z" fill="url(#paint3_linear_28_44)" fill-opacity="0.1"/>
<path d="M231.804 240.153C237.668 233.768 241.844 226.107 240.156 216.986C239.445 213.246 238.734 210.054 241.222 206.862C242.377 205.311 243.799 203.943 244.599 202.21C247.087 197.193 245.221 191.812 243.088 187.069C241.489 183.512 239.889 179.955 239.267 176.124C238.645 172.02 239.712 168.007 239.445 163.902C239.179 159.889 237.224 155.511 233.403 154.69C230.915 154.052 228.249 155.237 226.294 156.97C224.073 158.886 222.385 161.622 221.763 164.632C220.874 168.645 221.674 173.114 219.897 176.854C218.297 180.137 215.01 182.144 212.788 184.971C210.389 187.981 209.323 192.086 209.856 195.916C210.3 199.109 211.811 202.119 212.077 205.311C212.788 212.516 207.457 219.266 207.99 226.563C208.257 230.758 210.656 234.68 213.855 237.325C217.498 240.335 222.829 242.615 227.627 241.977C230.204 241.612 232.514 240.335 234.025 238.146" fill="url(#paint4_linear_28_44)" fill-opacity="0.6"/>
<path d="M223.096 237.325C223.362 237.325 223.54 237.143 223.629 236.869L227.183 205.311L231.004 171.473C231.004 171.199 230.826 170.925 230.56 170.925C230.293 170.925 230.026 171.108 230.026 171.381L226.206 205.22L222.651 236.778C222.474 237.052 222.74 237.234 223.096 237.325C223.007 237.325 223.007 237.325 223.096 237.325Z" fill="url(#paint5_linear_28_44)"/>
<path d="M226.65 205.767C226.739 205.767 226.828 205.767 226.916 205.676C227.183 205.493 227.272 205.22 227.094 204.946L218.83 190.718C218.653 190.444 218.386 190.353 218.12 190.535C217.853 190.718 217.764 190.991 217.942 191.265L226.206 205.493C226.294 205.676 226.472 205.767 226.65 205.767Z" fill="url(#paint6_linear_28_44)"/>
<path d="M228.072 196.281C228.16 196.281 228.249 196.281 228.338 196.19L239.267 190.9C239.534 190.809 239.623 190.444 239.534 190.17C239.445 189.897 239.09 189.805 238.823 189.897L227.894 195.187C227.627 195.278 227.538 195.643 227.627 195.916C227.716 196.19 227.894 196.281 228.072 196.281Z" fill="url(#paint7_linear_28_44)"/>
<path d="M225.139 219.357C225.228 219.357 225.317 219.357 225.317 219.357L234.558 215.253C234.825 215.162 234.913 214.797 234.825 214.523C234.736 214.249 234.38 214.158 234.114 214.249L224.962 218.354C224.695 218.445 224.606 218.81 224.695 219.083C224.784 219.266 224.962 219.357 225.139 219.357Z" fill="url(#paint8_linear_28_44)"/>
<path d="M223.895 236.596C224.34 234.863 224.428 233.312 224.162 232.035C223.096 227.748 219.364 224.647 216.698 221.364C213.588 217.442 211.455 212.516 211.722 207.5C211.9 203.396 211.278 199.93 208.612 196.646C206.035 193.454 202.747 190.991 199.993 187.89C197.15 184.698 194.573 181.232 192.44 177.492C190.574 174.3 187.109 169.557 183.91 174.391C182.666 176.307 182.133 178.769 182.488 181.049C183.466 187.069 188.53 191.356 190.485 196.92C191.463 199.747 191.463 202.757 191.552 205.767C191.64 208.412 191.996 211.422 193.684 213.611C194.662 214.888 195.994 215.8 196.883 217.168C198.127 218.992 198.394 221.272 198.749 223.462C199.104 225.833 199.815 227.931 200.704 230.12C202.748 235.592 205.946 242.068 211.278 244.804C212.877 245.625 214.654 246.081 216.343 245.716C220.341 244.896 222.918 240.153 223.895 236.596Z" fill="url(#paint9_linear_28_44)" fill-opacity="0.6"/>
<path d="M214.565 238.693C214.654 238.693 214.654 238.693 214.743 238.693C215.01 238.602 215.099 238.237 215.01 237.964L199.46 197.102C199.371 196.829 199.016 196.737 198.749 196.829C198.482 196.92 198.394 197.285 198.482 197.558L214.032 238.42C214.21 238.602 214.388 238.693 214.565 238.693Z" fill="url(#paint10_linear_28_44)"/>
<path d="M205.413 214.067C205.68 214.067 205.857 213.885 205.946 213.611L207.546 199.93C207.546 199.656 207.368 199.382 207.101 199.382C206.835 199.382 206.568 199.565 206.568 199.838L204.969 213.52C204.88 213.702 205.058 213.976 205.413 214.067Z" fill="url(#paint11_linear_28_44)"/>
<path d="M206.835 219.175C207.013 219.175 207.19 219.084 207.279 218.901C207.457 218.627 207.368 218.354 207.101 218.171L197.238 211.422C196.972 211.24 196.705 211.331 196.528 211.604C196.35 211.878 196.439 212.152 196.705 212.334L206.568 219.084C206.568 219.175 206.657 219.175 206.835 219.175Z" fill="url(#paint12_linear_28_44)"/>
<path d="M213.41 234.498C213.588 234.498 213.855 234.315 213.943 234.133L216.343 226.107C216.431 225.833 216.254 225.559 215.987 225.468C215.721 225.377 215.454 225.559 215.365 225.833L212.966 233.859C212.877 234.133 213.055 234.407 213.321 234.498C213.233 234.498 213.321 234.498 213.41 234.498Z" fill="url(#paint13_linear_28_44)"/>
<path d="M229.76 240.882C229.671 239.697 229.849 238.511 230.293 237.69C231.626 234.954 234.647 233.403 236.868 231.579C239.534 229.39 241.667 226.38 242.2 222.914C242.644 220.087 243.621 217.807 245.843 215.982C248.064 214.158 250.641 212.972 252.951 211.331C255.35 209.598 257.572 207.591 259.616 205.402C261.304 203.487 264.414 200.842 265.835 204.581C266.457 206.041 266.457 207.774 265.835 209.324C264.325 213.246 260.238 215.344 258.105 218.901C257.039 220.725 256.594 222.732 256.061 224.738C255.617 226.563 254.995 228.569 253.484 229.755C252.596 230.485 251.618 230.941 250.819 231.67C249.664 232.765 249.219 234.224 248.686 235.683C248.064 237.234 247.265 238.511 246.376 239.879C244.155 243.345 241.133 247.176 237.046 248.27C235.891 248.544 234.558 248.635 233.492 248.179C230.915 246.993 229.849 243.436 229.76 240.882Z" fill="url(#paint14_linear_28_44)" fill-opacity="0.6"/>
<path d="M235.002 243.71C235.18 243.71 235.358 243.619 235.447 243.436L251.885 217.989C252.063 217.715 251.974 217.442 251.707 217.259C251.441 217.077 251.174 217.168 250.996 217.442L234.558 242.889C234.38 243.163 234.469 243.436 234.736 243.619C234.825 243.71 234.913 243.71 235.002 243.71Z" fill="url(#paint15_linear_28_44)"/>
<path d="M244.777 228.296C245.043 228.296 245.31 228.113 245.31 227.84L246.198 218.263C246.198 217.989 246.021 217.715 245.754 217.715C245.487 217.715 245.221 217.898 245.221 218.171L244.332 227.748C244.243 228.022 244.421 228.296 244.777 228.296Z" fill="url(#paint16_linear_28_44)"/>
<path d="M243.088 231.579C243.177 231.579 243.177 231.579 243.266 231.579L250.908 228.478C251.174 228.387 251.263 228.022 251.174 227.748C251.085 227.475 250.73 227.383 250.463 227.475L242.822 230.576C242.555 230.667 242.466 231.032 242.555 231.305C242.733 231.488 242.911 231.579 243.088 231.579Z" fill="url(#paint17_linear_28_44)"/>
<path d="M236.424 240.974C236.779 240.974 236.957 240.7 236.957 240.426L236.424 234.589C236.424 234.315 236.157 234.042 235.891 234.133C235.624 234.133 235.358 234.407 235.447 234.68L235.98 240.518C235.98 240.791 236.157 240.974 236.424 240.974Z" fill="url(#paint18_linear_28_44)"/>
<path d="M256.632 118.722C261.4 118.722 265.265 114.754 265.265 109.861C265.265 104.967 261.4 101 256.632 101C251.865 101 248 104.967 248 109.861C248 114.754 251.865 118.722 256.632 118.722Z" fill="#FE5F55"/>
<path d="M256.069 112.75C255.006 112.622 254.193 112.044 254.193 111.017H255.256C255.319 111.466 255.506 111.787 256.007 111.915V109.925C255.131 109.668 254.13 109.476 254.13 108.191C254.13 107.164 254.881 106.458 256.007 106.393V105.623H256.57V106.329C257.571 106.393 258.259 106.971 258.321 107.999H257.383C257.32 107.613 257.133 107.292 256.695 107.164V109.09C257.571 109.283 258.509 109.54 258.509 110.824C258.509 111.723 257.883 112.558 256.695 112.686V113.456H256.132V112.75H256.069ZM256.069 109.026V107.164C255.569 107.228 255.256 107.549 255.256 108.063C255.256 108.641 255.631 108.833 256.069 109.026ZM256.632 110.053V111.915C257.133 111.851 257.445 111.466 257.445 110.952C257.508 110.439 257.133 110.182 256.632 110.053Z" fill="white"/>
<path d="M47.7028 79.9193C53.0615 79.9193 57.4056 75.4602 57.4056 69.9597C57.4056 64.4591 53.0615 60 47.7028 60C42.3441 60 38 64.4591 38 69.9597C38 75.4602 42.3441 79.9193 47.7028 79.9193Z" fill="#FE5F55"/>
<path d="M47.07 73.1352C45.8747 72.9909 44.9607 72.3414 44.9607 71.1866H46.156C46.2263 71.6918 46.4372 72.0527 46.9997 72.197V69.9597C46.0154 69.671 44.8904 69.4545 44.8904 68.0111C44.8904 66.8563 45.7341 66.0624 46.9997 65.9903V65.1242H47.6325V65.9903C48.7574 66.0624 49.5309 66.712 49.6012 67.8667H48.4059C48.3356 67.4337 48.1247 67.0728 47.6325 66.9285V69.0936C48.6168 69.3102 49.6715 69.5988 49.6715 71.0423C49.6715 72.0527 48.9684 72.9909 47.6325 73.1352V74.0013H46.9997V73.1352H47.07ZM47.07 68.9493V66.9285C46.5075 67.0007 46.156 67.3615 46.156 67.9389C46.156 68.5163 46.5778 68.805 47.07 68.9493ZM47.7731 70.1762V72.2692C48.3356 72.197 48.6871 71.764 48.6871 71.1866C48.6871 70.6092 48.2653 70.3206 47.7731 70.1762Z" fill="white"/>
<path d="M22.8705 139.176C21.7904 132.313 26.3344 125.851 33.0199 124.743C39.7054 123.634 46.0008 128.298 47.0809 135.161C48.1611 142.023 43.6171 148.485 36.9316 149.594C30.246 150.703 23.9507 146.038 22.8705 139.176Z" fill="#FE5F55"/>
<path d="M35.1645 142.833L40.4071 137.999C41.9176 136.631 42.0065 134.259 40.6736 132.8C39.3408 131.249 37.0305 131.158 35.6088 132.526L34.9868 133.074L34.1871 132.435C32.6765 131.158 30.3662 131.341 29.1222 132.982C27.8783 134.533 28.056 136.904 29.6554 138.181L35.1645 142.833Z" fill="white"/>
<path d="M186.931 25.1736C180.159 25.1736 174.669 19.5383 174.669 12.5868C174.669 5.63531 180.159 0 186.931 0C193.703 0 199.193 5.63531 199.193 12.5868C199.193 19.5383 193.703 25.1736 186.931 25.1736Z" fill="#FE5F55"/>
<path d="M187.198 18.2418L192.44 13.4077C193.951 12.0396 194.04 9.66814 192.707 8.2088C191.374 6.65825 189.064 6.56704 187.642 7.93517L187.02 8.48243L186.22 7.84396C184.71 6.56704 182.399 6.74946 181.155 8.39122C179.911 9.94177 180.089 12.3132 181.689 13.5901L187.198 18.2418Z" fill="white"/>
<path d="M261.748 63.6638C262.992 63.6638 264.058 62.5692 264.058 61.2923C264.058 60.0154 262.992 58.9209 261.748 58.9209C260.504 58.9209 259.438 60.0154 259.438 61.2923C259.438 62.5692 260.504 63.6638 261.748 63.6638ZM261.748 59.7418C262.548 59.7418 263.259 60.4714 263.259 61.2923C263.259 62.1132 262.548 62.8429 261.748 62.8429C260.948 62.8429 260.238 62.1132 260.238 61.2923C260.238 60.4714 260.86 59.7418 261.748 59.7418Z" fill="#83DDDD"/>
<path d="M215.454 122.858C216.698 122.858 217.764 121.764 217.764 120.487C217.764 119.21 216.698 118.115 215.454 118.115C214.21 118.115 213.144 119.21 213.144 120.487C213.144 121.764 214.21 122.858 215.454 122.858ZM215.454 118.936C216.254 118.936 216.965 119.666 216.965 120.487C216.965 121.308 216.254 122.037 215.454 122.037C214.654 122.037 213.943 121.308 213.943 120.487C213.943 119.575 214.654 118.936 215.454 118.936Z" fill="#83DDDD"/>
<path d="M180.089 43.7802C181.333 43.7802 182.399 42.6857 182.399 41.4088C182.399 40.1319 181.333 39.0374 180.089 39.0374C178.845 39.0374 177.779 40.1319 177.779 41.4088C177.779 42.6857 178.845 43.7802 180.089 43.7802ZM180.089 39.8582C180.889 39.8582 181.6 40.5879 181.6 41.4088C181.6 42.2297 180.889 42.9593 180.089 42.9593C179.289 42.9593 178.579 42.2297 178.579 41.4088C178.579 40.4967 179.289 39.8582 180.089 39.8582Z" fill="#83DDDD"/>
<path d="M123.043 5.83737C124.287 5.83737 125.354 4.74286 125.354 3.46594C125.354 2.18902 124.287 1.09451 123.043 1.09451C121.799 1.09451 120.733 2.18902 120.733 3.46594C120.733 4.74286 121.711 5.83737 123.043 5.83737ZM123.043 1.91539C123.843 1.91539 124.554 2.64506 124.554 3.46594C124.554 4.28682 123.843 5.01649 123.043 5.01649C122.244 5.01649 121.533 4.28682 121.533 3.46594C121.533 2.64506 122.155 1.91539 123.043 1.91539Z" fill="#83DDDD"/>
<path d="M59.4223 40.1319C60.6663 40.1319 61.7326 39.0374 61.7326 37.7605C61.7326 36.4835 60.6663 35.389 59.4223 35.389C58.1783 35.389 57.112 36.4835 57.112 37.7605C57.112 39.0374 58.0894 40.1319 59.4223 40.1319ZM59.4223 36.2099C60.222 36.2099 60.9329 36.9396 60.9329 37.7605C60.9329 38.5814 60.222 39.311 59.4223 39.311C58.6226 39.311 57.9117 38.5814 57.9117 37.7605C57.8229 36.9396 58.5337 36.2099 59.4223 36.2099Z" fill="#83DDDD"/>
<path d="M222.562 11.9484C223.806 11.9484 224.873 10.8539 224.873 9.57693C224.873 8.30001 223.806 7.20551 222.562 7.20551C221.318 7.20551 220.252 8.30001 220.252 9.57693C220.252 10.8539 221.23 11.9484 222.562 11.9484ZM222.562 8.02638C223.362 8.02638 224.073 8.75605 224.073 9.57693C224.073 10.3978 223.362 11.1275 222.562 11.1275C221.763 11.1275 221.052 10.3978 221.052 9.57693C221.052 8.75605 221.674 8.02638 222.562 8.02638Z" fill="#83DDDD"/>
<path d="M2.55426 124.318C3.79825 124.318 4.86453 123.223 4.86453 121.946C4.86453 120.669 3.79825 119.575 2.55426 119.575C1.31027 119.575 0.243988 120.669 0.243988 121.946C0.243988 123.223 1.22141 124.318 2.55426 124.318ZM2.55426 120.396C3.35397 120.396 4.06483 121.125 4.06483 121.946C4.06483 122.767 3.35397 123.497 2.55426 123.497C1.75455 123.497 1.04369 122.767 1.04369 121.946C0.954834 121.125 1.6657 120.396 2.55426 120.396Z" fill="#83DDDD"/>
<path d="M78.4375 127.601C79.6815 127.601 80.7478 126.507 80.7478 125.23C80.7478 123.953 79.6815 122.858 78.4375 122.858C77.1935 122.858 76.1273 123.953 76.1273 125.23C76.1273 126.507 77.1935 127.601 78.4375 127.601ZM78.4375 123.679C79.2372 123.679 79.9481 124.409 79.9481 125.23C79.9481 126.051 79.2372 126.78 78.4375 126.78C77.6378 126.78 76.927 126.051 76.927 125.23C76.927 124.409 77.6378 123.679 78.4375 123.679Z" fill="#83DDDD"/>
<path d="M299.69 139.458C300.934 139.458 302 138.364 302 137.087C302 135.81 300.934 134.715 299.69 134.715C298.446 134.715 297.379 135.81 297.379 137.087C297.379 138.364 298.446 139.458 299.69 139.458ZM299.69 135.536C300.489 135.536 301.2 136.266 301.2 137.087C301.2 137.908 300.489 138.637 299.69 138.637C298.89 138.637 298.179 137.908 298.179 137.087C298.179 136.266 298.89 135.536 299.69 135.536Z" fill="#83DDDD"/>
<path d="M209.323 40.9527C209.412 41.3175 209.589 41.6824 209.767 42.1384C211.189 44.6923 215.187 41.7736 216.609 40.6791C218.831 38.9461 220.074 35.2066 219.452 34.2945C218.831 33.3824 214.032 37.6692 213.766 37.578C213.41 37.4868 215.543 35.2066 214.832 34.3857C214.121 33.656 210.922 36.3011 210.123 37.8516C209.323 39.0373 209.056 39.9494 209.323 40.9527Z" fill="#F5B251"/>
<path d="M201.592 55.2725L202.214 55.1813C201.681 49.8 201.77 42.5945 205.058 38.7637C206.479 37.122 208.523 36.2099 211.011 36.2099C217.587 36.2099 221.141 53.1747 221.141 53.3571L221.763 53.2659C221.585 52.5362 218.12 35.5714 211.1 35.5714C211.1 35.5714 211.1 35.5714 211.011 35.5714C208.345 35.5714 206.124 36.5747 204.525 38.3077C201.148 42.3209 201.059 49.7088 201.592 55.2725Z" fill="black"/>
<path d="M203.814 54.9989L204.436 54.9077C203.903 49.5264 203.991 42.3209 207.279 38.4901C208.701 36.8483 210.745 35.9363 213.233 35.9363C219.719 35.9363 223.273 52.9011 223.273 53.0835L223.895 52.9923C223.718 52.2626 220.252 35.2978 213.233 35.2978C213.233 35.2978 213.233 35.2978 213.144 35.2978C210.478 35.2978 208.257 36.3011 206.657 38.0341C203.369 42.0472 203.281 49.4352 203.814 54.9989Z" fill="black"/>
<path d="M199.993 54.7252L202.214 95.3131L232.603 93.5802L232.514 93.3066L225.05 52.9011L199.993 54.7252Z" fill="black"/>
<path d="M202.214 95.3132L203.991 96.9549L236.069 94.7659L232.514 93.3066L232.603 93.5802L202.214 95.3132Z" fill="black"/>
<path d="M225.05 52.9011L232.514 93.3066L236.069 94.7659L228.338 54.4516L225.05 52.9011Z" fill="black"/>
<path d="M216.876 53.722C216.965 53.0835 218.653 37.7604 212.611 35.7538C210.3 35.0241 208.257 35.2066 206.391 36.2099C202.392 38.4901 200.348 44.6923 199.282 49.5263L200.171 49.7088C201.148 45.1483 203.192 39.2198 206.835 37.0307C208.434 36.1187 210.3 35.9362 212.344 36.5747C217.675 38.3077 215.987 53.3571 215.987 53.4483L216.876 53.722Z" fill="black"/>
<path d="M218.742 54.178C218.831 53.5395 220.519 38.2165 214.477 36.2099C212.166 35.4802 210.123 35.6626 208.257 36.6659C204.258 38.9461 202.214 45.1483 201.148 49.9824L202.037 50.1648C203.014 45.6044 205.058 39.6758 208.701 37.4868C210.3 36.5747 212.166 36.3923 214.21 37.0308C219.541 38.7637 217.853 53.8132 217.853 53.9044L218.742 54.178Z" fill="black"/>
<path d="M198.216 48.7054L189.064 83.0912L214.832 90.2967V90.023L219.541 54.2692L198.216 48.7054Z" fill="#FE5F55"/>
<path d="M189.064 83.0912L190.13 85.0066L217.409 92.2121L214.832 90.0231V90.2967L189.064 83.0912Z" fill="#E23737"/>
<path d="M219.541 54.2692L214.832 90.023L217.409 92.212L221.763 56.5494L219.541 54.2692Z" fill="#F94541"/>
<path d="M190.841 68.8626C190.308 67.5857 190.574 66.1264 191.374 65.0318C195.017 59.3769 208.523 39.1285 211.367 39.6758C214.654 40.3143 196.528 70.4132 194.75 70.5044C193.329 70.5044 191.64 70.8692 190.841 68.8626Z" fill="#F5B251"/>
<path d="M209.323 40.9527C210.211 40.3142 212.877 38.2164 213.677 37.578C213.321 37.4868 215.454 35.2065 214.743 34.3857C214.032 33.656 210.833 36.3011 210.034 37.8516C209.323 39.0373 209.056 39.9494 209.323 40.9527Z" fill="#F5B251"/>
<path d="M159.386 74.3352C159.652 72.6934 160.985 71.4165 162.584 70.9604C169.693 68.9539 193.684 62.5692 195.55 67.8593C197.683 74.0615 176.091 78.4396 169.693 78.8956C164.273 79.2604 158.675 78.3484 159.386 74.3352Z" fill="#F5B251"/>
<path d="M164.095 128.24C160.008 127.145 155.565 130.155 154.41 134.807C153.521 138.546 152.81 143.563 152.988 150.038C153.343 166.182 149.789 185.336 154.943 188.346C160.096 191.447 165.161 181.414 167.56 165.635C169.693 151.407 174.402 133.803 171.026 130.793C169.338 129.243 167.738 129.243 164.095 128.24Z" fill="#E6D5B9"/>
<path d="M151.833 126.324C148.19 124.135 143.125 125.777 140.815 129.881C138.949 133.165 136.905 137.816 135.306 144.11C131.307 159.707 122.688 177.036 126.864 181.505C131.04 185.975 138.593 177.766 145.169 163.264C151.122 150.221 160.274 134.624 157.875 130.793C156.631 128.787 155.032 128.24 151.833 126.324Z" fill="#E6D5B9"/>
<path d="M158.142 184.333C150.411 177.401 147.035 219.813 148.101 231.488C149.256 243.163 152.544 233.951 155.92 215.891C159.297 197.741 161.163 186.978 158.142 184.333Z" fill="#E6D5B9"/>
<path d="M148.012 219.448L147.657 234.954H151.833L155.209 218.08" fill="#E6D5B9"/>
<path d="M132.64 179.864C136.283 170.013 96.3865 181.505 86.1681 186.613C75.9496 191.721 85.4572 191.812 103.14 188.711C120.822 185.61 131.218 183.694 132.64 179.864Z" fill="#E6D5B9"/>
<path d="M87.9452 185.792L83.1469 187.708L84.3909 191.174L89.5446 190.535L87.9452 185.792Z" fill="#E6D5B9"/>
<path d="M140.992 85.189C139.482 84.4593 137.705 84.8242 136.461 85.9187C130.774 90.7527 111.936 107.262 115.135 111.822C118.867 117.203 134.684 101.515 138.771 96.4077C142.059 92.1209 144.635 86.922 140.992 85.189Z" fill="#F5B251"/>
<path d="M83.0581 99.1439C83.5024 99.3263 84.1244 99.6 84.8352 99.8736C86.79 100.603 89.4557 101.151 90.0777 99.1439C90.6109 97.411 90.1666 96.3165 89.0114 95.0395C87.8563 93.6714 84.2132 91.756 83.6801 92.6681C83.1469 93.5802 85.7238 95.4044 85.3683 95.5868C85.2795 95.5868 85.1018 95.4956 84.6575 95.3132C83.1469 94.5835 79.415 92.6681 79.0595 93.5802C78.6153 94.5835 80.5701 97.9582 83.0581 99.1439Z" fill="#F5B251"/>
<path d="M118.334 111.822C117.268 112.643 115.846 112.643 114.513 112.187C108.382 109.815 86.0792 100.968 85.9015 97.9582C85.7238 94.4923 118.512 105.802 118.956 107.535C119.311 108.903 120.111 110.545 118.334 111.822Z" fill="#F5B251"/>
<path d="M171.914 128.24C171.914 128.24 175.646 133.986 167.916 168.371C160.185 202.848 152.899 231.762 152.899 231.762H146.324C146.324 231.762 146.235 212.334 147.568 202.392C148.901 192.451 150.411 190.444 150.678 187.252C150.944 184.059 150.767 155.693 150.767 155.693C150.767 155.693 140.104 178.952 132.107 183.512C124.11 188.073 88.1229 191.994 88.1229 191.994L87.1455 184.424C87.1455 184.424 98.7856 179.499 105.539 177.948C112.292 176.307 122.51 175.121 123.665 174.3C124.821 173.479 126.509 142.286 143.392 125.138" fill="#90241E"/>
<path d="M128.197 92.4857L135.839 100.695L143.036 93.489C143.036 93.489 148.19 106.258 147.834 113.646C147.568 121.034 142.681 124.318 142.681 124.318C155.387 133.53 172.803 128.422 172.803 128.422C172.803 128.422 172.181 112.46 171.648 105.346C171.115 98.2319 175.646 96.6813 175.557 92.3033C175.38 87.9253 169.426 80.355 169.426 80.355L179.023 78.2572L176.002 66.8561C176.002 66.8561 165.161 68.4978 157.164 70.5956C157.608 71.4165 160.185 76.1594 156.453 78.3484C152.455 80.7198 146.946 75.2473 146.59 74.7912C141.081 78.0748 135.128 83.0912 128.197 92.4857Z" fill="url(#paint19_linear_28_44)"/>
<path d="M149.345 73.5143C149.967 73.2407 150.678 72.8758 151.3 72.6022C150.678 72.8758 150.056 73.1495 149.345 73.5143C148.723 73.7879 148.012 74.1527 147.39 74.5176C147.301 73.8791 146.768 69.6835 145.613 66.0352L152.81 62.478C154.054 66.9473 156.365 70.5044 156.542 70.8692C156.098 70.9604 155.654 71.1429 155.209 71.2341C155.654 71.1429 156.098 70.9604 156.542 70.8692C156.72 70.778 156.987 70.778 157.164 70.6868C157.609 71.5077 160.185 76.2506 156.453 78.4396C152.455 80.811 146.946 75.3385 146.59 74.8824C146.857 74.7 147.123 74.6088 147.301 74.5176C148.012 74.1527 148.723 73.7879 149.345 73.5143Z" fill="#F5B251"/>
<path d="M154.054 47.7022C154.054 47.9758 159.741 64.9406 152.366 68.0417C144.991 71.0516 140.37 67.4945 138.149 64.7582C138.149 64.7582 133.617 64.9406 131.84 61.9307C130.063 58.9209 133.084 59.4681 133.884 58.9209C134.684 58.3736 132.64 44.7835 132.64 44.7835L147.301 41.8648L154.054 47.7022Z" fill="#F5B251"/>
<path d="M155.387 53.4484C155.209 53.266 156.987 48.7967 155.743 44.966C153.699 38.4901 140.104 32.9264 131.04 41.2264C121.977 49.6176 131.929 61.9308 131.929 61.9308C131.929 61.9308 130.774 59.7418 131.84 59.6506C132.906 59.5594 136.461 62.2956 136.461 62.2956L134.772 58.0088C134.772 58.0088 139.304 51.8066 137.882 46.1517C137.882 46.1517 146.501 48.8879 153.521 47.7934L155.387 53.4484Z" fill="#1E1E24"/>
<path d="M133.262 39.8582L130.063 37.4868C130.063 37.4868 129.708 30.4637 124.465 27.9099C119.223 25.356 113.447 27.1802 113.447 27.1802L117.445 29.0044C117.445 29.0044 103.495 27.8187 101.807 40.0407C100.03 52.2626 112.203 56.7319 112.825 63.0253C113.447 69.4099 105.894 65.0319 105.894 65.0319C105.894 65.0319 110.426 72.967 115.757 71.0516C121.089 69.1363 122.333 66.4912 122.333 66.4912C122.333 66.4912 123.132 67.2209 122.244 69.6835C122.244 69.6835 126.953 67.3121 125.62 59.3769C124.287 51.4417 119.756 47.9758 121 43.9626C122.244 39.9494 127.486 40.2231 130.063 43.0505" fill="#1E1E24"/>
<path d="M130.152 37.3956L126.775 41.4088L129.352 42.7769L132.995 39.311L130.152 37.3956Z" fill="#FE5F55"/>
<path d="M151.922 234.042C151.922 234.042 153.343 235.957 156.365 238.42C159.386 240.882 160.274 240.426 160.274 241.247C160.363 242.159 147.39 241.156 147.39 241.156L147.745 233.768C147.745 233.768 151.922 233.859 151.922 234.042Z" fill="#011638"/>
<path d="M86.168 190.991C86.168 190.991 84.7463 192.815 83.1469 196.464C81.5475 200.112 82.2583 200.751 81.3698 201.024C80.5701 201.298 78.3487 188.164 78.3487 188.164L85.4572 186.704C85.4572 186.796 86.3457 190.991 86.168 190.991Z" fill="#011638"/>
<path d="M92.0325 113.829C92.5657 108.265 92.4768 100.877 89.0114 96.955C87.412 95.1308 85.2795 94.2187 82.5249 94.2187C82.5249 94.2187 82.5249 94.2187 82.4361 94.2187C75.4164 94.2187 71.8622 111.184 71.7733 111.913L72.3953 112.004C72.3953 111.822 75.9495 94.8571 82.4361 94.8571C84.924 94.8571 86.9677 95.7692 88.3894 97.411C91.6771 101.151 91.766 108.356 91.2328 113.829H92.0325Z" fill="black"/>
<path d="M89.8111 113.555C90.3443 107.991 90.2554 100.603 86.79 96.6813C85.1906 94.8572 83.0581 93.9451 80.3035 93.9451C80.3035 93.9451 80.3035 93.9451 80.2147 93.9451C73.195 93.9451 69.6408 110.91 69.5519 111.64L70.1739 111.731C70.1739 111.548 73.7281 94.5835 80.2147 94.5835C82.7026 94.5835 84.7463 95.4956 86.168 97.1374C89.4557 100.877 89.5446 108.082 89.0114 113.555H89.8111Z" fill="black"/>
<path d="M93.632 113.281L91.4106 153.869L61.0217 152.227L61.1106 151.863L68.5745 111.457L93.632 113.281Z" fill="#011638"/>
<path d="M91.4106 153.869L89.6334 155.602L57.5563 153.322L61.0217 151.863H61.1106L61.0217 152.228L91.4106 153.869Z" fill="#010D1C"/>
<path d="M68.5745 111.457L61.1106 151.863H61.0217L57.5563 153.322L65.2868 113.099L68.5745 111.457Z" fill="#01122B"/>
<path d="M76.7493 112.278L77.6379 112.187C77.6379 112.004 75.9496 97.0462 81.281 95.3132C83.3247 94.6747 85.1906 94.766 86.7901 95.7692C90.4332 97.9583 92.4769 103.887 93.4543 108.447L94.3428 108.265C93.2766 103.522 91.2329 97.3198 87.2343 94.9484C85.3684 93.8539 83.2358 93.6714 81.0144 94.4923C74.9722 96.4077 76.6604 111.64 76.7493 112.278Z" fill="black"/>
<path d="M74.8833 112.734L75.7718 112.643C75.7718 112.46 74.0836 97.5022 79.415 95.7693C81.4586 95.1308 83.3246 95.222 84.924 96.2253C88.5672 98.4143 90.6109 104.343 91.5883 108.903L92.4768 108.721C91.4106 103.978 89.3669 97.7759 85.3683 95.4044C83.5023 94.3099 81.3698 94.1275 79.1484 94.9484C73.1061 96.7726 74.7944 112.096 74.8833 112.734Z" fill="black"/>
<path d="M95.4091 107.353L104.472 141.647L78.793 148.853V148.579L74.0836 112.917L95.4091 107.353Z" fill="#FE5F55"/>
<path d="M104.472 141.647L103.495 143.563L76.2161 150.859L78.7041 148.579H78.793V148.853L104.472 141.647Z" fill="#E23737"/>
<path d="M74.0836 112.917L78.793 148.579H78.7041L76.2161 150.859L71.7733 115.197L74.0836 112.917Z" fill="#F94541"/>
<path d="M83.0581 99.1439C83.4135 99.3263 83.9466 99.6 84.5686 99.7824C84.4798 98.8703 84.3909 97.411 83.8578 96.3165C83.5024 95.4956 82.7026 94.6747 81.9918 94.0362C80.6589 93.3978 79.3261 93.0329 79.0595 93.489C78.6152 94.5835 80.5701 97.9582 83.0581 99.1439Z" fill="#E6D5B9"/>
<path d="M83.0581 99.1439C83.4135 99.3264 83.9466 99.6 84.5686 99.7824C84.4797 98.8703 86.168 98.1407 85.6349 96.9549C85.2795 96.1341 83.7689 94.9483 82.0806 94.0363C80.6589 93.2154 79.3261 92.9417 79.0595 93.3978C78.6152 94.5835 80.5701 97.9582 83.0581 99.1439Z" fill="#F5B251"/>
<path d="M146.946 62.022C147.035 62.2957 147.301 63.2077 147.834 63.8462C148.367 64.1198 148.989 64.211 149.611 64.0286C149.7 64.0286 149.878 63.9374 149.967 63.8462C150.411 63.0253 150.233 61.3836 150.145 61.0187L146.946 62.022Z" fill="#FE5F55"/>
<path d="M146.946 62.022L145.968 62.2957C146.413 62.8429 147.035 63.4814 147.834 63.8462C147.301 63.2077 147.035 62.2957 146.946 62.022Z" fill="#1E1E24"/>
<path d="M150.145 61.0187C150.233 61.3835 150.411 63.0253 149.967 63.8462C151.211 63.2077 151.389 61.7484 151.389 60.6539L150.145 61.0187Z" fill="#1E1E24"/>
<path d="M151.3 59.377L145.257 61.2011C145.257 61.2011 145.524 61.6572 145.968 62.2956L146.946 62.022L150.145 61.0187L151.389 60.6539C151.389 59.9242 151.3 59.377 151.3 59.377Z" fill="white"/>
<path d="M149.078 54.9077C149.167 54.9077 149.167 54.8165 149.167 54.8165C149.345 53.9044 149.7 53.3572 150.145 53.0835C150.944 52.7187 152.011 53.3572 152.011 53.3572C152.099 53.4484 152.188 53.3572 152.277 53.2659C152.366 53.1747 152.277 53.0835 152.188 52.9923C152.099 52.9923 151.033 52.2626 150.056 52.6275C149.434 52.9011 149.078 53.5396 148.812 54.5429C148.812 54.8165 148.901 54.9077 149.078 54.9077C148.989 54.9077 148.989 54.9077 149.078 54.9077Z" fill="#1E1E24"/>
<path d="M139.304 58.8297C139.393 58.8297 139.393 58.7385 139.393 58.7385C139.571 57.8264 139.926 57.2791 140.37 57.0967C141.17 56.7319 142.236 57.3703 142.236 57.3703C142.325 57.4615 142.414 57.3703 142.503 57.2791C142.592 57.1879 142.503 57.0967 142.414 57.0055C142.325 57.0055 141.348 56.2758 140.459 56.6407C140.37 56.6407 140.37 56.6407 140.282 56.7319C139.66 57.0055 139.304 57.644 139.126 58.6473C139.126 58.6473 139.126 58.7385 139.304 58.8297Z" fill="#1E1E24"/>
<defs>
<linearGradient id="paint0_linear_28_44" x1="218.732" y1="39.1726" x2="117.77" y2="137.531" gradientUnits="userSpaceOnUse">
<stop stop-color="#FF0101"/>
<stop offset="1" stop-color="#F7941D"/>
</linearGradient>
<linearGradient id="paint1_linear_28_44" x1="122.155" y1="8.48239" x2="122.155" y2="108.812" gradientUnits="userSpaceOnUse">
<stop stop-color="#FF0101"/>
<stop offset="1" stop-color="#F7941D"/>
</linearGradient>
<linearGradient id="paint2_linear_28_44" x1="215.099" y1="3.00989" x2="215.099" y2="103.34" gradientUnits="userSpaceOnUse">
<stop stop-color="#FF0101"/>
<stop offset="1" stop-color="#F7941D"/>
</linearGradient>
<linearGradient id="paint3_linear_28_44" x1="237.668" y1="57.1879" x2="237.668" y2="157.518" gradientUnits="userSpaceOnUse">
<stop stop-color="#FF0101"/>
<stop offset="1" stop-color="#F7941D"/>
</linearGradient>
<linearGradient id="paint4_linear_28_44" x1="226.87" y1="154.515" x2="226.87" y2="242.085" gradientUnits="userSpaceOnUse">
<stop stop-color="#FF0101"/>
<stop offset="1" stop-color="#F7941D"/>
</linearGradient>
<linearGradient id="paint5_linear_28_44" x1="226.799" y1="170.925" x2="226.799" y2="237.325" gradientUnits="userSpaceOnUse">
<stop stop-color="#FF0101"/>
<stop offset="1" stop-color="#F7941D"/>
</linearGradient>
<linearGradient id="paint6_linear_28_44" x1="222.518" y1="190.44" x2="222.518" y2="205.767" gradientUnits="userSpaceOnUse">
<stop stop-color="#FF0101"/>
<stop offset="1" stop-color="#F7941D"/>
</linearGradient>
<linearGradient id="paint7_linear_28_44" x1="233.581" y1="189.862" x2="233.581" y2="196.281" gradientUnits="userSpaceOnUse">
<stop stop-color="#FF0101"/>
<stop offset="1" stop-color="#F7941D"/>
</linearGradient>
<linearGradient id="paint8_linear_28_44" x1="229.76" y1="214.215" x2="229.76" y2="219.357" gradientUnits="userSpaceOnUse">
<stop stop-color="#FF0101"/>
<stop offset="1" stop-color="#F7941D"/>
</linearGradient>
<linearGradient id="paint9_linear_28_44" x1="203.346" y1="172.325" x2="203.346" y2="245.844" gradientUnits="userSpaceOnUse">
<stop stop-color="#FF0101"/>
<stop offset="1" stop-color="#F7941D"/>
</linearGradient>
<linearGradient id="paint10_linear_28_44" x1="206.746" y1="196.794" x2="206.746" y2="238.693" gradientUnits="userSpaceOnUse">
<stop stop-color="#FF0101"/>
<stop offset="1" stop-color="#F7941D"/>
</linearGradient>
<linearGradient id="paint11_linear_28_44" x1="206.246" y1="199.382" x2="206.246" y2="214.067" gradientUnits="userSpaceOnUse">
<stop stop-color="#FF0101"/>
<stop offset="1" stop-color="#F7941D"/>
</linearGradient>
<linearGradient id="paint12_linear_28_44" x1="201.903" y1="211.327" x2="201.903" y2="219.175" gradientUnits="userSpaceOnUse">
<stop stop-color="#FF0101"/>
<stop offset="1" stop-color="#F7941D"/>
</linearGradient>
<linearGradient id="paint13_linear_28_44" x1="214.654" y1="225.444" x2="214.654" y2="234.498" gradientUnits="userSpaceOnUse">
<stop stop-color="#FF0101"/>
<stop offset="1" stop-color="#F7941D"/>
</linearGradient>
<linearGradient id="paint14_linear_28_44" x1="248.02" y1="202.692" x2="248.02" y2="248.498" gradientUnits="userSpaceOnUse">
<stop stop-color="#FF0101"/>
<stop offset="1" stop-color="#F7941D"/>
</linearGradient>
<linearGradient id="paint15_linear_28_44" x1="243.222" y1="217.164" x2="243.222" y2="243.71" gradientUnits="userSpaceOnUse">
<stop stop-color="#FF0101"/>
<stop offset="1" stop-color="#F7941D"/>
</linearGradient>
<linearGradient id="paint16_linear_28_44" x1="245.254" y1="217.715" x2="245.254" y2="228.296" gradientUnits="userSpaceOnUse">
<stop stop-color="#FF0101"/>
<stop offset="1" stop-color="#F7941D"/>
</linearGradient>
<linearGradient id="paint17_linear_28_44" x1="246.865" y1="227.44" x2="246.865" y2="231.579" gradientUnits="userSpaceOnUse">
<stop stop-color="#FF0101"/>
<stop offset="1" stop-color="#F7941D"/>
</linearGradient>
<linearGradient id="paint18_linear_28_44" x1="236.193" y1="234.115" x2="236.193" y2="240.974" gradientUnits="userSpaceOnUse">
<stop stop-color="#FF0101"/>
<stop offset="1" stop-color="#F7941D"/>
</linearGradient>
<linearGradient id="paint19_linear_28_44" x1="153.61" y1="66.8561" x2="153.61" y2="129.834" gradientUnits="userSpaceOnUse">
<stop stop-color="#FF0101"/>
<stop offset="1" stop-color="#F7941D"/>
</linearGradient>
</defs>
</svg>
