<svg width="303" height="249" viewBox="0 0 303 249" fill="none" xmlns="http://www.w3.org/2000/svg">
<g clip-path="url(#clip0_28_43)">
<path d="M121.34 140.17C94.1698 112.28 94.1698 67.0622 121.34 39.1726C148.51 11.283 192.562 11.283 219.732 39.1726C246.903 67.0622 246.903 112.28 219.732 140.17C192.562 168.059 148.51 168.059 121.34 140.17Z" fill="url(#paint0_linear_28_43)" fill-opacity="0.1"/>
<path d="M123.155 108.812C96.1642 108.812 74.2839 86.3525 74.2839 58.6472C74.2839 30.942 96.1642 8.48239 123.155 8.48239C150.146 8.48239 172.026 30.942 172.026 58.6472C172.026 86.3525 150.146 108.812 123.155 108.812Z" fill="url(#paint1_linear_28_43)" fill-opacity="0.1"/>
<path d="M216.099 103.34C189.108 103.34 167.228 80.88 167.228 53.1747C167.228 25.4694 189.108 3.00989 216.099 3.00989C243.089 3.00989 264.97 25.4694 264.97 53.1747C264.97 80.88 243.089 103.34 216.099 103.34Z" fill="url(#paint2_linear_28_43)" fill-opacity="0.1"/>
<path d="M238.668 157.518C211.677 157.518 189.797 135.058 189.797 107.353C189.797 79.6474 211.677 57.1879 238.668 57.1879C265.659 57.1879 287.539 79.6474 287.539 107.353C287.539 135.058 265.659 157.518 238.668 157.518Z" fill="url(#paint3_linear_28_43)" fill-opacity="0.1"/>
<path d="M232.804 240.153C238.668 233.768 242.844 226.107 241.156 216.986C240.445 213.246 239.734 210.054 242.222 206.862C243.377 205.311 244.799 203.943 245.599 202.21C248.087 197.193 246.221 191.812 244.088 187.069C242.489 183.512 240.889 179.955 240.267 176.124C239.645 172.02 240.712 168.007 240.445 163.902C240.179 159.889 238.224 155.511 234.403 154.69C231.915 154.052 229.249 155.237 227.294 156.97C225.073 158.886 223.385 161.622 222.763 164.632C221.874 168.645 222.674 173.114 220.897 176.854C219.297 180.137 216.01 182.144 213.788 184.971C211.389 187.981 210.323 192.086 210.856 195.916C211.3 199.109 212.811 202.119 213.077 205.311C213.788 212.516 208.457 219.266 208.99 226.563C209.257 230.758 211.656 234.68 214.855 237.325C218.498 240.335 223.829 242.615 228.627 241.977C231.204 241.612 233.514 240.335 235.025 238.146" fill="url(#paint4_linear_28_43)" fill-opacity="0.6"/>
<path d="M224.096 237.325C224.362 237.325 224.54 237.143 224.629 236.869L228.183 205.311L232.004 171.473C232.004 171.199 231.826 170.925 231.56 170.925C231.293 170.925 231.026 171.108 231.026 171.381L227.206 205.22L223.651 236.778C223.474 237.052 223.74 237.234 224.096 237.325C224.007 237.325 224.007 237.325 224.096 237.325Z" fill="url(#paint5_linear_28_43)"/>
<path d="M227.65 205.767C227.739 205.767 227.828 205.767 227.916 205.676C228.183 205.493 228.272 205.22 228.094 204.946L219.83 190.718C219.653 190.444 219.386 190.353 219.12 190.535C218.853 190.718 218.764 190.991 218.942 191.265L227.206 205.493C227.294 205.676 227.472 205.767 227.65 205.767Z" fill="url(#paint6_linear_28_43)"/>
<path d="M229.072 196.281C229.16 196.281 229.249 196.281 229.338 196.19L240.267 190.9C240.534 190.809 240.623 190.444 240.534 190.17C240.445 189.897 240.09 189.805 239.823 189.897L228.894 195.187C228.627 195.278 228.538 195.643 228.627 195.916C228.716 196.19 228.894 196.281 229.072 196.281Z" fill="url(#paint7_linear_28_43)"/>
<path d="M226.139 219.357C226.228 219.357 226.317 219.357 226.317 219.357L235.558 215.253C235.825 215.162 235.913 214.797 235.825 214.523C235.736 214.249 235.38 214.158 235.114 214.249L225.962 218.354C225.695 218.445 225.606 218.81 225.695 219.083C225.784 219.266 225.962 219.357 226.139 219.357Z" fill="url(#paint8_linear_28_43)"/>
<path d="M224.895 236.596C225.34 234.863 225.428 233.312 225.162 232.035C224.096 227.748 220.364 224.647 217.698 221.364C214.588 217.442 212.455 212.516 212.722 207.5C212.9 203.396 212.278 199.93 209.612 196.646C207.035 193.454 203.747 190.991 200.993 187.89C198.15 184.698 195.573 181.232 193.44 177.492C191.574 174.3 188.109 169.557 184.91 174.391C183.666 176.307 183.133 178.769 183.488 181.049C184.466 187.069 189.53 191.356 191.485 196.92C192.463 199.747 192.463 202.757 192.552 205.767C192.64 208.412 192.996 211.422 194.684 213.611C195.662 214.888 196.994 215.8 197.883 217.168C199.127 218.992 199.394 221.272 199.749 223.462C200.104 225.833 200.815 227.931 201.704 230.12C203.748 235.592 206.946 242.068 212.278 244.804C213.877 245.625 215.654 246.081 217.343 245.716C221.341 244.896 223.918 240.153 224.895 236.596Z" fill="url(#paint9_linear_28_43)" fill-opacity="0.6"/>
<path d="M215.565 238.693C215.654 238.693 215.654 238.693 215.743 238.693C216.01 238.602 216.099 238.237 216.01 237.964L200.46 197.102C200.371 196.829 200.016 196.737 199.749 196.829C199.482 196.92 199.394 197.285 199.482 197.558L215.032 238.42C215.21 238.602 215.388 238.693 215.565 238.693Z" fill="url(#paint10_linear_28_43)"/>
<path d="M206.413 214.067C206.68 214.067 206.857 213.885 206.946 213.611L208.546 199.93C208.546 199.656 208.368 199.382 208.101 199.382C207.835 199.382 207.568 199.565 207.568 199.838L205.969 213.52C205.88 213.702 206.058 213.976 206.413 214.067Z" fill="url(#paint11_linear_28_43)"/>
<path d="M207.835 219.175C208.013 219.175 208.19 219.084 208.279 218.901C208.457 218.627 208.368 218.354 208.101 218.171L198.238 211.422C197.972 211.24 197.705 211.331 197.528 211.604C197.35 211.878 197.439 212.152 197.705 212.334L207.568 219.084C207.568 219.175 207.657 219.175 207.835 219.175Z" fill="url(#paint12_linear_28_43)"/>
<path d="M214.41 234.498C214.588 234.498 214.855 234.315 214.943 234.133L217.343 226.107C217.431 225.833 217.254 225.559 216.987 225.468C216.721 225.377 216.454 225.559 216.365 225.833L213.966 233.859C213.877 234.133 214.055 234.407 214.321 234.498C214.233 234.498 214.321 234.498 214.41 234.498Z" fill="url(#paint13_linear_28_43)"/>
<path d="M230.76 240.882C230.671 239.697 230.849 238.511 231.293 237.69C232.626 234.954 235.647 233.403 237.868 231.579C240.534 229.39 242.667 226.38 243.2 222.914C243.644 220.087 244.621 217.807 246.843 215.982C249.064 214.158 251.641 212.972 253.951 211.331C256.35 209.598 258.572 207.591 260.616 205.402C262.304 203.487 265.414 200.842 266.835 204.581C267.457 206.041 267.457 207.774 266.835 209.324C265.325 213.246 261.238 215.344 259.105 218.901C258.039 220.725 257.594 222.732 257.061 224.738C256.617 226.563 255.995 228.569 254.484 229.755C253.596 230.485 252.618 230.941 251.819 231.67C250.664 232.765 250.219 234.224 249.686 235.683C249.064 237.234 248.265 238.511 247.376 239.879C245.155 243.345 242.133 247.176 238.046 248.27C236.891 248.544 235.558 248.635 234.492 248.179C231.915 246.993 230.849 243.436 230.76 240.882Z" fill="url(#paint14_linear_28_43)" fill-opacity="0.6"/>
<path d="M236.002 243.71C236.18 243.71 236.358 243.619 236.447 243.436L252.885 217.989C253.063 217.715 252.974 217.442 252.707 217.259C252.441 217.077 252.174 217.168 251.996 217.442L235.558 242.889C235.38 243.163 235.469 243.436 235.736 243.619C235.825 243.71 235.913 243.71 236.002 243.71Z" fill="url(#paint15_linear_28_43)"/>
<path d="M245.777 228.296C246.043 228.296 246.31 228.113 246.31 227.84L247.198 218.263C247.198 217.989 247.021 217.715 246.754 217.715C246.487 217.715 246.221 217.898 246.221 218.171L245.332 227.748C245.243 228.022 245.421 228.296 245.777 228.296Z" fill="url(#paint16_linear_28_43)"/>
<path d="M244.088 231.579C244.177 231.579 244.177 231.579 244.266 231.579L251.908 228.478C252.174 228.387 252.263 228.022 252.174 227.748C252.085 227.475 251.73 227.383 251.463 227.475L243.822 230.576C243.555 230.667 243.466 231.032 243.555 231.305C243.733 231.488 243.911 231.579 244.088 231.579Z" fill="url(#paint17_linear_28_43)"/>
<path d="M237.424 240.974C237.779 240.974 237.957 240.7 237.957 240.426L237.424 234.589C237.424 234.315 237.157 234.042 236.891 234.133C236.624 234.133 236.358 234.407 236.447 234.68L236.98 240.518C236.98 240.791 237.157 240.974 237.424 240.974Z" fill="url(#paint18_linear_28_43)"/>
<path d="M257.632 118.722C262.4 118.722 266.265 114.754 266.265 109.861C266.265 104.967 262.4 101 257.632 101C252.865 101 249 104.967 249 109.861C249 114.754 252.865 118.722 257.632 118.722Z" fill="#FE5F55"/>
<path d="M257.069 112.75C256.006 112.622 255.193 112.044 255.193 111.017H256.256C256.319 111.466 256.506 111.787 257.007 111.915V109.925C256.131 109.668 255.13 109.476 255.13 108.191C255.13 107.164 255.881 106.458 257.007 106.393V105.623H257.57V106.329C258.571 106.393 259.259 106.971 259.321 107.999H258.383C258.32 107.613 258.133 107.292 257.695 107.164V109.09C258.571 109.283 259.509 109.54 259.509 110.824C259.509 111.723 258.883 112.558 257.695 112.686V113.456H257.132V112.75H257.069ZM257.069 109.026V107.164C256.569 107.228 256.256 107.549 256.256 108.063C256.256 108.641 256.631 108.833 257.069 109.026ZM257.632 110.053V111.915C258.133 111.851 258.445 111.466 258.445 110.952C258.508 110.439 258.133 110.182 257.632 110.053Z" fill="white"/>
<path d="M48.7028 79.9193C54.0615 79.9193 58.4056 75.4602 58.4056 69.9597C58.4056 64.4591 54.0615 60 48.7028 60C43.3441 60 39 64.4591 39 69.9597C39 75.4602 43.3441 79.9193 48.7028 79.9193Z" fill="#FE5F55"/>
<path d="M48.07 73.1352C46.8747 72.9909 45.9607 72.3414 45.9607 71.1866H47.156C47.2263 71.6918 47.4372 72.0527 47.9997 72.197V69.9597C47.0154 69.671 45.8904 69.4545 45.8904 68.0111C45.8904 66.8563 46.7341 66.0624 47.9997 65.9903V65.1242H48.6325V65.9903C49.7574 66.0624 50.5309 66.712 50.6012 67.8667H49.4059C49.3356 67.4337 49.1247 67.0728 48.6325 66.9285V69.0936C49.6168 69.3102 50.6715 69.5988 50.6715 71.0423C50.6715 72.0527 49.9684 72.9909 48.6325 73.1352V74.0013H47.9997V73.1352H48.07ZM48.07 68.9493V66.9285C47.5075 67.0007 47.156 67.3615 47.156 67.9389C47.156 68.5163 47.5778 68.805 48.07 68.9493ZM48.7731 70.1762V72.2692C49.3356 72.197 49.6871 71.764 49.6871 71.1866C49.6871 70.6092 49.2653 70.3206 48.7731 70.1762Z" fill="white"/>
<path d="M23.8705 139.176C22.7904 132.313 27.3344 125.851 34.0199 124.743C40.7054 123.634 47.0008 128.298 48.0809 135.161C49.1611 142.023 44.6171 148.485 37.9316 149.594C31.246 150.703 24.9507 146.038 23.8705 139.176Z" fill="#FE5F55"/>
<path d="M36.1645 142.833L41.4071 137.999C42.9176 136.631 43.0065 134.259 41.6736 132.8C40.3408 131.249 38.0305 131.158 36.6088 132.526L35.9868 133.074L35.1871 132.435C33.6765 131.158 31.3662 131.341 30.1222 132.982C28.8783 134.533 29.056 136.904 30.6554 138.181L36.1645 142.833Z" fill="white"/>
<path d="M187.931 25.1736C181.159 25.1736 175.669 19.5383 175.669 12.5868C175.669 5.63531 181.159 0 187.931 0C194.703 0 200.193 5.63531 200.193 12.5868C200.193 19.5383 194.703 25.1736 187.931 25.1736Z" fill="#FE5F55"/>
<path d="M188.198 18.2418L193.44 13.4077C194.951 12.0396 195.04 9.66814 193.707 8.2088C192.374 6.65825 190.064 6.56704 188.642 7.93517L188.02 8.48243L187.22 7.84396C185.71 6.56704 183.399 6.74946 182.155 8.39122C180.911 9.94177 181.089 12.3132 182.689 13.5901L188.198 18.2418Z" fill="white"/>
<path d="M262.748 63.6638C263.992 63.6638 265.058 62.5692 265.058 61.2923C265.058 60.0154 263.992 58.9209 262.748 58.9209C261.504 58.9209 260.438 60.0154 260.438 61.2923C260.438 62.5692 261.504 63.6638 262.748 63.6638ZM262.748 59.7418C263.548 59.7418 264.259 60.4714 264.259 61.2923C264.259 62.1132 263.548 62.8429 262.748 62.8429C261.948 62.8429 261.238 62.1132 261.238 61.2923C261.238 60.4714 261.86 59.7418 262.748 59.7418Z" fill="#83DDDD"/>
<path d="M216.454 122.858C217.698 122.858 218.764 121.764 218.764 120.487C218.764 119.21 217.698 118.115 216.454 118.115C215.21 118.115 214.144 119.21 214.144 120.487C214.144 121.764 215.21 122.858 216.454 122.858ZM216.454 118.936C217.254 118.936 217.965 119.666 217.965 120.487C217.965 121.308 217.254 122.037 216.454 122.037C215.654 122.037 214.943 121.308 214.943 120.487C214.943 119.575 215.654 118.936 216.454 118.936Z" fill="#83DDDD"/>
<path d="M181.089 43.7802C182.333 43.7802 183.399 42.6857 183.399 41.4088C183.399 40.1319 182.333 39.0374 181.089 39.0374C179.845 39.0374 178.779 40.1319 178.779 41.4088C178.779 42.6857 179.845 43.7802 181.089 43.7802ZM181.089 39.8582C181.889 39.8582 182.6 40.5879 182.6 41.4088C182.6 42.2297 181.889 42.9593 181.089 42.9593C180.289 42.9593 179.579 42.2297 179.579 41.4088C179.579 40.4967 180.289 39.8582 181.089 39.8582Z" fill="#83DDDD"/>
<path d="M124.043 5.83737C125.287 5.83737 126.354 4.74286 126.354 3.46594C126.354 2.18902 125.287 1.09451 124.043 1.09451C122.799 1.09451 121.733 2.18902 121.733 3.46594C121.733 4.74286 122.711 5.83737 124.043 5.83737ZM124.043 1.91539C124.843 1.91539 125.554 2.64506 125.554 3.46594C125.554 4.28682 124.843 5.01649 124.043 5.01649C123.244 5.01649 122.533 4.28682 122.533 3.46594C122.533 2.64506 123.155 1.91539 124.043 1.91539Z" fill="#83DDDD"/>
<path d="M60.4223 40.1319C61.6663 40.1319 62.7326 39.0374 62.7326 37.7605C62.7326 36.4835 61.6663 35.389 60.4223 35.389C59.1783 35.389 58.112 36.4835 58.112 37.7605C58.112 39.0374 59.0894 40.1319 60.4223 40.1319ZM60.4223 36.2099C61.222 36.2099 61.9329 36.9396 61.9329 37.7605C61.9329 38.5814 61.222 39.311 60.4223 39.311C59.6226 39.311 58.9117 38.5814 58.9117 37.7605C58.8229 36.9396 59.5337 36.2099 60.4223 36.2099Z" fill="#83DDDD"/>
<path d="M223.562 11.9484C224.806 11.9484 225.873 10.8539 225.873 9.57693C225.873 8.30001 224.806 7.20551 223.562 7.20551C222.318 7.20551 221.252 8.30001 221.252 9.57693C221.252 10.8539 222.23 11.9484 223.562 11.9484ZM223.562 8.02638C224.362 8.02638 225.073 8.75605 225.073 9.57693C225.073 10.3978 224.362 11.1275 223.562 11.1275C222.763 11.1275 222.052 10.3978 222.052 9.57693C222.052 8.75605 222.674 8.02638 223.562 8.02638Z" fill="#83DDDD"/>
<path d="M3.55426 124.318C4.79825 124.318 5.86453 123.223 5.86453 121.946C5.86453 120.669 4.79825 119.575 3.55426 119.575C2.31027 119.575 1.24399 120.669 1.24399 121.946C1.24399 123.223 2.22141 124.318 3.55426 124.318ZM3.55426 120.396C4.35397 120.396 5.06483 121.125 5.06483 121.946C5.06483 122.767 4.35397 123.497 3.55426 123.497C2.75455 123.497 2.04369 122.767 2.04369 121.946C1.95483 121.125 2.6657 120.396 3.55426 120.396Z" fill="#83DDDD"/>
<path d="M79.4375 127.601C80.6815 127.601 81.7478 126.507 81.7478 125.23C81.7478 123.953 80.6815 122.858 79.4375 122.858C78.1935 122.858 77.1273 123.953 77.1273 125.23C77.1273 126.507 78.1935 127.601 79.4375 127.601ZM79.4375 123.679C80.2372 123.679 80.9481 124.409 80.9481 125.23C80.9481 126.051 80.2372 126.78 79.4375 126.78C78.6378 126.78 77.927 126.051 77.927 125.23C77.927 124.409 78.6378 123.679 79.4375 123.679Z" fill="#83DDDD"/>
<path d="M300.69 139.458C301.934 139.458 303 138.364 303 137.087C303 135.81 301.934 134.715 300.69 134.715C299.446 134.715 298.379 135.81 298.379 137.087C298.379 138.364 299.446 139.458 300.69 139.458ZM300.69 135.536C301.489 135.536 302.2 136.266 302.2 137.087C302.2 137.908 301.489 138.637 300.69 138.637C299.89 138.637 299.179 137.908 299.179 137.087C299.179 136.266 299.89 135.536 300.69 135.536Z" fill="#83DDDD"/>
<path d="M210.323 40.9527C210.412 41.3175 210.589 41.6824 210.767 42.1384C212.189 44.6923 216.187 41.7736 217.609 40.6791C219.831 38.9461 221.074 35.2066 220.452 34.2945C219.831 33.3824 215.032 37.6692 214.766 37.578C214.41 37.4868 216.543 35.2066 215.832 34.3857C215.121 33.656 211.922 36.3011 211.123 37.8516C210.323 39.0373 210.056 39.9494 210.323 40.9527Z" fill="#F5B251"/>
<path d="M202.592 55.2725L203.214 55.1813C202.681 49.8 202.77 42.5945 206.058 38.7637C207.479 37.122 209.523 36.2099 212.011 36.2099C218.587 36.2099 222.141 53.1747 222.141 53.3571L222.763 53.2659C222.585 52.5362 219.12 35.5714 212.1 35.5714C212.1 35.5714 212.1 35.5714 212.011 35.5714C209.345 35.5714 207.124 36.5747 205.525 38.3077C202.148 42.3209 202.059 49.7088 202.592 55.2725Z" fill="black"/>
<path d="M204.814 54.9989L205.436 54.9077C204.903 49.5264 204.991 42.3209 208.279 38.4901C209.701 36.8483 211.745 35.9363 214.233 35.9363C220.719 35.9363 224.273 52.9011 224.273 53.0835L224.895 52.9923C224.718 52.2626 221.252 35.2978 214.233 35.2978C214.233 35.2978 214.233 35.2978 214.144 35.2978C211.478 35.2978 209.257 36.3011 207.657 38.0341C204.369 42.0472 204.281 49.4352 204.814 54.9989Z" fill="black"/>
<path d="M200.993 54.7252L203.214 95.3131L233.603 93.5802L233.514 93.3066L226.05 52.9011L200.993 54.7252Z" fill="black"/>
<path d="M203.214 95.3132L204.991 96.9549L237.069 94.7659L233.514 93.3066L233.603 93.5802L203.214 95.3132Z" fill="black"/>
<path d="M226.05 52.9011L233.514 93.3066L237.069 94.7659L229.338 54.4516L226.05 52.9011Z" fill="black"/>
<path d="M217.876 53.722C217.965 53.0835 219.653 37.7604 213.611 35.7538C211.3 35.0241 209.257 35.2066 207.391 36.2099C203.392 38.4901 201.348 44.6923 200.282 49.5263L201.171 49.7088C202.148 45.1483 204.192 39.2198 207.835 37.0307C209.434 36.1187 211.3 35.9362 213.344 36.5747C218.675 38.3077 216.987 53.3571 216.987 53.4483L217.876 53.722Z" fill="black"/>
<path d="M219.742 54.178C219.831 53.5395 221.519 38.2165 215.477 36.2099C213.166 35.4802 211.123 35.6626 209.257 36.6659C205.258 38.9461 203.214 45.1483 202.148 49.9824L203.037 50.1648C204.014 45.6044 206.058 39.6758 209.701 37.4868C211.3 36.5747 213.166 36.3923 215.21 37.0308C220.541 38.7637 218.853 53.8132 218.853 53.9044L219.742 54.178Z" fill="black"/>
<path d="M199.216 48.7054L190.064 83.0912L215.832 90.2967V90.023L220.541 54.2692L199.216 48.7054Z" fill="#FE5F55"/>
<path d="M190.064 83.0912L191.13 85.0066L218.409 92.2121L215.832 90.0231V90.2967L190.064 83.0912Z" fill="#E23737"/>
<path d="M220.541 54.2692L215.832 90.023L218.409 92.212L222.763 56.5494L220.541 54.2692Z" fill="#F94541"/>
<path d="M191.841 68.8626C191.308 67.5857 191.574 66.1264 192.374 65.0318C196.017 59.3769 209.523 39.1285 212.367 39.6758C215.654 40.3143 197.528 70.4132 195.75 70.5044C194.329 70.5044 192.64 70.8692 191.841 68.8626Z" fill="#F5B251"/>
<path d="M210.323 40.9527C211.211 40.3142 213.877 38.2164 214.677 37.578C214.321 37.4868 216.454 35.2065 215.743 34.3857C215.032 33.656 211.833 36.3011 211.034 37.8516C210.323 39.0373 210.056 39.9494 210.323 40.9527Z" fill="#F5B251"/>
<path d="M160.386 74.3352C160.652 72.6934 161.985 71.4165 163.584 70.9604C170.693 68.9539 194.684 62.5692 196.55 67.8593C198.683 74.0615 177.091 78.4396 170.693 78.8956C165.273 79.2604 159.675 78.3484 160.386 74.3352Z" fill="#F5B251"/>
<path d="M165.095 128.24C161.008 127.145 156.565 130.155 155.41 134.807C154.521 138.546 153.81 143.563 153.988 150.038C154.343 166.182 150.789 185.336 155.943 188.346C161.096 191.447 166.161 181.414 168.56 165.635C170.693 151.407 175.402 133.803 172.026 130.793C170.338 129.243 168.738 129.243 165.095 128.24Z" fill="#E6D5B9"/>
<path d="M152.833 126.324C149.19 124.135 144.125 125.777 141.815 129.881C139.949 133.165 137.905 137.816 136.306 144.11C132.307 159.707 123.688 177.036 127.864 181.505C132.04 185.975 139.593 177.766 146.169 163.264C152.122 150.221 161.274 134.624 158.875 130.793C157.631 128.787 156.032 128.24 152.833 126.324Z" fill="#E6D5B9"/>
<path d="M159.142 184.333C151.411 177.401 148.035 219.813 149.101 231.488C150.256 243.163 153.544 233.951 156.92 215.891C160.297 197.741 162.163 186.978 159.142 184.333Z" fill="#E6D5B9"/>
<path d="M149.012 219.448L148.657 234.954H152.833L156.209 218.08" fill="#E6D5B9"/>
<path d="M133.64 179.864C137.283 170.013 97.3865 181.505 87.1681 186.613C76.9496 191.721 86.4572 191.812 104.14 188.711C121.822 185.61 132.218 183.694 133.64 179.864Z" fill="#E6D5B9"/>
<path d="M88.9452 185.792L84.1469 187.708L85.3909 191.174L90.5446 190.535L88.9452 185.792Z" fill="#E6D5B9"/>
<path d="M141.992 85.189C140.482 84.4593 138.705 84.8242 137.461 85.9187C131.774 90.7527 112.936 107.262 116.135 111.822C119.867 117.203 135.684 101.515 139.771 96.4077C143.059 92.1209 145.635 86.922 141.992 85.189Z" fill="#F5B251"/>
<path d="M84.0581 99.1439C84.5024 99.3263 85.1244 99.6 85.8352 99.8736C87.79 100.603 90.4557 101.151 91.0777 99.1439C91.6109 97.411 91.1666 96.3165 90.0114 95.0395C88.8563 93.6714 85.2132 91.756 84.6801 92.6681C84.1469 93.5802 86.7238 95.4044 86.3683 95.5868C86.2795 95.5868 86.1018 95.4956 85.6575 95.3132C84.1469 94.5835 80.415 92.6681 80.0595 93.5802C79.6153 94.5835 81.5701 97.9582 84.0581 99.1439Z" fill="#F5B251"/>
<path d="M119.334 111.822C118.268 112.643 116.846 112.643 115.513 112.187C109.382 109.815 87.0792 100.968 86.9015 97.9582C86.7238 94.4923 119.512 105.802 119.956 107.535C120.311 108.903 121.111 110.545 119.334 111.822Z" fill="#F5B251"/>
<path d="M172.914 128.24C172.914 128.24 176.646 133.986 168.916 168.371C161.185 202.848 153.899 231.762 153.899 231.762H147.324C147.324 231.762 147.235 212.334 148.568 202.392C149.901 192.451 151.411 190.444 151.678 187.252C151.944 184.059 151.767 155.693 151.767 155.693C151.767 155.693 141.104 178.952 133.107 183.512C125.11 188.073 89.1229 191.994 89.1229 191.994L88.1455 184.424C88.1455 184.424 99.7856 179.499 106.539 177.948C113.292 176.307 123.51 175.121 124.665 174.3C125.821 173.479 127.509 142.286 144.392 125.138" fill="#90241E"/>
<path d="M129.197 92.4857L136.839 100.695L144.036 93.489C144.036 93.489 149.19 106.258 148.834 113.646C148.568 121.034 143.681 124.318 143.681 124.318C156.387 133.53 173.803 128.422 173.803 128.422C173.803 128.422 173.181 112.46 172.648 105.346C172.115 98.2319 176.646 96.6813 176.557 92.3033C176.38 87.9253 170.426 80.355 170.426 80.355L180.023 78.2572L177.002 66.8561C177.002 66.8561 166.161 68.4978 158.164 70.5956C158.608 71.4165 161.185 76.1594 157.453 78.3484C153.455 80.7198 147.946 75.2473 147.59 74.7912C142.081 78.0748 136.128 83.0912 129.197 92.4857Z" fill="url(#paint19_linear_28_43)"/>
<path d="M150.345 73.5143C150.967 73.2407 151.678 72.8758 152.3 72.6022C151.678 72.8758 151.056 73.1495 150.345 73.5143C149.723 73.7879 149.012 74.1527 148.39 74.5176C148.301 73.8791 147.768 69.6835 146.613 66.0352L153.81 62.478C155.054 66.9473 157.365 70.5044 157.542 70.8692C157.098 70.9604 156.654 71.1429 156.209 71.2341C156.654 71.1429 157.098 70.9604 157.542 70.8692C157.72 70.778 157.987 70.778 158.164 70.6868C158.609 71.5077 161.185 76.2506 157.453 78.4396C153.455 80.811 147.946 75.3385 147.59 74.8824C147.857 74.7 148.123 74.6088 148.301 74.5176C149.012 74.1527 149.723 73.7879 150.345 73.5143Z" fill="#F5B251"/>
<path d="M155.054 47.7022C155.054 47.9758 160.741 64.9406 153.366 68.0417C145.991 71.0516 141.37 67.4945 139.149 64.7582C139.149 64.7582 134.617 64.9406 132.84 61.9307C131.063 58.9209 134.084 59.4681 134.884 58.9209C135.684 58.3736 133.64 44.7835 133.64 44.7835L148.301 41.8648L155.054 47.7022Z" fill="#F5B251"/>
<path d="M156.387 53.4484C156.209 53.266 157.987 48.7967 156.743 44.966C154.699 38.4901 141.104 32.9264 132.04 41.2264C122.977 49.6176 132.929 61.9308 132.929 61.9308C132.929 61.9308 131.774 59.7418 132.84 59.6506C133.906 59.5594 137.461 62.2956 137.461 62.2956L135.772 58.0088C135.772 58.0088 140.304 51.8066 138.882 46.1517C138.882 46.1517 147.501 48.8879 154.521 47.7934L156.387 53.4484Z" fill="#1E1E24"/>
<path d="M134.262 39.8582L131.063 37.4868C131.063 37.4868 130.708 30.4637 125.465 27.9099C120.223 25.356 114.447 27.1802 114.447 27.1802L118.445 29.0044C118.445 29.0044 104.495 27.8187 102.807 40.0407C101.03 52.2626 113.203 56.7319 113.825 63.0253C114.447 69.4099 106.894 65.0319 106.894 65.0319C106.894 65.0319 111.426 72.967 116.757 71.0516C122.089 69.1363 123.333 66.4912 123.333 66.4912C123.333 66.4912 124.132 67.2209 123.244 69.6835C123.244 69.6835 127.953 67.3121 126.62 59.3769C125.287 51.4417 120.756 47.9758 122 43.9626C123.244 39.9494 128.486 40.2231 131.063 43.0505" fill="#1E1E24"/>
<path d="M131.152 37.3956L127.775 41.4088L130.352 42.7769L133.995 39.311L131.152 37.3956Z" fill="#FE5F55"/>
<path d="M152.922 234.042C152.922 234.042 154.343 235.957 157.365 238.42C160.386 240.882 161.274 240.426 161.274 241.247C161.363 242.159 148.39 241.156 148.39 241.156L148.745 233.768C148.745 233.768 152.922 233.859 152.922 234.042Z" fill="#011638"/>
<path d="M87.168 190.991C87.168 190.991 85.7463 192.815 84.1469 196.464C82.5475 200.112 83.2583 200.751 82.3698 201.024C81.5701 201.298 79.3487 188.164 79.3487 188.164L86.4572 186.704C86.4572 186.796 87.3457 190.991 87.168 190.991Z" fill="#011638"/>
<path d="M93.0325 113.829C93.5657 108.265 93.4768 100.877 90.0114 96.955C88.412 95.1308 86.2795 94.2187 83.5249 94.2187C83.5249 94.2187 83.5249 94.2187 83.4361 94.2187C76.4164 94.2187 72.8622 111.184 72.7733 111.913L73.3953 112.004C73.3953 111.822 76.9495 94.8571 83.4361 94.8571C85.924 94.8571 87.9677 95.7692 89.3894 97.411C92.6771 101.151 92.766 108.356 92.2328 113.829H93.0325Z" fill="black"/>
<path d="M90.8111 113.555C91.3443 107.991 91.2554 100.603 87.79 96.6813C86.1906 94.8572 84.0581 93.9451 81.3035 93.9451C81.3035 93.9451 81.3035 93.9451 81.2147 93.9451C74.195 93.9451 70.6408 110.91 70.5519 111.64L71.1739 111.731C71.1739 111.548 74.7281 94.5835 81.2147 94.5835C83.7026 94.5835 85.7463 95.4956 87.168 97.1374C90.4557 100.877 90.5446 108.082 90.0114 113.555H90.8111Z" fill="black"/>
<path d="M94.632 113.281L92.4106 153.869L62.0217 152.227L62.1106 151.863L69.5745 111.457L94.632 113.281Z" fill="#011638"/>
<path d="M92.4106 153.869L90.6334 155.602L58.5563 153.322L62.0217 151.863H62.1106L62.0217 152.228L92.4106 153.869Z" fill="#010D1C"/>
<path d="M69.5745 111.457L62.1106 151.863H62.0217L58.5563 153.322L66.2868 113.099L69.5745 111.457Z" fill="#01122B"/>
<path d="M77.7493 112.278L78.6379 112.187C78.6379 112.004 76.9496 97.0462 82.281 95.3132C84.3247 94.6747 86.1906 94.766 87.7901 95.7692C91.4332 97.9583 93.4769 103.887 94.4543 108.447L95.3428 108.265C94.2766 103.522 92.2329 97.3198 88.2343 94.9484C86.3684 93.8539 84.2358 93.6714 82.0144 94.4923C75.9722 96.4077 77.6604 111.64 77.7493 112.278Z" fill="black"/>
<path d="M75.8833 112.734L76.7718 112.643C76.7718 112.46 75.0836 97.5022 80.415 95.7693C82.4586 95.1308 84.3246 95.222 85.924 96.2253C89.5672 98.4143 91.6109 104.343 92.5883 108.903L93.4768 108.721C92.4106 103.978 90.3669 97.7759 86.3683 95.4044C84.5023 94.3099 82.3698 94.1275 80.1484 94.9484C74.1061 96.7726 75.7944 112.096 75.8833 112.734Z" fill="black"/>
<path d="M96.4091 107.353L105.472 141.647L79.793 148.853V148.579L75.0836 112.917L96.4091 107.353Z" fill="#FE5F55"/>
<path d="M105.472 141.647L104.495 143.563L77.2161 150.859L79.7041 148.579H79.793V148.853L105.472 141.647Z" fill="#E23737"/>
<path d="M75.0836 112.917L79.793 148.579H79.7041L77.2161 150.859L72.7733 115.197L75.0836 112.917Z" fill="#F94541"/>
<path d="M84.0581 99.1439C84.4135 99.3263 84.9466 99.6 85.5686 99.7824C85.4798 98.8703 85.3909 97.411 84.8578 96.3165C84.5024 95.4956 83.7026 94.6747 82.9918 94.0362C81.6589 93.3978 80.3261 93.0329 80.0595 93.489C79.6152 94.5835 81.5701 97.9582 84.0581 99.1439Z" fill="#E6D5B9"/>
<path d="M84.0581 99.1439C84.4135 99.3264 84.9466 99.6 85.5686 99.7824C85.4797 98.8703 87.168 98.1407 86.6349 96.9549C86.2795 96.1341 84.7689 94.9483 83.0806 94.0363C81.6589 93.2154 80.3261 92.9417 80.0595 93.3978C79.6152 94.5835 81.5701 97.9582 84.0581 99.1439Z" fill="#F5B251"/>
<path d="M147.946 62.022C148.035 62.2957 148.301 63.2077 148.834 63.8462C149.367 64.1198 149.989 64.211 150.611 64.0286C150.7 64.0286 150.878 63.9374 150.967 63.8462C151.411 63.0253 151.233 61.3836 151.145 61.0187L147.946 62.022Z" fill="#FE5F55"/>
<path d="M147.946 62.022L146.968 62.2957C147.413 62.8429 148.035 63.4814 148.834 63.8462C148.301 63.2077 148.035 62.2957 147.946 62.022Z" fill="#1E1E24"/>
<path d="M151.145 61.0187C151.233 61.3835 151.411 63.0253 150.967 63.8462C152.211 63.2077 152.389 61.7484 152.389 60.6539L151.145 61.0187Z" fill="#1E1E24"/>
<path d="M152.3 59.377L146.257 61.2011C146.257 61.2011 146.524 61.6572 146.968 62.2956L147.946 62.022L151.145 61.0187L152.389 60.6539C152.389 59.9242 152.3 59.377 152.3 59.377Z" fill="white"/>
<path d="M150.078 54.9077C150.167 54.9077 150.167 54.8165 150.167 54.8165C150.345 53.9044 150.7 53.3572 151.145 53.0835C151.944 52.7187 153.011 53.3572 153.011 53.3572C153.099 53.4484 153.188 53.3572 153.277 53.2659C153.366 53.1747 153.277 53.0835 153.188 52.9923C153.099 52.9923 152.033 52.2626 151.056 52.6275C150.434 52.9011 150.078 53.5396 149.812 54.5429C149.812 54.8165 149.901 54.9077 150.078 54.9077C149.989 54.9077 149.989 54.9077 150.078 54.9077Z" fill="#1E1E24"/>
<path d="M140.304 58.8297C140.393 58.8297 140.393 58.7385 140.393 58.7385C140.571 57.8264 140.926 57.2791 141.37 57.0967C142.17 56.7319 143.236 57.3703 143.236 57.3703C143.325 57.4615 143.414 57.3703 143.503 57.2791C143.592 57.1879 143.503 57.0967 143.414 57.0055C143.325 57.0055 142.348 56.2758 141.459 56.6407C141.37 56.6407 141.37 56.6407 141.282 56.7319C140.66 57.0055 140.304 57.644 140.126 58.6473C140.126 58.6473 140.126 58.7385 140.304 58.8297Z" fill="#1E1E24"/>
</g>
<defs>
<linearGradient id="paint0_linear_28_43" x1="219.732" y1="39.1726" x2="118.77" y2="137.531" gradientUnits="userSpaceOnUse">
<stop stop-color="#FF0101"/>
<stop offset="1" stop-color="#F7941D"/>
</linearGradient>
<linearGradient id="paint1_linear_28_43" x1="123.155" y1="8.48239" x2="123.155" y2="108.812" gradientUnits="userSpaceOnUse">
<stop stop-color="#FF0101"/>
<stop offset="1" stop-color="#F7941D"/>
</linearGradient>
<linearGradient id="paint2_linear_28_43" x1="216.099" y1="3.00989" x2="216.099" y2="103.34" gradientUnits="userSpaceOnUse">
<stop stop-color="#FF0101"/>
<stop offset="1" stop-color="#F7941D"/>
</linearGradient>
<linearGradient id="paint3_linear_28_43" x1="238.668" y1="57.1879" x2="238.668" y2="157.518" gradientUnits="userSpaceOnUse">
<stop stop-color="#FF0101"/>
<stop offset="1" stop-color="#F7941D"/>
</linearGradient>
<linearGradient id="paint4_linear_28_43" x1="227.87" y1="154.515" x2="227.87" y2="242.085" gradientUnits="userSpaceOnUse">
<stop stop-color="#FF0101"/>
<stop offset="1" stop-color="#F7941D"/>
</linearGradient>
<linearGradient id="paint5_linear_28_43" x1="227.799" y1="170.925" x2="227.799" y2="237.325" gradientUnits="userSpaceOnUse">
<stop stop-color="#FF0101"/>
<stop offset="1" stop-color="#F7941D"/>
</linearGradient>
<linearGradient id="paint6_linear_28_43" x1="223.518" y1="190.44" x2="223.518" y2="205.767" gradientUnits="userSpaceOnUse">
<stop stop-color="#FF0101"/>
<stop offset="1" stop-color="#F7941D"/>
</linearGradient>
<linearGradient id="paint7_linear_28_43" x1="234.581" y1="189.862" x2="234.581" y2="196.281" gradientUnits="userSpaceOnUse">
<stop stop-color="#FF0101"/>
<stop offset="1" stop-color="#F7941D"/>
</linearGradient>
<linearGradient id="paint8_linear_28_43" x1="230.76" y1="214.215" x2="230.76" y2="219.357" gradientUnits="userSpaceOnUse">
<stop stop-color="#FF0101"/>
<stop offset="1" stop-color="#F7941D"/>
</linearGradient>
<linearGradient id="paint9_linear_28_43" x1="204.346" y1="172.325" x2="204.346" y2="245.844" gradientUnits="userSpaceOnUse">
<stop stop-color="#FF0101"/>
<stop offset="1" stop-color="#F7941D"/>
</linearGradient>
<linearGradient id="paint10_linear_28_43" x1="207.746" y1="196.794" x2="207.746" y2="238.693" gradientUnits="userSpaceOnUse">
<stop stop-color="#FF0101"/>
<stop offset="1" stop-color="#F7941D"/>
</linearGradient>
<linearGradient id="paint11_linear_28_43" x1="207.246" y1="199.382" x2="207.246" y2="214.067" gradientUnits="userSpaceOnUse">
<stop stop-color="#FF0101"/>
<stop offset="1" stop-color="#F7941D"/>
</linearGradient>
<linearGradient id="paint12_linear_28_43" x1="202.903" y1="211.327" x2="202.903" y2="219.175" gradientUnits="userSpaceOnUse">
<stop stop-color="#FF0101"/>
<stop offset="1" stop-color="#F7941D"/>
</linearGradient>
<linearGradient id="paint13_linear_28_43" x1="215.654" y1="225.444" x2="215.654" y2="234.498" gradientUnits="userSpaceOnUse">
<stop stop-color="#FF0101"/>
<stop offset="1" stop-color="#F7941D"/>
</linearGradient>
<linearGradient id="paint14_linear_28_43" x1="249.02" y1="202.692" x2="249.02" y2="248.498" gradientUnits="userSpaceOnUse">
<stop stop-color="#FF0101"/>
<stop offset="1" stop-color="#F7941D"/>
</linearGradient>
<linearGradient id="paint15_linear_28_43" x1="244.222" y1="217.164" x2="244.222" y2="243.71" gradientUnits="userSpaceOnUse">
<stop stop-color="#FF0101"/>
<stop offset="1" stop-color="#F7941D"/>
</linearGradient>
<linearGradient id="paint16_linear_28_43" x1="246.254" y1="217.715" x2="246.254" y2="228.296" gradientUnits="userSpaceOnUse">
<stop stop-color="#FF0101"/>
<stop offset="1" stop-color="#F7941D"/>
</linearGradient>
<linearGradient id="paint17_linear_28_43" x1="247.865" y1="227.44" x2="247.865" y2="231.579" gradientUnits="userSpaceOnUse">
<stop stop-color="#FF0101"/>
<stop offset="1" stop-color="#F7941D"/>
</linearGradient>
<linearGradient id="paint18_linear_28_43" x1="237.193" y1="234.115" x2="237.193" y2="240.974" gradientUnits="userSpaceOnUse">
<stop stop-color="#FF0101"/>
<stop offset="1" stop-color="#F7941D"/>
</linearGradient>
<linearGradient id="paint19_linear_28_43" x1="154.61" y1="66.8561" x2="154.61" y2="129.834" gradientUnits="userSpaceOnUse">
<stop stop-color="#FF0101"/>
<stop offset="1" stop-color="#F7941D"/>
</linearGradient>
<clipPath id="clip0_28_43">
<rect width="303" height="249" fill="white" transform="matrix(-1 0 0 1 303 0)"/>
</clipPath>
</defs>
</svg>
