<svg width="234" height="506" viewBox="0 0 234 506" fill="none" xmlns="http://www.w3.org/2000/svg">
<path d="M154.178 469.502L158.526 475.563C158.526 475.563 158.658 484.127 152.202 484.522C145.746 484.918 131.648 479.911 132.043 475.695C132.439 471.479 133.756 469.371 133.756 469.371H154.178V469.502Z" fill="#F5B251"/>
<path d="M108.064 468.975V475.563C108.064 475.563 104.77 485.576 99.8949 485.313C95.0201 485.049 85.929 478.725 86.456 472.928C86.983 467.131 86.456 465.945 86.456 465.945L108.064 468.975Z" fill="#F5B251"/>
<path d="M154.178 197.167C154.178 197.167 168.144 254.612 166.036 289.131C163.928 323.651 155.364 350.265 156.154 367.525C156.945 384.785 154.178 469.502 154.178 469.502C154.178 469.502 142.056 477.408 133.756 469.502C133.756 469.502 132.307 381.359 131.648 365.285C130.989 349.606 121.503 285.179 121.503 285.179C121.503 285.179 116.365 347.498 113.861 362.123C111.226 376.748 108.064 473.06 108.064 473.06C108.064 473.06 90.8042 481.887 86.5881 473.06C86.5881 473.06 84.48 373.981 86.5881 362.123C88.6962 350.133 71.8317 275.297 75.7843 244.467C79.7369 213.636 83.426 201.647 83.426 201.647L154.178 197.167Z" fill="#A71838"/>
<path d="M133.624 469.502C133.624 469.502 123.874 483.336 133.624 488.607C143.374 494.009 164.191 504.154 169.988 502.573C175.785 500.86 165.245 480.438 158.394 475.563C158.394 475.563 151.543 483.468 143.769 481.228C136.259 478.989 132.175 476.749 133.624 469.502Z" fill="#E91A2C"/>
<path d="M107.932 473.06C107.932 473.06 113.598 484.786 112.017 490.451C110.436 496.117 101.345 506.789 98.3143 505.208C95.284 503.627 85.7977 494.009 84.2167 487.553C82.6357 481.097 85.666 475.827 86.4565 473.06C86.4565 473.06 90.2774 482.678 98.0509 482.678C102.926 482.546 107.669 479.779 107.932 473.06Z" fill="#E91A2C"/>
<path d="M110.7 6.51905C120.186 -2.96723 137.314 -6.12933 150.885 25.6234C159.054 44.9912 168.013 37.3495 174.205 48.285C178.553 55.9268 174.732 65.8083 177.367 73.9771C181.32 86.2302 197.262 85.1761 197.262 107.574C197.262 135.111 68.8022 147.759 39.6846 117.061C27.9585 104.676 42.8467 95.3212 48.2486 86.8889C52.7282 79.7742 44.5595 73.1865 44.5595 61.8557C44.5595 50.5249 64.1908 40.2481 66.6941 33.9239C70.1197 25.2281 66.6941 7.30958 86.4572 1.64416C98.4468 -1.78144 110.7 6.51905 110.7 6.51905Z" fill="#24223C"/>
<path d="M110.568 25.6234C121.899 25.6234 137.182 36.2955 136.26 56.9809C135.469 74.6359 128.091 79.7743 123.348 82.0141L125.72 93.8719L143.243 102.699L148.513 114.03L118.868 139.064L88.5649 117.719L91.8588 102.041L102.663 92.0274L103.058 82.4094C103.058 82.4094 90.673 73.7136 90.673 58.4301C90.5413 40.6434 98.8418 25.6234 110.568 25.6234Z" fill="#F5B251"/>
<path d="M106.746 72.0008C106.483 72.0008 106.351 71.869 106.087 71.7373C105.824 71.342 105.824 70.815 106.219 70.5515C111.621 65.8084 117.682 65.8084 122.293 70.5515C122.557 70.815 122.557 71.342 122.293 71.7373C122.03 72.0008 121.503 72.0008 121.107 71.7373C115.31 65.9401 109.513 69.761 107.273 71.7373C107.142 72.0008 106.878 72.0008 106.746 72.0008Z" fill="#2D2D2D"/>
<path d="M124.006 49.8661C124.006 52.1059 123.084 53.8187 121.767 53.8187C120.581 53.8187 119.527 52.1059 119.527 49.8661C119.527 47.6263 120.449 45.9135 121.767 45.9135C123.084 45.9135 124.006 47.758 124.006 49.8661Z" fill="#2D2D2D"/>
<path d="M106.879 49.8661C106.879 52.1059 105.956 53.8187 104.639 53.8187C103.453 53.8187 102.399 52.1059 102.399 49.8661C102.399 47.6263 103.321 45.9135 104.639 45.9135C105.956 45.9135 106.879 47.758 106.879 49.8661Z" fill="#2D2D2D"/>
<path d="M110.568 25.6234C110.568 25.6234 113.203 39.8528 139.159 40.248L141.003 22.8565L111.622 14.9513L78.5518 24.1741L81.1868 38.9305C81.3186 38.9305 107.538 47.4945 110.568 25.6234Z" fill="#24223C"/>
<path d="M197.788 143.675C197.788 143.675 206.089 143.411 208.065 139.722C208.065 139.722 212.413 142.489 206.747 145.915C200.95 149.209 197.788 143.675 197.788 143.675Z" fill="#F5B251"/>
<path d="M188.17 154.742C188.17 154.742 190.806 144.861 196.866 143.807C206.88 142.094 212.94 147.891 216.234 147.891C227.433 147.891 230.068 145.256 231.649 142.621C231.649 142.621 236.261 144.861 230.99 148.945C228.092 151.317 224.007 152.898 211.886 153.161C207.67 153.293 200.028 158.695 197.657 162.12L188.17 154.742Z" fill="#F5B251"/>
<path d="M183.823 156.192L186.063 150.921L204.903 163.175L196.471 170.816L183.823 156.192Z" fill="#FCBD53"/>
<path d="M33.887 141.04C33.887 141.04 25.5865 140.776 23.6102 137.087C23.6102 137.087 19.2623 139.854 24.9277 143.28C30.7249 146.705 33.887 141.04 33.887 141.04Z" fill="#F5B251"/>
<path d="M46.0085 152.371C46.0085 152.371 43.3734 142.489 37.3127 141.435C27.2994 139.722 19.2624 143.675 15.9686 144.334C8.19509 145.783 3.71546 141.699 2.13441 139.063C2.13441 139.063 -3.79451 141.962 4.11072 147.627C7.79983 150.263 10.1714 150.394 22.161 150.658C26.3772 150.79 34.0189 156.191 36.3904 159.617L46.0085 152.371Z" fill="#F5B251"/>
<path d="M51.8051 150.658L47.9842 147.759L32.042 160.408L38.8932 165.546L51.8051 150.658Z" fill="#FCBD53"/>
<path d="M115.97 122.99C115.97 122.99 131.386 110.209 130.332 104.149C129.278 98.088 125.852 94.0037 125.852 94.0037L151.149 107.179C151.149 107.179 162.611 175.823 152.466 197.167L147.064 206.653C147.064 206.653 121.768 220.487 88.5655 206.653L80.7921 191.765L75.3901 121.672C75.3901 121.672 78.0252 108.101 79.4745 107.047C80.9238 105.993 102.663 92.0273 102.663 92.0273C102.663 92.0273 100.16 100.064 102.4 107.179C104.771 114.294 115.97 122.99 115.97 122.99Z" fill="#FAE347"/>
<path d="M93.9681 151.975C93.9681 151.975 105.694 161.462 112.809 159.09C112.809 159.09 104.772 163.701 95.5491 159.485C86.1946 155.269 93.9681 151.975 93.9681 151.975Z" fill="#F3B246"/>
<path d="M99.3707 161.989L101.742 176.218L103.719 199.275L105.168 211.66C105.168 211.66 95.8133 210.738 94.1005 208.893C92.3877 207.048 99.3707 161.989 99.3707 161.989Z" fill="#F3B246"/>
<path d="M135.075 160.935L134.68 172.002V187.417L141.004 209.156C141.004 209.156 144.561 208.761 146.142 206.785C147.723 204.677 135.075 160.935 135.075 160.935Z" fill="#F3B246"/>
<path d="M141.663 151.975C141.663 151.975 129.936 161.462 122.822 159.09C122.822 159.09 130.859 163.701 140.082 159.485C149.436 155.269 141.663 151.975 141.663 151.975Z" fill="#F3B246"/>
<path d="M183.824 235.244C182.243 235.244 163.797 242.358 156.551 241.568C156.551 241.568 138.5 191.238 137.446 181.752C136.261 172.265 128.092 100.064 125.72 93.8718C125.72 93.8718 164.588 107.442 168.672 113.898C172.756 120.354 175.918 161.462 175.918 161.462L183.56 152.371L201.479 171.475C201.479 171.475 171.834 191.633 166.827 190.447C161.821 189.262 159.581 187.812 159.581 187.812L183.824 235.244Z" fill="url(#paint0_linear_48_57)"/>
<path d="M102.531 92.0273C102.531 92.0273 100.95 233.268 91.3321 244.467L58.5254 234.058L68.5387 221.673L75.2581 193.214C75.2581 193.214 71.569 195.586 67.7482 194.4C63.9273 193.214 36.5225 165.941 36.5225 165.941L51.1472 148.945L59.9746 155.533C59.9746 155.533 63.4003 126.547 66.8259 114.821C76.8392 106.389 88.5653 99.4056 102.531 92.0273Z" fill="url(#paint1_linear_48_57)"/>
<path d="M149.699 131.817C149.699 131.817 154.969 186.231 159.581 187.944C160.503 190.052 161.821 192.424 161.821 192.424L155.365 187.944L150.49 168.313L149.699 131.817Z" fill="#A71838"/>
<path d="M78.947 131.817C78.947 131.817 82.2409 186.231 77.6295 187.944C76.7072 190.052 75.3896 192.424 75.3896 192.424L81.8456 187.944L82.5044 172.265L78.947 131.817Z" fill="#A71838"/>
<defs>
<linearGradient id="paint0_linear_48_57" x1="163.599" y1="93.8718" x2="163.599" y2="241.629" gradientUnits="userSpaceOnUse">
<stop stop-color="#FF0101"/>
<stop offset="1" stop-color="#F7941D"/>
</linearGradient>
<linearGradient id="paint1_linear_48_57" x1="69.5268" y1="92.0273" x2="69.5268" y2="244.467" gradientUnits="userSpaceOnUse">
<stop stop-color="#FF0101"/>
<stop offset="1" stop-color="#F7941D"/>
</linearGradient>
</defs>
</svg>
