<svg width="125" height="27" viewBox="0 0 125 27" fill="none" xmlns="http://www.w3.org/2000/svg">
<path d="M51.9881 21C51.8015 21 51.7081 20.9067 51.7081 20.72V2.94C51.7081 2.75333 51.8015 2.66 51.9881 2.66H53.8081C53.9948 2.66 54.0881 2.75333 54.0881 2.94V18.844H61.8161C62.0028 18.844 62.0961 18.9373 62.0961 19.124V20.72C62.0961 20.9067 62.0028 21 61.8161 21H51.9881ZM68.3384 21.336C66.453 21.336 65.0157 20.8787 64.0264 19.964C63.0557 19.0493 62.5704 17.6587 62.5704 15.792V12.544C62.5704 10.6773 63.0557 9.28667 64.0264 8.372C64.997 7.45733 66.4344 7 68.3384 7C70.2237 7 71.6517 7.45733 72.6224 8.372C73.6117 9.28667 74.1064 10.6773 74.1064 12.544V15.792C74.1064 17.6587 73.621 19.0493 72.6504 19.964C71.6797 20.8787 70.2424 21.336 68.3384 21.336ZM68.3384 19.236C69.533 19.236 70.3917 18.9373 70.9144 18.34C71.4557 17.724 71.7264 16.8 71.7264 15.568V12.768C71.7264 11.536 71.4557 10.6213 70.9144 10.024C70.3917 9.408 69.533 9.1 68.3384 9.1C67.1437 9.1 66.2757 9.408 65.7344 10.024C65.2117 10.6213 64.9504 11.536 64.9504 12.768V15.568C64.9504 16.8 65.2117 17.724 65.7344 18.34C66.2757 18.9373 67.1437 19.236 68.3384 19.236ZM81.5861 26.516C79.4021 26.516 77.8248 26.2173 76.8541 25.62C75.9021 25.0413 75.4261 24.1547 75.4261 22.96C75.4261 22.1947 75.6034 21.532 75.9581 20.972C76.3314 20.3933 76.8914 19.9267 77.6381 19.572L79.5141 20.328C78.9541 20.496 78.5434 20.7667 78.2821 21.14C78.0208 21.532 77.8901 21.9893 77.8901 22.512C77.8901 23.2587 78.1701 23.772 78.7301 24.052C79.2901 24.3507 80.2794 24.5 81.6981 24.5C83.1728 24.5 84.1901 24.3507 84.7501 24.052C85.3288 23.7533 85.6181 23.2027 85.6181 22.4C85.6181 21.8587 85.4874 21.4573 85.2261 21.196C84.9648 20.9347 84.5354 20.7947 83.9381 20.776L78.7581 20.496C78.1794 20.4587 77.6474 20.244 77.1621 19.852C76.6954 19.4413 76.4621 18.8067 76.4621 17.948C76.4621 17.556 76.5181 17.2107 76.6301 16.912C76.7608 16.5947 76.9568 16.296 77.2181 16.016C77.4981 15.736 77.8621 15.428 78.3101 15.092L79.8221 15.988C79.4114 16.156 79.1128 16.3613 78.9261 16.604C78.7394 16.8467 78.6461 17.1267 78.6461 17.444C78.6461 17.78 78.7581 18.0227 78.9821 18.172C79.2061 18.3027 79.5514 18.3867 80.0181 18.424L84.6661 18.704C85.7674 18.7787 86.5888 19.1333 87.1301 19.768C87.6901 20.384 87.9701 21.2987 87.9701 22.512C87.9701 23.9307 87.4568 24.948 86.4301 25.564C85.4221 26.1987 83.8074 26.516 81.5861 26.516ZM81.8101 16.576C80.0554 16.576 78.7581 16.184 77.9181 15.4C77.0781 14.616 76.6581 13.412 76.6581 11.788C76.6581 10.164 77.0781 8.96 77.9181 8.176C78.7768 7.392 80.1021 7 81.8941 7C83.6114 7 84.8808 7.40133 85.7021 8.204C86.5421 8.988 86.9621 10.192 86.9621 11.816C86.9621 13.44 86.5421 14.644 85.7021 15.428C84.8808 16.1933 83.5834 16.576 81.8101 16.576ZM81.8101 14.504C82.8554 14.504 83.5741 14.308 83.9661 13.916C84.3768 13.5053 84.5821 12.8053 84.5821 11.816C84.5821 10.808 84.3768 10.0987 83.9661 9.688C83.5554 9.27733 82.8368 9.072 81.8101 9.072C80.7834 9.072 80.0648 9.27733 79.6541 9.688C79.2434 10.0987 79.0381 10.808 79.0381 11.816C79.0381 12.8053 79.2434 13.5053 79.6541 13.916C80.0648 14.308 80.7834 14.504 81.8101 14.504ZM85.2261 8.568L83.2661 7.728C83.3594 6.85067 83.4528 6.12267 83.5461 5.544C83.6581 4.94667 83.7608 4.44267 83.8541 4.032C83.9101 3.808 84.0221 3.696 84.1901 3.696H85.9541C86.1594 3.696 86.2341 3.78933 86.1781 3.976C85.9914 4.55467 85.8328 5.17067 85.7021 5.824C85.5714 6.47733 85.4128 7.392 85.2261 8.568ZM95.0149 21.336C93.1296 21.336 91.6923 20.8787 90.7029 19.964C89.7323 19.0493 89.2469 17.6587 89.2469 15.792V12.544C89.2469 10.6773 89.7323 9.28667 90.7029 8.372C91.6736 7.45733 93.1109 7 95.0149 7C96.9003 7 98.3283 7.45733 99.2989 8.372C100.288 9.28667 100.783 10.6773 100.783 12.544V15.792C100.783 17.6587 100.298 19.0493 99.3269 19.964C98.3563 20.8787 96.9189 21.336 95.0149 21.336ZM95.0149 19.236C96.2096 19.236 97.0683 18.9373 97.5909 18.34C98.1323 17.724 98.4029 16.8 98.4029 15.568V12.768C98.4029 11.536 98.1323 10.6213 97.5909 10.024C97.0683 9.408 96.2096 9.1 95.0149 9.1C93.8203 9.1 92.9523 9.408 92.4109 10.024C91.8883 10.6213 91.6269 11.536 91.6269 12.768V15.568C91.6269 16.8 91.8883 17.724 92.4109 18.34C92.9523 18.9373 93.8203 19.236 95.0149 19.236ZM106.919 21.336C105.724 21.336 104.809 20.9347 104.175 20.132C103.54 19.3293 103.223 18.172 103.223 16.66V7.616C103.223 7.42933 103.316 7.336 103.503 7.336H105.323C105.509 7.336 105.603 7.42933 105.603 7.616V16.548C105.603 17.4627 105.761 18.144 106.079 18.592C106.415 19.0213 106.928 19.236 107.619 19.236C108.309 19.236 109 19.0213 109.691 18.592C110.4 18.1627 111.277 17.416 112.323 16.352L112.267 18.564C111.669 19.18 111.072 19.6933 110.475 20.104C109.877 20.5147 109.28 20.8227 108.683 21.028C108.104 21.2333 107.516 21.336 106.919 21.336ZM112.519 21C112.425 21 112.351 20.9813 112.295 20.944C112.239 20.888 112.201 20.8133 112.183 20.72C112.127 20.3653 112.08 20.0013 112.043 19.628C112.005 19.2547 111.977 18.872 111.959 18.48L111.819 17.304V7.616C111.819 7.42933 111.912 7.336 112.099 7.336H113.919C114.105 7.336 114.199 7.42933 114.199 7.616V17.584C114.199 18.088 114.208 18.6107 114.227 19.152C114.264 19.6933 114.32 20.216 114.395 20.72C114.432 20.9067 114.329 21 114.087 21H112.519ZM121.786 21.336C120.834 21.336 120.069 21.1773 119.49 20.86C118.93 20.524 118.52 20.0293 118.258 19.376C118.016 18.7227 117.894 17.9107 117.894 16.94V9.38H115.738C115.552 9.38 115.458 9.28667 115.458 9.1V7.616C115.458 7.42933 115.552 7.336 115.738 7.336H117.95L118.258 3.976C118.277 3.78933 118.38 3.696 118.566 3.696H119.966C120.153 3.696 120.246 3.78933 120.246 3.976L120.274 7.336H124.446C124.633 7.336 124.726 7.42933 124.726 7.616V9.1C124.726 9.28667 124.633 9.38 124.446 9.38H120.274V16.884C120.274 17.7613 120.424 18.3773 120.722 18.732C121.04 19.0867 121.572 19.264 122.318 19.264C122.692 19.264 123.065 19.2267 123.438 19.152C123.812 19.0587 124.138 18.9467 124.418 18.816C124.512 18.7787 124.586 18.7787 124.642 18.816C124.717 18.8533 124.754 18.9187 124.754 19.012V20.552C124.754 20.7013 124.68 20.804 124.53 20.86C124.194 20.9907 123.802 21.1027 123.354 21.196C122.906 21.2893 122.384 21.336 121.786 21.336Z" fill="black"/>
<g clip-path="url(#clip0_0_1)">
<path d="M12.191 17.5113C12.5506 17.5113 12.8448 17.8062 12.8448 18.1666V21.5673C12.8448 23.2906 14.244 24.6928 15.9637 24.6928H29.5735C31.2931 24.6928 32.6923 23.2906 32.6923 21.5673V4.43599C32.6923 2.7127 31.2931 1.31048 29.5735 1.31048H15.9604C14.2408 1.31048 12.8415 2.7127 12.8415 4.43599V8.03654C12.8415 8.39692 12.5473 8.69178 12.1877 8.69178C11.8281 8.69178 11.5338 8.39692 11.5338 8.03654V4.43599C11.5371 1.98866 13.5215 0 15.9604 0H29.5735C32.0156 0 34 1.98866 34 4.43599V21.5673C34 24.0113 32.0156 26.0033 29.5735 26.0033H15.9604C13.5215 26.0033 11.5338 24.0146 11.5338 21.5673V18.1666C11.5371 17.8062 11.8281 17.5113 12.191 17.5113Z" fill="#333333"/>
<path d="M3.8147e-06 12.9835C3.8147e-06 12.9803 3.8147e-06 12.9803 3.8147e-06 12.9835C3.8147e-06 12.9606 3.8147e-06 12.9409 0.00327301 12.918C0.00327301 12.9082 0.0065403 12.8984 0.0065403 12.8885C0.00980949 12.8754 0.00981331 12.8656 0.0130825 12.8525C0.0163517 12.8427 0.019619 12.8296 0.019619 12.8197C0.0228882 12.8099 0.0228901 12.8001 0.0261593 12.7902C0.0294285 12.7804 0.0326958 12.7706 0.035965 12.7575C0.0392342 12.7476 0.0425053 12.7378 0.0457745 12.728C0.0490437 12.7182 0.055582 12.7083 0.0588512 12.6985C0.0621204 12.6887 0.0686569 12.6788 0.0719261 12.669C0.0751953 12.6592 0.0817337 12.6526 0.0882721 12.6428C0.0948105 12.633 0.0980797 12.6231 0.104618 12.6133C0.111156 12.6035 0.117699 12.5937 0.124237 12.5838C0.130775 12.5773 0.134045 12.5675 0.140583 12.5609C0.15366 12.5445 0.170004 12.5281 0.183081 12.5118L6.83923 5.8545C7.09423 5.59896 7.50943 5.59896 7.76443 5.8545C8.01943 6.11004 8.01943 6.52612 7.76443 6.78167L2.23289 12.325H18.2358C18.5954 12.325 18.8896 12.6199 18.8896 12.9803C18.8896 13.3406 18.5954 13.6355 18.2358 13.6355H2.19693L7.76443 19.2182C8.01943 19.4737 8.01943 19.8898 7.76443 20.1453C7.63693 20.2731 7.4702 20.3386 7.30347 20.3386C7.13673 20.3386 6.97 20.2731 6.8425 20.1453L0.19289 13.4815C0.0621204 13.3505 -0.00326538 13.1736 0.00327301 12.9999C3.8147e-06 12.9934 3.8147e-06 12.9868 3.8147e-06 12.9835Z" fill="#333333"/>
</g>
<defs>
<clipPath id="clip0_0_1">
<rect width="34" height="26" fill="white" transform="matrix(-1 0 0 1 34 0)"/>
</clipPath>
</defs>
</svg>
