<svg width="116" height="119" viewBox="0 0 116 119" fill="none" xmlns="http://www.w3.org/2000/svg">
<path d="M68.5478 64.6659C56.6133 70.2563 48.9246 69.5696 45.7758 69.0792C43.1453 68.6689 38.6521 67.9265 34.6061 64.3953C31.5859 61.7578 29.5663 58.0967 28.442 54.2362C25.8817 45.4545 27.8779 35.7321 32.567 27.8842C37.256 20.0363 44.4265 13.9164 52.2555 9.2169C56.2256 6.8344 60.634 4.72346 65.2568 4.98428C69.8796 5.24509 74.6096 8.63373 74.8804 13.2649C75.9024 7.58558 71.0906 2.10164 65.5335 0.598294C59.9764 -0.905053 54.0569 0.646159 48.7131 2.7991C40.208 6.22974 32.2484 11.277 26.1506 18.1354C12.6144 33.3535 9.55524 61.4091 27.4171 74.9177C33.9328 79.8439 42.4809 81.613 50.6042 80.8168C61.4982 79.7482 69.1431 75.4814 73.4853 72.6583C89.7338 62.0988 96.0528 45.7954 98.2049 39.1422C92.9956 46.5271 83.4499 57.6835 68.5478 64.6659Z" fill="url(#paint0_linear_12_261)"/>
<path d="M56.2002 8.67771C56.5675 8.47258 64.8632 3.99965 70.5217 8.06524C71.6255 8.88043 72.5416 9.92418 73.2077 11.1257C76.5386 17.0638 72.5159 24.227 72.0678 24.9967C74.3417 20.4154 74.1858 15.2499 71.4979 11.7782C69.2093 8.81838 65.7897 8.00956 64.8272 7.78C60.6759 6.79633 57.3011 8.17269 56.2002 8.67771Z" fill="#BE1E2D"/>
<path d="M54.0432 67.1832C60.7263 64.2735 67.1053 60.7069 73.0868 56.5357C88.2168 45.9791 97.7947 33.6172 103.483 24.7124C100.286 32.2027 95.8725 39.1095 90.4216 45.1517C77.2332 59.7339 61.543 65.1543 54.0432 67.1832Z" fill="#F7941D"/>
<path d="M5.85063 115.216C4.38663 115.216 3.27663 114.85 2.52063 114.118C1.77663 113.386 1.40463 112.342 1.40463 110.986V107.224C1.40463 105.868 1.78263 104.824 2.53863 104.092C3.30663 103.36 4.41663 102.994 5.86863 102.994C6.79263 102.994 7.60263 103.156 8.29863 103.48C9.00663 103.792 9.53463 104.248 9.88263 104.848C10.2426 105.436 10.3626 106.144 10.2426 106.972C10.2306 107.032 10.2126 107.092 10.1886 107.152C10.1646 107.2 10.1166 107.224 10.0446 107.224H8.87463C8.74263 107.224 8.68863 107.164 8.71263 107.044C8.74863 106.18 8.52063 105.514 8.02863 105.046C7.54863 104.578 6.83463 104.344 5.88663 104.344C4.93863 104.344 4.20663 104.59 3.69063 105.082C3.18663 105.574 2.93463 106.282 2.93463 107.206V111.004C2.93463 111.928 3.18663 112.636 3.69063 113.128C4.20663 113.62 4.93863 113.866 5.88663 113.866C6.83463 113.866 7.56663 113.632 8.08263 113.164C8.59863 112.684 8.80863 112.018 8.71263 111.166C8.68863 111.046 8.74263 110.986 8.87463 110.986H10.0266C10.1466 110.986 10.2186 111.07 10.2426 111.238C10.3146 112.042 10.1706 112.744 9.81063 113.344C9.46263 113.932 8.94663 114.394 8.26263 114.73C7.57863 115.054 6.77463 115.216 5.85063 115.216ZM12.1113 115C11.9913 115 11.9313 114.94 11.9313 114.82V102.886C11.9313 102.766 11.9913 102.706 12.1113 102.706H13.2813C13.4013 102.706 13.4613 102.766 13.4613 102.886V114.82C13.4613 114.94 13.4013 115 13.2813 115H12.1113ZM18.6156 115.216C17.4636 115.216 16.5756 114.946 15.9516 114.406C15.3396 113.866 15.0336 113.068 15.0336 112.012V109.492C15.0336 108.352 15.3396 107.488 15.9516 106.9C16.5636 106.3 17.4516 106 18.6156 106C19.7796 106 20.6616 106.294 21.2616 106.882C21.8736 107.458 22.1796 108.298 22.1796 109.402V110.806C22.1796 110.926 22.1196 110.986 21.9996 110.986H16.5636V111.562C16.5636 112.366 16.7316 112.954 17.0676 113.326C17.4036 113.686 17.9496 113.866 18.7056 113.866C19.2696 113.866 19.7016 113.776 20.0016 113.596C20.3136 113.404 20.4696 113.128 20.4696 112.768C20.4696 112.636 20.5356 112.57 20.6676 112.57H21.8376C21.9336 112.57 21.9936 112.624 22.0176 112.732C22.0656 113.5 21.7836 114.106 21.1716 114.55C20.5596 114.994 19.7076 115.216 18.6156 115.216ZM16.5636 109.672H20.6496V109.564C20.6496 108.808 20.4816 108.25 20.1456 107.89C19.8096 107.53 19.3056 107.35 18.6336 107.35C17.9376 107.35 17.4156 107.536 17.0676 107.908C16.7316 108.28 16.5636 108.838 16.5636 109.582V109.672ZM28.7956 115C28.7236 115 28.6756 114.976 28.6516 114.928C28.6276 114.88 28.6036 114.82 28.5796 114.748C28.5676 114.652 28.5376 114.448 28.4896 114.136C28.4536 113.812 28.4296 113.524 28.4176 113.272L28.3636 112.588V109.006C28.3636 108.406 28.2436 107.98 28.0036 107.728C27.7636 107.476 27.3436 107.35 26.7436 107.35C26.2036 107.35 25.7956 107.446 25.5196 107.638C25.2556 107.818 25.1236 108.094 25.1236 108.466C25.1236 108.586 25.0696 108.646 24.9616 108.646H23.7736C23.6536 108.646 23.5876 108.532 23.5756 108.304C23.5156 107.62 23.7796 107.068 24.3676 106.648C24.9676 106.216 25.7776 106 26.7976 106C27.8416 106 28.6156 106.246 29.1196 106.738C29.6356 107.23 29.8936 107.974 29.8936 108.97V112.822C29.8936 113.242 29.9056 113.62 29.9296 113.956C29.9536 114.28 29.9836 114.562 30.0196 114.802C30.0436 114.934 29.9836 115 29.8396 115H28.7956ZM25.3576 115.216C24.6616 115.216 24.1276 115.006 23.7556 114.586C23.3956 114.166 23.2156 113.554 23.2156 112.75C23.2156 112.126 23.3356 111.616 23.5756 111.22C23.8276 110.824 24.2236 110.518 24.7636 110.302C25.3156 110.086 26.0476 109.942 26.9596 109.87L28.6516 109.726V110.896L26.9236 111.04C26.0956 111.112 25.5256 111.262 25.2136 111.49C24.9016 111.718 24.7456 112.102 24.7456 112.642C24.7456 113.05 24.8296 113.356 24.9976 113.56C25.1656 113.764 25.4176 113.866 25.7536 113.866C26.1496 113.866 26.5636 113.734 26.9956 113.47C27.4276 113.194 27.9976 112.69 28.7056 111.958V113.308C28.2856 113.764 27.8896 114.136 27.5176 114.424C27.1576 114.7 26.8036 114.898 26.4556 115.018C26.1076 115.15 25.7416 115.216 25.3576 115.216ZM31.8761 115C31.7561 115 31.6961 114.94 31.6961 114.82V108.358C31.6961 108.022 31.6841 107.698 31.6601 107.386C31.6481 107.062 31.6181 106.738 31.5701 106.414C31.5461 106.282 31.6061 106.216 31.7501 106.216H32.8481C32.9081 106.216 32.9501 106.228 32.9741 106.252C33.0101 106.276 33.0341 106.318 33.0461 106.378C33.0941 106.606 33.1301 106.87 33.1541 107.17C33.1781 107.458 33.1901 107.704 33.1901 107.908L33.2261 108.862V114.82C33.2261 114.94 33.1661 115 33.0461 115H31.8761ZM33.0281 109.402L32.9921 107.926C33.2441 107.554 33.5321 107.224 33.8561 106.936C34.1921 106.648 34.5281 106.42 34.8641 106.252C35.2121 106.084 35.5301 106 35.8181 106C36.0341 106 36.1961 106.018 36.3041 106.054C36.3641 106.066 36.4001 106.09 36.4121 106.126C36.4361 106.15 36.4541 106.186 36.4661 106.234C36.4901 106.486 36.4961 106.744 36.4841 107.008C36.4841 107.272 36.4661 107.524 36.4301 107.764C36.4181 107.824 36.3881 107.866 36.3401 107.89C36.3041 107.914 36.2561 107.92 36.1961 107.908C36.1001 107.884 35.9981 107.866 35.8901 107.854C35.7821 107.842 35.6681 107.836 35.5481 107.836C35.2481 107.836 34.9481 107.902 34.6481 108.034C34.3481 108.166 34.0601 108.352 33.7841 108.592C33.5081 108.82 33.2561 109.09 33.0281 109.402ZM37.3921 115C37.2721 115 37.2121 114.94 37.2121 114.82V102.886C37.2121 102.766 37.2721 102.706 37.3921 102.706H38.5621C38.6821 102.706 38.7421 102.766 38.7421 102.886V114.82C38.7421 114.94 38.6821 115 38.5621 115H37.3921ZM41.8084 118.33C41.6644 118.33 41.6224 118.258 41.6824 118.114L42.9604 114.892L39.6304 106.432C39.5704 106.288 39.6124 106.216 39.7564 106.216H41.0344C41.1304 106.216 41.1964 106.264 41.2324 106.36L42.8524 110.716C42.9964 111.088 43.1344 111.472 43.2664 111.868C43.4104 112.264 43.5484 112.654 43.6804 113.038H43.6984C43.8304 112.654 43.9684 112.264 44.1124 111.868C44.2684 111.472 44.4124 111.088 44.5444 110.716L46.1644 106.36C46.2004 106.264 46.2724 106.216 46.3804 106.216H47.5864C47.6464 106.216 47.6884 106.24 47.7124 106.288C47.7484 106.324 47.7544 106.372 47.7304 106.432L43.1764 118.186C43.1404 118.282 43.0744 118.33 42.9784 118.33H41.8084ZM53.887 115.216C53.047 115.216 52.399 114.934 51.943 114.37C51.499 113.806 51.277 112.972 51.277 111.868V109.618C51.277 108.478 51.565 107.59 52.141 106.954C52.717 106.318 53.515 106 54.535 106C55.003 106 55.495 106.066 56.011 106.198C56.527 106.318 56.917 106.474 57.181 106.666L57.271 107.98C56.887 107.776 56.467 107.62 56.011 107.512C55.555 107.404 55.153 107.35 54.805 107.35C54.133 107.35 53.629 107.554 53.293 107.962C52.969 108.37 52.807 108.982 52.807 109.798V111.958C52.807 112.594 52.927 113.074 53.167 113.398C53.419 113.71 53.791 113.866 54.283 113.866C54.583 113.866 54.877 113.812 55.165 113.704C55.453 113.584 55.771 113.392 56.119 113.128C56.467 112.852 56.875 112.48 57.343 112.012L57.307 113.416C56.899 113.824 56.509 114.166 56.137 114.442C55.777 114.706 55.411 114.898 55.039 115.018C54.679 115.15 54.295 115.216 53.887 115.216ZM57.433 115C57.373 115 57.325 114.988 57.289 114.964C57.253 114.928 57.229 114.874 57.217 114.802C57.193 114.622 57.163 114.394 57.127 114.118C57.091 113.842 57.079 113.614 57.091 113.434L57.001 112.624V102.886C57.001 102.766 57.061 102.706 57.181 102.706H58.351C58.471 102.706 58.531 102.766 58.531 102.886V112.966C58.531 113.134 58.537 113.338 58.549 113.578C58.561 113.806 58.573 114.028 58.585 114.244C58.609 114.46 58.633 114.628 58.657 114.748C58.693 114.916 58.633 115 58.477 115H57.433ZM60.5284 115C60.4084 115 60.3484 114.94 60.3484 114.82V106.396C60.3484 106.276 60.4084 106.216 60.5284 106.216H61.6984C61.8184 106.216 61.8784 106.276 61.8784 106.396V114.82C61.8784 114.94 61.8184 115 61.6984 115H60.5284ZM61.1224 104.74C60.7744 104.74 60.5224 104.65 60.3664 104.47C60.2104 104.278 60.1324 104.038 60.1324 103.75V103.57C60.1324 103.282 60.2104 103.048 60.3664 102.868C60.5224 102.676 60.7744 102.58 61.1224 102.58C61.4704 102.58 61.7224 102.676 61.8784 102.868C62.0344 103.048 62.1124 103.282 62.1124 103.57V103.75C62.1124 104.038 62.0344 104.278 61.8784 104.47C61.7224 104.65 61.4704 104.74 61.1224 104.74ZM64.4408 115C64.3928 115 64.3508 114.982 64.3148 114.946C64.2788 114.91 64.2608 114.868 64.2608 114.82V107.53H62.8748C62.8268 107.53 62.7848 107.512 62.7488 107.476C62.7128 107.44 62.6948 107.398 62.6948 107.35V106.396C62.6948 106.336 62.7128 106.294 62.7488 106.27C62.7848 106.234 62.8268 106.216 62.8748 106.216H64.2608V105.28C64.2608 104.392 64.5188 103.708 65.0348 103.228C65.5628 102.736 66.2828 102.49 67.1948 102.49C67.4708 102.49 67.7528 102.52 68.0408 102.58C68.3288 102.628 68.5748 102.694 68.7788 102.778C69.0068 102.862 69.1208 102.964 69.1208 103.084V104.038C69.1208 104.11 69.0908 104.158 69.0308 104.182C68.9828 104.206 68.8748 104.182 68.7068 104.11C68.5148 104.026 68.2868 103.96 68.0228 103.912C67.7588 103.852 67.5188 103.822 67.3028 103.822C66.8108 103.822 66.4328 103.948 66.1688 104.2C65.9168 104.452 65.7908 104.824 65.7908 105.316V106.216H68.4008C68.5208 106.216 68.5808 106.276 68.5808 106.396V107.35C68.5808 107.398 68.5628 107.44 68.5268 107.476C68.5028 107.512 68.4608 107.53 68.4008 107.53H65.7908V114.82C65.7908 114.868 65.7728 114.91 65.7368 114.946C65.7128 114.982 65.6708 115 65.6108 115H64.4408ZM70.9568 115C70.9088 115 70.8668 114.982 70.8308 114.946C70.7948 114.91 70.7768 114.868 70.7768 114.82V107.53H69.3908C69.3428 107.53 69.3008 107.512 69.2648 107.476C69.2288 107.44 69.2108 107.398 69.2108 107.35V106.396C69.2108 106.336 69.2288 106.294 69.2648 106.27C69.3008 106.234 69.3428 106.216 69.3908 106.216H70.7768V105.28C70.7768 104.392 71.0348 103.708 71.5508 103.228C72.0788 102.736 72.7988 102.49 73.7108 102.49C73.9868 102.49 74.2688 102.52 74.5568 102.58C74.8448 102.628 75.0908 102.694 75.2948 102.778C75.5228 102.862 75.6368 102.964 75.6368 103.084V104.038C75.6368 104.11 75.6068 104.158 75.5468 104.182C75.4988 104.206 75.3908 104.182 75.2228 104.11C75.0308 104.026 74.8028 103.96 74.5388 103.912C74.2748 103.852 74.0348 103.822 73.8188 103.822C73.3268 103.822 72.9488 103.948 72.6848 104.2C72.4328 104.452 72.3068 104.824 72.3068 105.316V106.216H74.9168C75.0368 106.216 75.0968 106.276 75.0968 106.396V107.35C75.0968 107.398 75.0788 107.44 75.0428 107.476C75.0188 107.512 74.9768 107.53 74.9168 107.53H72.3068V114.82C72.3068 114.868 72.2888 114.91 72.2528 114.946C72.2288 114.982 72.1868 115 72.1268 115H70.9568ZM78.6484 115.216C77.4964 115.216 76.6084 114.946 75.9844 114.406C75.3724 113.866 75.0664 113.068 75.0664 112.012V109.492C75.0664 108.352 75.3724 107.488 75.9844 106.9C76.5964 106.3 77.4844 106 78.6484 106C79.8124 106 80.6944 106.294 81.2944 106.882C81.9064 107.458 82.2124 108.298 82.2124 109.402V110.806C82.2124 110.926 82.1524 110.986 82.0324 110.986H76.5964V111.562C76.5964 112.366 76.7644 112.954 77.1004 113.326C77.4364 113.686 77.9824 113.866 78.7384 113.866C79.3024 113.866 79.7344 113.776 80.0344 113.596C80.3464 113.404 80.5024 113.128 80.5024 112.768C80.5024 112.636 80.5684 112.57 80.7004 112.57H81.8704C81.9664 112.57 82.0264 112.624 82.0504 112.732C82.0984 113.5 81.8164 114.106 81.2044 114.55C80.5924 114.994 79.7404 115.216 78.6484 115.216ZM76.5964 109.672H80.6824V109.564C80.6824 108.808 80.5144 108.25 80.1784 107.89C79.8424 107.53 79.3384 107.35 78.6664 107.35C77.9704 107.35 77.4484 107.536 77.1004 107.908C76.7644 108.28 76.5964 108.838 76.5964 109.582V109.672ZM83.9144 115C83.7944 115 83.7344 114.94 83.7344 114.82V108.358C83.7344 108.022 83.7224 107.698 83.6984 107.386C83.6864 107.062 83.6564 106.738 83.6084 106.414C83.5844 106.282 83.6444 106.216 83.7884 106.216H84.8864C84.9464 106.216 84.9884 106.228 85.0124 106.252C85.0484 106.276 85.0724 106.318 85.0844 106.378C85.1324 106.606 85.1684 106.87 85.1924 107.17C85.2164 107.458 85.2284 107.704 85.2284 107.908L85.2644 108.862V114.82C85.2644 114.94 85.2044 115 85.0844 115H83.9144ZM85.0664 109.402L85.0304 107.926C85.2824 107.554 85.5704 107.224 85.8944 106.936C86.2304 106.648 86.5664 106.42 86.9024 106.252C87.2504 106.084 87.5684 106 87.8564 106C88.0724 106 88.2344 106.018 88.3424 106.054C88.4024 106.066 88.4384 106.09 88.4504 106.126C88.4744 106.15 88.4924 106.186 88.5044 106.234C88.5284 106.486 88.5344 106.744 88.5224 107.008C88.5224 107.272 88.5044 107.524 88.4684 107.764C88.4564 107.824 88.4264 107.866 88.3784 107.89C88.3424 107.914 88.2944 107.92 88.2344 107.908C88.1384 107.884 88.0364 107.866 87.9284 107.854C87.8204 107.842 87.7064 107.836 87.5864 107.836C87.2864 107.836 86.9864 107.902 86.6864 108.034C86.3864 108.166 86.0984 108.352 85.8224 108.592C85.5464 108.82 85.2944 109.09 85.0664 109.402ZM92.4226 115.216C91.2706 115.216 90.3826 114.946 89.7586 114.406C89.1466 113.866 88.8406 113.068 88.8406 112.012V109.492C88.8406 108.352 89.1466 107.488 89.7586 106.9C90.3706 106.3 91.2586 106 92.4226 106C93.5866 106 94.4686 106.294 95.0686 106.882C95.6806 107.458 95.9866 108.298 95.9866 109.402V110.806C95.9866 110.926 95.9266 110.986 95.8066 110.986H90.3706V111.562C90.3706 112.366 90.5386 112.954 90.8746 113.326C91.2106 113.686 91.7566 113.866 92.5126 113.866C93.0766 113.866 93.5086 113.776 93.8086 113.596C94.1206 113.404 94.2766 113.128 94.2766 112.768C94.2766 112.636 94.3426 112.57 94.4746 112.57H95.6446C95.7406 112.57 95.8006 112.624 95.8246 112.732C95.8726 113.5 95.5906 114.106 94.9786 114.55C94.3666 114.994 93.5146 115.216 92.4226 115.216ZM90.3706 109.672H94.4566V109.564C94.4566 108.808 94.2886 108.25 93.9526 107.89C93.6166 107.53 93.1126 107.35 92.4406 107.35C91.7446 107.35 91.2226 107.536 90.8746 107.908C90.5386 108.28 90.3706 108.838 90.3706 109.582V109.672ZM103.467 115C103.347 115 103.287 114.94 103.287 114.82V109.078C103.287 108.478 103.161 108.04 102.909 107.764C102.669 107.488 102.303 107.35 101.811 107.35C101.343 107.35 100.881 107.488 100.425 107.764C99.9686 108.04 99.3986 108.514 98.7146 109.186L98.7326 107.8C99.1406 107.368 99.5246 107.02 99.8846 106.756C100.257 106.492 100.623 106.3 100.983 106.18C101.355 106.06 101.745 106 102.153 106C103.017 106 103.677 106.252 104.133 106.756C104.589 107.26 104.817 108.01 104.817 109.006V114.82C104.817 114.94 104.757 115 104.637 115H103.467ZM97.6886 115C97.5686 115 97.5086 114.94 97.5086 114.82V108.412C97.5086 108.1 97.4906 107.752 97.4546 107.368C97.4306 106.972 97.4066 106.666 97.3826 106.45C97.3586 106.294 97.4186 106.216 97.5626 106.216H98.6606C98.7206 106.216 98.7626 106.228 98.7866 106.252C98.8226 106.276 98.8466 106.324 98.8586 106.396C98.8826 106.492 98.9066 106.642 98.9306 106.846C98.9546 107.05 98.9786 107.266 99.0026 107.494C99.0266 107.71 99.0386 107.896 99.0386 108.052V108.52V114.82C99.0386 114.94 98.9786 115 98.8586 115H97.6886ZM109.864 115.216C109.252 115.216 108.76 115.114 108.388 114.91C108.028 114.694 107.764 114.376 107.596 113.956C107.44 113.536 107.362 113.014 107.362 112.39V107.53H105.976C105.856 107.53 105.796 107.47 105.796 107.35V106.396C105.796 106.276 105.856 106.216 105.976 106.216H107.398L107.596 104.056C107.608 103.936 107.674 103.876 107.794 103.876H108.694C108.814 103.876 108.874 103.936 108.874 104.056L108.892 106.216H111.574C111.694 106.216 111.754 106.276 111.754 106.396V107.35C111.754 107.47 111.694 107.53 111.574 107.53H108.892V112.354C108.892 112.918 108.988 113.314 109.18 113.542C109.384 113.77 109.726 113.884 110.206 113.884C110.446 113.884 110.686 113.86 110.926 113.812C111.166 113.752 111.376 113.68 111.556 113.596C111.616 113.572 111.664 113.572 111.7 113.596C111.748 113.62 111.772 113.662 111.772 113.722V114.712C111.772 114.808 111.724 114.874 111.628 114.91C111.412 114.994 111.16 115.066 110.872 115.126C110.584 115.186 110.248 115.216 109.864 115.216ZM113.814 115.216C113.454 115.216 113.196 115.126 113.04 114.946C112.884 114.754 112.806 114.508 112.806 114.208V114.028C112.806 113.728 112.884 113.488 113.04 113.308C113.196 113.116 113.454 113.02 113.814 113.02C114.174 113.02 114.432 113.116 114.588 113.308C114.744 113.488 114.822 113.728 114.822 114.028V114.208C114.822 114.508 114.744 114.754 114.588 114.946C114.432 115.126 114.174 115.216 113.814 115.216Z" fill="#777777"/>
<defs>
<linearGradient id="paint0_linear_12_261" x1="89.0996" y1="-22.8145" x2="4.87785" y2="136.746" gradientUnits="userSpaceOnUse">
<stop offset="0.01" stop-color="#FBB040"/>
<stop offset="0.35" stop-color="#EF4136"/>
<stop offset="0.68" stop-color="#ED1C24"/>
<stop offset="1" stop-color="#BE1E2D"/>
</linearGradient>
</defs>
</svg>
