<svg width="440" height="625" viewBox="0 0 440 625" fill="none" xmlns="http://www.w3.org/2000/svg">
<g clip-path="url(#clip0_16_1067)">
<path d="M143.378 514.871L128.187 648.93H101.744H75.2998L60.1096 514.871H143.378Z" fill="#FEF3BD"/>
<path d="M163.652 359.053C158.257 355.521 150.759 356.838 145.544 360.631C140.329 364.424 136.948 370.211 134.053 375.985C126.168 391.737 120.764 408.732 118.076 426.151C116.251 429.82 114.444 433.714 112.717 437.798C110.02 444.269 107.799 450.573 106.01 456.374C105.156 459.288 104.32 462.055 103.69 464.679C102.989 467.29 102.459 469.748 101.982 471.998C101.47 474.492 101.065 476.718 100.75 478.653C100.705 476.184 100.66 473.637 100.642 471.019C100.579 461.158 100.678 450.318 101.065 438.944C101.47 427.932 102.108 417.442 102.836 407.86L103.295 409.101C103.142 408.602 102.998 408.103 102.854 407.605C102.872 407.38 102.881 407.142 102.899 406.917C102.917 406.72 102.935 406.536 102.953 406.341C114.192 392.916 122.814 377.292 128.173 360.604C130.906 352.074 132.776 342.723 129.863 334.252C126.95 325.781 117.725 318.958 109.175 321.562C99.3927 324.541 96.2907 336.757 95.7153 346.984C94.6274 365.934 96.6504 385.054 101.631 403.365C101.542 404.494 101.443 405.634 101.344 406.791C100.571 416.64 99.8962 427.486 99.4826 438.884C99.096 450.282 98.997 461.152 99.087 471.031C99.1229 474.599 99.1859 478.036 99.2758 481.324C98.071 475.684 95.8142 467.095 92.6314 457.632C92.0739 455.934 91.4985 454.277 90.932 452.669C92.2627 434.884 86.7333 416.635 75.6563 402.654C72.3925 398.534 68.0049 394.488 62.7631 394.659C55.3724 394.897 50.8139 403.847 52.2705 411.114C53.727 418.379 59.1397 424.102 64.3275 429.386C73.0219 438.261 81.7162 447.136 90.4106 456.011C90.6533 456.712 90.8961 457.418 91.1299 458.137C95.5175 471.185 98.1339 482.571 99.4286 486.584C99.5545 490.395 99.7073 493.981 99.8962 497.276C100.058 501.004 100.319 504.376 100.517 507.339C100.714 510.301 100.939 512.847 101.146 514.925C101.56 519.087 101.874 521.378 102.072 521.361C102.27 521.348 102.252 519.033 102.063 514.866C101.964 512.776 101.847 510.224 101.712 507.267C101.586 504.305 101.398 500.939 101.281 497.211C101.11 493.162 100.966 488.68 100.858 483.865C101.398 481.379 102.171 477.377 103.34 472.295C103.861 470.075 104.428 467.641 105.138 465.058C105.794 462.458 106.639 459.727 107.494 456.836C109.31 451.09 111.513 444.832 114.183 438.416C115.172 436.064 116.197 433.779 117.222 431.559L117.33 431.452C117.339 431.392 117.348 431.339 117.357 431.286C117.411 431.161 117.474 431.036 117.528 430.917C131.023 414.39 152.53 405.265 164.461 387.495C167.41 383.106 169.73 378.115 169.982 372.83C170.224 367.544 168.075 361.944 163.652 359.053Z" fill="#FEF3BD"/>
<path d="M135.874 437.692C128.287 435.828 122.095 443.812 118.977 450.983C111.928 467.148 108.668 484.958 109.508 502.578C106.566 513.952 105.93 522.798 106.566 522.833C107.29 522.921 108.094 514.332 110.983 503.201L111.575 503.1C118.411 494.343 125.248 485.593 132.076 476.837C137.986 469.274 144.169 460.969 144.363 451.363C144.478 445.557 141.492 439.075 135.874 437.692Z" fill="#FEF3BD"/>
<path d="M404.765 432.406L388.747 573.466H332.979L316.96 432.406H404.765Z" fill="#FEF3BD"/>
<path d="M426.155 268.449C420.459 264.733 412.559 266.119 407.057 270.11C401.555 274.101 397.99 280.19 394.942 286.266C386.624 302.841 380.928 320.724 378.093 339.052C376.169 342.912 374.258 347.01 372.441 351.307C369.6 358.116 367.258 364.75 365.365 370.853C364.466 373.92 363.586 376.831 362.924 379.592C362.187 382.34 361.625 384.926 361.125 387.294C360.582 389.917 360.151 392.26 359.82 394.296C359.776 391.697 359.739 389.018 359.707 386.263C359.645 375.887 359.751 364.481 360.157 352.513C360.582 340.926 361.256 329.888 362.018 319.806L362.505 321.111C362.343 320.587 362.193 320.062 362.037 319.537C362.056 319.294 362.074 319.05 362.093 318.813C362.106 318.607 362.124 318.413 362.143 318.207C373.996 304.081 383.089 287.642 388.734 270.082C391.62 261.106 393.593 251.267 390.52 242.354C387.448 233.44 377.724 226.261 368.707 229.001C358.396 232.135 355.124 244.99 354.512 255.751C353.369 275.69 355.498 295.809 360.757 315.075C360.657 316.264 360.551 317.463 360.451 318.682C359.632 329.045 358.927 340.457 358.483 352.45C358.077 364.444 357.978 375.881 358.065 386.276C358.109 390.03 358.177 393.646 358.265 397.107C356.997 391.173 354.618 382.134 351.264 372.177C350.671 370.391 350.071 368.648 349.466 366.955C350.871 348.24 345.038 329.038 333.36 314.328C329.919 309.993 325.297 305.736 319.764 305.915C311.97 306.166 307.168 315.583 308.704 323.229C310.234 330.875 315.948 336.897 321.413 342.456C330.581 351.795 339.755 361.133 348.922 370.472C349.178 371.209 349.428 371.952 349.678 372.708C354.305 386.444 357.066 398.419 358.433 402.641C358.565 406.652 358.727 410.425 358.921 413.892C359.089 417.814 359.364 421.362 359.576 424.479C359.782 427.596 360.02 430.276 360.245 432.462C360.675 436.841 361.006 439.253 361.213 439.234C361.425 439.221 361.406 436.785 361.206 432.4C361.106 430.201 360.981 427.515 360.838 424.404C360.707 421.287 360.501 417.746 360.382 413.823C360.201 409.563 360.051 404.846 359.932 399.781C360.501 397.163 361.319 392.953 362.555 387.606C363.099 385.27 363.698 382.709 364.454 379.991C365.141 377.255 366.034 374.382 366.933 371.34C368.844 365.293 371.167 358.709 373.984 351.957C375.027 349.483 376.107 347.078 377.194 344.742L377.306 344.63C377.318 344.567 377.325 344.511 377.331 344.455C377.393 344.324 377.456 344.192 377.518 344.068C391.744 326.677 414.426 317.076 427.004 298.377C430.114 293.758 432.562 288.508 432.824 282.946C433.08 277.385 430.813 271.492 426.155 268.449Z" fill="#FEF3BD"/>
<path d="M396.859 351.195C388.859 349.233 382.333 357.635 379.042 365.181C371.611 382.19 368.176 400.93 369.056 419.47C365.959 431.438 365.291 440.745 365.953 440.783C366.721 440.877 367.57 431.838 370.611 420.125L371.242 420.019C378.449 410.806 385.656 401.598 392.862 392.385C399.089 384.426 405.609 375.687 405.808 365.581C405.933 359.471 402.786 352.65 396.859 351.195Z" fill="#FEF3BD"/>
<path d="M440 613.2C440 619.715 379.585 625 305.063 625C230.539 625 170.127 619.715 170.127 613.2C170.127 606.679 230.539 601.394 305.063 601.394C379.585 601.394 440 606.679 440 613.2Z" fill="#FABB4A"/>
<path d="M317.603 332.886C317.603 332.886 320.008 306.831 289.657 306.403C259.31 305.977 301.754 240.134 317.647 265.393C333.547 290.652 327.895 328.845 317.603 332.886Z" fill="#A71838"/>
<path d="M253.477 529.259C253.477 529.259 267.751 542.602 263.33 557.856C258.909 573.104 235.654 621.065 255.38 608.54C275.105 596.01 291.893 566.264 291.893 566.264L297.151 574.547L303.902 568.6L274.625 522.469C274.625 522.469 245.453 517.915 253.477 529.259Z" fill="#E3573E"/>
<path d="M257.612 573.547C257.612 573.547 253.265 589.301 261.915 580.325C270.186 571.742 288.489 544.313 288.489 544.313L303.902 568.6L297.151 574.547L291.893 566.264C291.893 566.264 262.575 617.242 246.918 613.912C231.261 610.577 251.895 589.239 257.612 573.547Z" fill="#A71838"/>
<path d="M247.095 544.419C247.095 544.419 251.998 563.334 240.092 573.841C228.187 584.347 182.857 612.363 206.222 612.363C229.588 612.363 259.701 596.253 259.701 596.253V606.06L268.588 604.661V550.023C268.588 550.023 246.401 530.54 247.095 544.419Z" fill="#F5B251"/>
<path d="M244.109 569.093C244.109 569.093 258.974 575.321 268.588 569.093V560.529C268.588 560.529 249.942 549.767 246.566 563.784L244.109 569.093Z" fill="#E3573E"/>
<path d="M213.439 402.891C222.453 386.913 238.522 357.51 241.334 346.198C245.282 330.325 281.182 202.858 201.073 266.054C201.073 266.054 189.238 264.017 191.939 276.157L193.804 281.235C193.804 281.235 184.151 306.042 180.059 317.251C175.966 328.457 162.778 384.339 160.968 395.62C159.16 406.902 157.474 419.976 169.522 433.05C181.568 446.124 181.568 446.124 181.568 446.124L238.063 525.955L250.096 472.278C250.096 472.278 240.154 421.194 213.439 402.891Z" fill="#90241E"/>
<path d="M196.742 264.318C196.742 264.318 218.798 282.015 221.041 301.138C223.285 320.262 222.812 361.97 225.736 402.217C231.894 414.491 239.324 415.203 262.264 411.986C285.204 408.769 278.116 413.885 282.113 395.62C286.616 375.075 295.334 335.222 298.675 318.182C302.01 301.138 308.423 281.056 307.087 258.061C305.744 235.066 208.18 218.86 196.742 264.318Z" fill="#C73722"/>
<path d="M222.805 332.886C222.805 332.886 218.909 314.659 241.406 310.454C263.903 306.252 282.887 297.428 289.857 290.633C296.82 283.836 304.945 289.071 300.629 309.053C300.629 309.053 308.704 276.812 309.066 262.812C309.422 248.812 309.422 248.812 309.422 248.812C309.422 248.812 207.744 194.577 202.208 268.277C202.208 268.277 217.152 286.201 218.818 303.932C220.484 321.661 222.805 332.886 222.805 332.886Z" fill="#90241E"/>
<path d="M224.446 395.62C224.446 395.62 229.138 450.796 232.896 489.087C236.654 527.373 243.778 547.917 243.081 563.321C243.081 563.321 270.669 568.187 271.901 554.458C280.071 463.402 284.761 476.95 285.354 443.325C286.072 402.429 269.816 426.103 282.113 380.753C297.207 325.103 223.308 382.403 224.446 395.62Z" fill="#C73722"/>
<path d="M172.77 343.705C172.77 343.705 211.423 336.528 224.357 383.034L222.511 331.368C222.511 331.368 220.674 316.058 206.222 306.953C191.77 297.847 186.525 300.031 190.165 290.633C190.165 290.633 181.607 313.064 172.77 343.705Z" fill="#731D18"/>
<path d="M222.706 336.834C222.706 336.834 224.949 302.791 218.448 292.966C211.947 283.144 203.096 269.392 203.096 269.392C203.096 269.392 200.219 263.077 196.199 266.319C192.178 269.561 189.235 270.436 193.804 281.235C193.804 281.235 186.566 300.386 184.532 306.405C182.498 312.422 219.028 350.345 222.706 336.834Z" fill="#731D18"/>
<path d="M226.857 584.023C226.857 584.023 214.745 594.992 226.857 592.056C238.437 589.245 268.588 575.896 268.588 575.896V604.661L259.701 606.06V596.253C259.701 596.253 207.631 623.576 196.199 612.363C184.767 601.157 213.622 594.204 226.857 584.023Z" fill="#E91A2C"/>
<path d="M125.081 225.065L144.996 234.439L149.632 226.392L152.511 229.752L153.366 230.708L150.291 237.02L164.762 248.576L181.607 260.086C181.607 260.086 143.988 274.328 125.081 226.465V225.065Z" fill="#A71838"/>
<path d="M115.679 145.51C115.679 145.51 109.675 138.291 108.391 133.271C107.108 128.252 104.423 128.718 103.606 130.819C102.79 132.921 100.941 138.006 105.016 140.6L115.679 145.51Z" fill="#F5B251"/>
<path d="M207.136 120.702C207.136 120.702 197.562 125.401 194.087 150.82C191.54 169.436 186.766 171.246 180.698 179.894C174.629 188.541 168.48 193.707 168.41 198.375C168.178 214.018 177.747 255.416 188.484 249.813C199.221 244.211 205.627 224.77 212.318 213.244C219.01 201.717 248.222 119.098 207.136 120.702Z" fill="#E91A2C"/>
<path d="M167.217 207.41C167.217 207.41 164.294 197.833 168.962 198.375C173.631 198.916 203.743 216.525 190.438 243.276C190.438 243.276 183.602 258.5 174.416 237.346C174.416 237.346 169.205 226.178 167.217 207.41Z" fill="#A71838"/>
<path d="M180.635 179.995C180.635 179.995 190.057 174.626 196.742 187.48C203.427 200.334 208.503 212.962 203.339 227.484C203.339 227.484 209.246 217.05 210.537 213.244C211.829 209.439 212.286 200.101 206.106 191.463C199.925 182.824 198.802 174.314 202.096 167.089C205.391 159.865 208.593 154.375 211.338 150.259C214.082 146.142 221.7 136.654 225.584 128.259C229.469 119.864 237.889 105.686 250.096 98.2181C250.096 98.2181 229.34 101.304 205.355 120.702C205.355 120.702 196.531 127.225 194.027 141.542C191.523 155.859 194.639 161.617 180.635 179.995Z" fill="#A71838"/>
<path d="M178.357 202.342C178.357 202.342 170.236 197.13 150.757 182.222C135.872 170.829 130.217 157.184 130.217 157.184C130.217 157.184 129.283 149.583 120.88 146.466C112.477 143.35 99.8726 134.131 98.4718 141.542C97.0711 148.953 81.1986 165.293 94.7373 169.264C108.275 173.234 116.211 173.216 119.012 179.996C121.814 186.776 166.72 264.045 182.968 242.108C182.968 242.108 192.081 235.118 191.938 221.624C191.938 221.624 189.529 216.637 178.357 202.342Z" fill="#F5B251"/>
<path d="M169.522 196.132C169.522 196.132 191.994 211.271 185.147 239.997C185.147 239.997 193.866 229.593 193.691 227.484C193.514 225.374 192.721 210.158 169.522 196.132Z" fill="#E3573E"/>
<path d="M94.2708 146.466C94.2708 146.466 94.9708 142.999 95.0876 141.364C95.2038 139.731 95.6709 136.059 100.806 138.42C105.941 140.781 112.36 146.735 113.644 147.085C114.927 147.435 112.827 151.521 106.875 147.085C100.922 142.649 99.0551 144.53 97.5382 145.917C96.0213 147.305 93.547 150.677 94.2708 146.466Z" fill="#F5B251"/>
<path d="M100.798 143.959C102.459 143.959 104.515 144.89 107.084 146.804C109.283 148.442 110.806 148.787 111.697 148.787C112.941 148.787 113.589 148.126 113.652 147.656C113.679 147.457 113.586 147.432 113.552 147.423C113.013 147.276 111.962 146.479 109.997 144.965C107.369 142.94 103.769 140.168 100.66 138.738C99.5947 138.248 98.6786 138.001 97.936 138.001C95.9351 138.001 95.5492 139.812 95.4367 141.39C95.32 143.028 94.6424 146.392 94.6137 146.535C94.4051 147.752 94.5169 148.086 94.5562 148.16C94.8966 148.119 95.8065 147.175 96.3542 146.607C96.6902 146.257 97.0074 145.928 97.3021 145.659L97.3783 145.59C98.1702 144.863 99.1563 143.959 100.798 143.959ZM111.697 149.487C110.247 149.487 108.554 148.773 106.666 147.365C104.222 145.545 102.303 144.659 100.798 144.659C99.4286 144.659 98.6267 145.395 97.8511 146.106L97.7742 146.176C97.497 146.43 97.1866 146.751 96.8588 147.092C95.7977 148.194 95.112 148.862 94.5356 148.862C94.3345 148.862 94.1603 148.782 94.0316 148.63C93.7475 148.292 93.7156 147.627 93.9248 146.407C93.9342 146.362 94.6243 142.933 94.738 141.339C94.8098 140.341 95.0265 137.3 97.936 137.3C98.7797 137.3 99.7952 137.57 100.952 138.102C104.133 139.564 107.769 142.364 110.424 144.41C111.906 145.551 113.306 146.63 113.736 146.746C114.172 146.866 114.411 147.259 114.346 147.749C114.232 148.591 113.266 149.487 111.697 149.487Z" fill="#E3573E"/>
<path d="M91.7028 149.136C91.7028 149.136 91.8196 146.034 92.9868 144.05C94.1534 142.066 95.4373 141.948 97.8885 142.882C100.339 143.816 104.22 145.223 105.547 146.154C106.875 147.085 113.294 151.521 115.045 152.454C116.795 153.389 116.469 155.49 114.006 155.139C111.543 154.789 107.809 153.972 101.973 151.287C96.1374 148.602 91.0027 152.925 91.7028 149.136Z" fill="#F5B251"/>
<path d="M97.4932 149.997C99.185 149.997 100.698 150.315 102.12 150.969C108.115 153.728 111.802 154.472 114.055 154.793C114.975 154.924 115.647 154.67 115.774 154.16C115.872 153.769 115.634 153.167 114.88 152.764C113.098 151.814 106.56 147.292 105.346 146.441C104.215 145.648 101.031 144.445 98.7066 143.566C98.3763 143.442 98.059 143.323 97.7636 143.21C96.7937 142.84 96.0768 142.668 95.5092 142.668C94.5836 142.668 93.9398 143.12 93.2885 144.227C92.1787 146.114 92.0538 149.12 92.0526 149.15L92.0469 149.2C91.9526 149.713 91.9745 150.071 92.1112 150.236C92.2218 150.368 92.4597 150.432 92.8388 150.432C93.2547 150.432 93.7905 150.356 94.4119 150.269C95.2681 150.148 96.3341 149.997 97.4932 149.997ZM114.528 155.529C114.347 155.529 114.154 155.515 113.957 155.486C111.661 155.16 107.906 154.403 101.827 151.606C100.499 150.994 99.0819 150.698 97.4932 150.698C96.3834 150.698 95.388 150.838 94.5093 150.963C93.8624 151.054 93.3034 151.132 92.8388 151.132C92.456 151.132 91.9076 151.086 91.5729 150.684C91.29 150.344 91.2207 149.839 91.3543 149.097C91.3687 148.77 91.5304 145.835 92.6845 143.872C93.4595 142.555 94.3307 141.967 95.5092 141.967C96.1736 141.967 96.9461 142.148 98.0128 142.555C98.3082 142.667 98.6236 142.787 98.9539 142.912C101.445 143.852 104.545 145.024 105.749 145.867C106.956 146.714 113.459 151.212 115.21 152.146C116.155 152.65 116.654 153.528 116.454 154.33C116.309 154.909 115.727 155.529 114.528 155.529Z" fill="#E3573E"/>
<path d="M89.3079 157.475C89.3079 157.475 90.5356 152.922 90.5356 151.404C90.5356 149.887 90.7436 146.618 94.1409 147.902C97.5382 149.186 102.129 151.39 103.414 151.931C104.698 152.471 111.31 156.191 112.827 156.774C114.344 157.357 114.344 157.357 114.344 157.357C114.344 157.357 116.095 158.642 114.928 159.692C114.928 159.692 113.177 162.261 106.408 159.692C99.639 157.124 95.4374 154.089 93.4533 156.774C91.4693 159.459 87.4962 162.611 89.3079 157.475Z" fill="#F5B251"/>
<path d="M95.6091 155.378C97.2116 155.378 99.2931 156.29 101.928 157.445C103.293 158.044 104.84 158.723 106.532 159.365C108.489 160.108 110.203 160.484 111.625 160.484C113.9 160.484 114.634 159.501 114.641 159.492L114.693 159.432C114.895 159.25 114.989 159.061 114.978 158.852C114.954 158.374 114.407 157.851 114.173 157.667L112.701 157.101C111.839 156.769 109.486 155.51 107.209 154.293C105.474 153.365 103.835 152.488 103.278 152.254C102.898 152.093 102.239 151.793 101.406 151.413C99.4167 150.505 96.4104 149.134 94.0173 148.23C93.5433 148.051 93.1186 147.959 92.7545 147.959C91.4974 147.959 90.886 149.086 90.886 151.404C90.886 152.95 89.6964 157.377 89.6458 157.566C89.0169 159.351 89.218 159.767 89.2642 159.833C89.276 159.849 89.291 159.871 89.3679 159.871C90.0679 159.871 91.9165 158.264 93.1717 156.566C93.7625 155.766 94.5593 155.378 95.6091 155.378ZM111.625 161.183C110.118 161.184 108.32 160.792 106.284 160.02C104.575 159.371 103.02 158.689 101.647 158.088C99.087 156.965 97.0648 156.078 95.6091 156.078C94.786 156.078 94.1909 156.366 93.735 156.982C92.6334 158.472 90.5507 160.572 89.3679 160.572C89.005 160.572 88.8001 160.39 88.6927 160.238C88.3611 159.768 88.4498 158.857 88.9731 157.371C89.0437 157.106 90.1859 152.819 90.1859 151.404C90.1859 148.653 91.0502 147.259 92.7545 147.259C93.2035 147.259 93.7113 147.365 94.2646 147.574C96.6796 148.487 99.6984 149.864 101.697 150.775C102.524 151.153 103.179 151.452 103.549 151.607C104.136 151.855 105.713 152.699 107.54 153.674C109.692 154.826 112.131 156.131 112.953 156.447L114.513 157.048L114.552 157.075C114.662 157.156 115.631 157.893 115.678 158.817C115.691 159.104 115.618 159.529 115.188 159.93C115.014 160.15 114.069 161.183 111.625 161.183Z" fill="#E3573E"/>
<path d="M89.0168 158.408C89.0168 158.408 91.3525 152.571 92.4029 152.571C93.4533 152.571 97.1878 153.304 99.5222 154.222C101.857 155.139 105.591 159.173 107.809 160.834C110.026 162.494 105.474 163.959 100.339 160.834L97.8885 158.875C97.8885 158.875 97.6543 161.677 96.371 162.027C95.0876 162.377 103.878 162.691 102.809 171.406C102.809 171.406 89.8331 167.864 89.0168 167.163C88.2012 166.463 85.9811 166.346 89.0168 158.408Z" fill="#F5B251"/>
<path d="M102.717 171.744C100.538 171.149 89.6219 168.145 88.7888 167.429C88.7114 167.363 88.6103 167.298 88.4935 167.222C87.1858 166.379 86.1235 164.994 88.6902 158.282C89.5976 156.016 91.2825 152.222 92.4029 152.222C93.5563 152.222 97.3408 152.987 99.6502 153.896C101.225 154.515 103.377 156.466 105.275 158.188C106.292 159.11 107.254 159.981 108.018 160.553C109.044 161.322 108.701 162.006 108.571 162.199C107.779 163.37 104.107 163.537 100.157 161.132L100.12 161.107L98.1539 159.536C98.0259 160.283 97.7211 161.471 97.0292 162.059C98.3775 162.518 101.314 163.577 102.618 166.647L101.973 166.922C100.761 164.066 97.9229 163.103 96.7107 162.691C96.1424 162.498 95.8832 162.41 95.8926 162.089C95.8969 161.954 95.9669 161.774 96.2792 161.689C97.1341 161.456 97.4844 159.509 97.5394 158.846L97.5937 158.192L100.54 160.546C104.365 162.867 107.536 162.478 107.991 161.806C108.146 161.576 107.812 161.274 107.598 161.114C106.808 160.521 105.835 159.64 104.805 158.706C102.951 157.025 100.85 155.12 99.3942 154.547C97.0467 153.625 93.3558 152.922 92.4029 152.922C91.9295 153.011 90.525 155.582 89.3422 158.537C86.7655 165.274 88.0845 166.126 88.8726 166.634C89.0056 166.719 89.1317 166.8 89.2454 166.898C89.8387 167.383 97.9366 169.713 102.901 171.069L102.717 171.744Z" fill="#E3573E"/>
<path d="M115.41 145.734C115.163 145.437 109.341 138.397 108.052 133.358C107.478 131.113 106.522 129.736 105.492 129.675C104.862 129.633 104.248 130.136 103.932 130.947C102.789 133.889 101.677 138.059 105.204 140.304L104.828 140.895C100.408 138.082 102.57 132.521 103.28 130.693C103.707 129.592 104.593 128.923 105.534 128.975C106.339 129.023 107.823 129.635 108.731 133.185C109.98 138.071 115.889 145.215 115.949 145.287L115.41 145.734Z" fill="#E3573E"/>
<path d="M123.798 162.005C123.797 161.985 123.625 159.7 120.429 157.165C117.213 154.614 110.81 156.054 110.746 156.069L110.588 155.387C110.864 155.323 117.387 153.858 120.864 156.616C124.333 159.369 124.492 161.867 124.497 161.972L123.798 162.005Z" fill="#E3573E"/>
<path d="M128.504 165.449L127.883 165.127L129.576 161.864C130.748 157.189 129.16 152.881 124.855 149.054L124.806 149.01C123.694 148.021 117.251 145.114 114 143.715L114.277 143.071C114.665 143.238 123.798 147.176 125.271 148.486L125.32 148.531C129.848 152.556 131.505 157.113 130.245 162.075L130.217 162.15L128.504 165.449Z" fill="#E3573E"/>
<path d="M160.167 189.338C160.167 189.338 179.89 195.396 166.625 246.016L164.215 254.86L169.522 257.415C169.522 257.415 189.029 203.557 160.167 189.338Z" fill="#A71838"/>
<path d="M169.522 257.415L155.425 246.016L91.4592 395.758L123.169 392.022L140.834 403.229L181.607 260.086L169.522 257.415Z" fill="#A71838"/>
<path d="M155.425 246.016C155.425 246.016 143.755 238.958 134.418 232.011C125.081 225.065 125.081 225.065 125.081 225.065C125.081 225.065 122.805 231.116 117.407 239.997C112.01 248.879 50.2064 350.933 50.2064 350.933L91.4593 395.758L154.391 248.576L155.425 246.016Z" fill="#E91A2C"/>
<path d="M108.384 213.244L122.219 222.923L136.586 208.982L140.623 214.018L125.491 227.484C125.491 227.484 140.525 244.235 153.344 251.226C153.344 251.226 90.2864 251.387 108.384 213.244Z" fill="#EA5C1B"/>
<path d="M130.3 241.875L144.995 250.952L153.344 251.226C153.344 251.226 116.266 342.518 94.1408 369.816L69.7277 397.625L57.3138 376.612L25.5928 379.411C25.5928 379.411 108.748 279.965 130.3 241.875Z" fill="#F89A2B"/>
<path d="M130.3 241.875L108.384 213.244C108.384 213.244 16.8079 320.124 0 338.339C0 338.339 15.7381 358.709 25.5928 379.411C25.5928 379.411 105.649 289.836 130.3 241.875Z" fill="#FAE347"/>
<path d="M147.994 179.996C147.994 179.996 167.711 196.696 144.996 243.566L138.619 254.86L144.996 257.415C144.996 257.415 178.844 194.228 147.994 179.996Z" fill="#F89A2B"/>
<path d="M246.98 98.6636C246.98 98.6636 226.358 107.923 215.701 111.808C205.045 115.691 220 131.083 213.464 142.575C206.929 154.067 186.983 175.547 204.192 189.555C204.192 189.555 212.531 196.093 210.196 202.63C207.862 209.167 203.314 232.622 199.926 241.387C186.388 276.407 196.256 269.87 201.327 270.337C206.397 270.804 250.442 277.137 276.705 267.069C302.965 256.999 283.274 244.159 286.74 218.24C290.2 192.322 316.948 120.44 304.239 105.39C295.49 95.0212 286.997 89.6998 246.98 98.6636Z" fill="#FAE347"/>
<path d="M262.286 240.443C262.286 240.443 260.731 232.397 267.267 232.748C273.803 233.098 284.798 233.799 284.798 233.799L273.871 208.934C273.871 208.934 262.482 205.384 258.748 206.809C255.013 208.233 248.177 238.511 262.286 240.443Z" fill="#F89A2B"/>
<path d="M198.776 182.784C198.776 182.784 199.023 191.279 222.619 185.197C244.974 179.435 263.533 167.098 268.784 174.705C274.036 182.312 248.678 192.171 247.953 219.907C247.55 235.316 265.048 267.58 286.74 264.267C286.74 264.267 244.974 277.342 204.192 273.845C204.192 273.845 183.587 274.439 198.776 243.966C202.898 235.696 209.763 210.234 208.012 203.581C206.262 196.926 200.036 187.202 198.776 182.784Z" fill="#F89A2B"/>
<path d="M255.157 173.918C255.157 173.918 274.946 163.407 277.117 166.208C279.29 169.01 264.816 189.088 262.949 199.362C261.081 209.634 251.447 264.012 288.945 258.707C288.945 258.707 288.945 272.731 246.98 264.733C221.695 259.915 227.292 194.703 255.157 173.918Z" fill="#F89A2B"/>
<path d="M230.682 157.629C230.682 157.629 235.404 148.931 244.974 143.795C254.546 138.658 271.446 131.42 271.398 116.712C271.351 102.003 278.291 94.0624 288.945 95.1143C288.945 95.1143 281.501 93.2609 271.525 94.4803C261.548 95.699 225.724 139.244 230.682 157.629Z" fill="#F89A2B"/>
<path d="M207.308 189.85C207.308 189.85 213.946 207.076 241.406 192.121C241.406 192.121 227.836 208.156 210.537 209.236C210.537 209.236 212.724 201.368 207.308 189.85Z" fill="#EA5C1B"/>
<path d="M250.096 107.569C250.096 107.569 235.17 115.743 228.209 131.887C221.249 148.031 215.614 153.19 214.083 155.494C212.551 157.798 211.912 147.097 204.443 145.229C196.974 143.362 197.907 120.713 250.096 107.569Z" fill="#A71838"/>
<path d="M246.14 112.526C246.14 112.526 238.522 123.011 249.882 122.544C261.241 122.077 273.75 108.736 274.498 100.619C275.246 92.5039 250.8 105.31 246.14 112.526Z" fill="#F5B251"/>
<path d="M224.05 126.046C224.05 126.046 235.239 117.078 238.063 110.075C240.887 103.07 245.243 90.746 250.096 103.561C250.096 103.561 256.375 100.186 253.182 81.6679C249.991 63.1474 260.896 7.4157 248.091 14.7991C235.286 22.1763 207.213 26.4552 224.05 126.046Z" fill="#2A1A1E"/>
<path d="M280.233 50.7544L274.498 100.619L246.14 112.526C246.14 112.526 253.133 102.371 252.792 83.4601C252.45 64.5468 272.314 31.3588 280.233 50.7544Z" fill="#F5B251"/>
<path d="M252.802 85.0948C252.802 85.0948 253.116 88.2887 252.651 91.1833C252.185 94.078 258.931 96.4385 264.61 87.1374C270.291 77.8369 271.901 70.0119 271.901 70.0119C271.901 70.0119 262.159 39.4731 252.792 83.4601L252.802 85.0948Z" fill="#E3573E"/>
<path d="M230.035 36.1812C230.035 36.1812 220.249 91.5376 245.99 86.857C274.311 81.7061 279.527 55.8766 279.833 53.6903C281.62 41.1285 284.648 16.5733 253.616 14.4744C253.616 14.4744 235.986 11.6697 230.035 36.1812Z" fill="#F5B251"/>
<path d="M265.765 43.246L267.238 41.7093C266.865 41.0347 266.356 40.6162 265.79 40.6099C264.623 40.5974 263.661 42.3402 263.642 44.5015C263.623 46.6628 264.552 48.4181 265.718 48.4306C266.886 48.4431 267.847 46.7003 267.867 44.539C267.87 44.0955 267.832 43.6645 267.761 43.2647L265.765 43.246Z" fill="#482934"/>
<path d="M243.121 43.6083L244.593 42.0717C244.22 41.3971 243.71 40.9785 243.144 40.9723C241.978 40.9598 241.016 42.7026 240.997 44.8639C240.977 47.0189 241.907 48.7805 243.073 48.793C244.24 48.7992 245.202 47.0627 245.221 44.9014C245.225 44.4516 245.187 44.0269 245.115 43.6271L243.121 43.6083Z" fill="#482934"/>
<path d="M248.116 61.5421C247.389 61.5421 246.791 61.3235 246.326 60.88C242.968 57.6942 248.675 43.8019 249.337 42.2278L250.198 42.5901C248.47 46.7003 244.519 57.8816 246.969 60.1991C247.637 60.8363 248.852 60.7301 250.583 59.893L250.99 60.7363C249.879 61.2735 248.919 61.5421 248.116 61.5421Z" fill="#E3573E"/>
<path d="M243.932 70.2441L259.074 63.4722C259.074 63.4722 262.299 71.0593 251.927 74.8541C251.927 74.8541 244.674 77.0142 243.932 70.2441Z" fill="#90241E"/>
<path d="M245.981 69.3278C245.981 69.3278 246.224 71.4898 248.869 70.7108C251.364 69.9769 255.613 68.7931 256.11 65.4131C256.14 65.2089 256.157 64.9965 256.158 64.7779L245.981 69.3278Z" fill="white"/>
<path d="M248.092 75.182C248.092 75.182 247.982 72.1118 251.927 71.6446L251.739 73.413C251.739 73.413 254.296 67.7411 258.274 70.3934C258.274 70.3934 254.316 76.54 248.092 75.182Z" fill="#E44837"/>
<path d="M253.182 12.5754C253.182 12.5754 250.628 15.8486 252.628 20.7522C254.627 25.6494 258.596 30.0908 266.298 33.3577C274.001 36.6247 280.164 42.0841 280.233 45.8883C280.302 49.6987 280.539 63.2412 274.235 74.2152C267.933 85.1879 262.432 83.8792 262.264 93.7562C262.097 103.633 266.651 112.971 251.069 117.874C235.487 122.777 226.884 131.436 225.833 141.242C224.783 151.047 232.438 152.799 238.063 150.697C243.688 148.596 251.174 134.588 263.187 127.234C275.198 119.88 267.173 114.032 269.786 102.598C272.398 91.1639 297.257 85.5626 296.558 48.7929C295.852 12.0195 254.974 -12.4295 253.182 12.5754Z" fill="#482934"/>
<path d="M252.007 18.6283C252.007 18.6283 250.587 26.8176 243.932 29.4661C237.277 32.1146 232.566 28.3792 231.965 37.0931C231.364 45.8071 231.965 55.7703 228.226 59.6932C222.412 65.7892 225.754 74.5562 227.005 79.5166C228.256 84.4782 201.624 17.1729 251.739 17.9475L252.007 18.6283Z" fill="#482934"/>
<path d="M276.376 50.8231C276.376 50.8231 284.211 38.5987 288.258 43.3211C292.305 48.0434 288.764 67.0111 276.376 62.9665C263.988 58.9187 272.078 59.9306 276.376 50.8231Z" fill="#F5B251"/>
<path d="M277.735 54.1338C277.735 54.1338 281.47 47.831 284.505 48.9991C287.54 50.1672 283.936 59.1497 277.735 58.1066C277.735 58.1066 275.005 57.9816 277.735 54.1338Z" fill="#E3573E"/>
<path d="M231.965 37.0931C232.051 36.1686 231.933 33.5138 236.657 32.5019C241.406 31.4837 255.017 29.3223 250.037 14.3743C250.037 14.3743 256.104 22.1513 248.091 29.7784C240.078 37.4054 232.765 31.9522 230.43 43.0023L231.965 37.0931Z" fill="#482934"/>
<path d="M229.262 132.088C229.262 132.088 221.437 143.693 225.736 160.852C230.035 178.012 235.633 155.187 243.932 145.84C252.231 136.492 239.343 120.135 229.262 132.088Z" fill="#482934"/>
<path d="M260.143 38.7234C260.143 38.7234 265.312 31.8647 270.658 38.4048C270.658 38.4048 265.71 34.9255 260.143 38.7234Z" fill="#482934"/>
<path d="M235.065 39.167C235.065 39.167 240.234 32.3083 245.579 38.8547C245.579 38.8547 240.631 35.3753 235.065 39.167Z" fill="#482934"/>
<path d="M256.158 4.73596C256.158 4.73596 256.026 18.4159 248.091 21.6828C240.156 24.9498 226.954 26.5864 225.736 47.1313C224.517 67.6775 225.217 75.6125 230.119 90.5567C235.021 105.5 231.986 119.042 224.05 126.046C216.114 133.05 214.98 136.689 213.579 142.293C212.179 147.896 202.727 137.389 210.078 112.526C217.431 87.6627 217.431 84.9261 216.73 61.6046C216.03 38.2862 222.142 18.3222 231.946 9.92059C241.749 1.51274 259.548 -4.70259 256.158 4.73596Z" fill="#482934"/>
<path d="M263.187 127.234C263.187 127.234 274.723 121.527 277.648 112.526C280.577 103.525 281.726 101.717 287.915 98.0165C294.103 94.3167 299.006 84.1186 298.656 71.8834C298.306 59.6496 297.057 47.4438 296.002 42.2341C294.94 37.0308 288.701 74.1053 276.523 84.7363C264.345 95.3673 263.91 113.918 263.187 127.234Z" fill="#482934"/>
<path d="M217.014 76.7232C217.014 76.7232 216.165 85.5133 221.041 93.7563C225.917 101.998 231.67 110.17 231.945 100.948C231.945 100.948 236.156 113.199 226.857 123.035C226.857 123.035 231.901 115.93 228.209 111.299C224.517 106.667 215.33 94.0936 212.125 105.494C212.125 105.494 217.243 89.9715 217.014 76.7232Z" fill="#2A1A1E"/>
<path d="M262.554 99.8797C262.554 99.8797 263.731 105.733 266.532 108.302C269.333 110.871 274.925 116.419 278.778 109.19C278.778 109.19 277.423 120.442 264.974 126.046C264.974 126.046 272.045 119.972 268.588 116.705C265.131 113.438 260.047 113.854 250.096 118.189C250.096 118.189 262.778 114.337 262.554 99.8797Z" fill="#2A1A1E"/>
<path d="M297.7 247.218C297.7 247.218 326.39 303.056 315.424 346.466C315.424 346.466 341.178 337.971 347.374 315.739C353.575 293.514 350.24 293.038 358.346 284.45C366.452 275.863 372.878 271.093 367.757 260.121C362.636 249.149 328.464 212.95 319.745 201.785C311.021 190.62 295.727 243.808 297.7 247.218Z" fill="#E91A2C"/>
<path d="M310.753 94.3578C310.753 94.3578 323.686 113.024 338.218 132.505C351.189 149.897 359.333 153.666 354.674 161.194C351.689 166.013 327.764 195.337 319.664 180.658C313.757 169.96 275.308 120.598 292.061 97.8358C292.061 97.8358 296.245 86.3266 310.753 94.3578Z" fill="#E91A2C"/>
<path d="M323.617 180.744C323.617 180.744 320.713 174.965 330.518 163.759C340.317 152.552 355.43 148.447 353.063 163.74C353.063 163.74 329.419 193.596 323.617 180.744Z" fill="#A71838"/>
<path d="M315.549 260.748C322.55 251.409 318.815 251.876 324.885 240.202C330.955 228.528 336.557 228.061 329.088 213.119C321.619 198.177 303.627 198.215 310.753 167.844C317.885 137.473 337.026 109.321 303.877 89.6517C303.877 89.6517 289.407 78.2149 283.337 103.175C277.267 128.135 261.864 129.053 271.901 142.135C281.938 155.218 262.758 192.573 289.857 233.665L309.067 275.387L315.549 260.748Z" fill="#E91A2C"/>
<path d="M289.463 233.013C289.632 233.399 289.857 233.665 289.857 233.665L289.463 233.013Z" fill="#A71838"/>
<path d="M334.871 334.941C334.871 334.941 336.47 334.604 338.218 331.381C336.282 333.542 334.871 334.941 334.871 334.941Z" fill="#A71838"/>
<path d="M369.443 265.393C366.752 252.128 340.342 225.502 345.306 231.267L335.495 220.074L332.785 221.887C331.961 219.34 330.955 217.206 330.955 217.206C330.955 217.206 329.013 211.937 327.421 210.252C325.822 208.567 281.22 215.859 285.666 226.688L289.463 233.013C289.095 232.171 288.995 230.759 292.061 230.28C293.991 229.977 298.512 230.654 304.326 230.156V230.954C304.408 230.723 304.657 230.44 305.045 230.114C304.888 230.115 304.757 230.121 304.645 230.128C304.789 230.114 304.932 230.1 305.076 230.086C305.063 230.095 305.057 230.104 305.045 230.114C306.537 230.098 310.059 230.438 312.751 233.665C313.038 234.014 313.332 234.364 313.619 234.714V234.715C315.886 237.453 318.128 240.337 320.389 244.65C320.57 245.021 321.407 246.773 322.668 249.52C322.849 249.955 323.03 250.394 323.218 250.853C323.218 250.853 323.23 250.831 323.249 250.795C329.488 264.54 343.527 297.516 342.29 313.391C341.528 323.092 339.811 328.439 338.218 331.381C341.74 327.439 347.005 320.955 348.648 315.739C351.189 307.666 350.028 293.602 358.346 284.45L361.437 281.235C372.347 272.612 369.443 265.393 369.443 265.393Z" fill="#A71838"/>
<path d="M304.326 231.267V230.953C304.283 231.072 304.276 231.178 304.326 231.267Z" fill="#A71838"/>
<path d="M357.709 168.855C354.068 162.45 350.015 155.624 348.722 154.636C346.206 152.713 335.339 157.861 324.866 172.011L336.663 185.658C327.427 195.656 316.13 208.639 310.852 213.151C310.234 213.683 309.672 214.172 309.141 214.64C309.141 214.641 309.135 214.642 309.135 214.642C309.135 214.642 309.129 214.645 309.123 214.653C308.917 214.835 308.71 215.018 308.517 215.191C307.155 216.225 303.327 218.265 295.177 217.237C290.244 216.614 286.459 214.809 284.061 214.038C284.061 214.037 284.061 214.036 284.055 214.034C284.055 214.034 281.732 212.684 278.697 211.984C278.06 211.836 277.073 211.679 275.888 211.517C271.426 210.902 264.216 210.202 262.881 209.648C261.192 208.948 262.359 213.284 265.16 214.034C267.961 214.785 280.096 215.952 279.165 218.521C278.228 221.089 270.295 218.227 267.494 220.475C264.693 222.723 259.677 225.758 258.334 226.693C256.99 227.626 259.902 229.26 262.881 227.86C265.86 226.459 265.86 226.459 265.86 226.459C265.86 226.459 270.528 224.124 272.396 224.824C273.118 225.095 273.559 225.261 273.831 225.363C273.003 225.135 270.999 224.958 267.961 227.042C264.888 229.15 258.157 231.828 260.725 233.229C263.292 234.63 268.108 231.584 270.412 230.661C272.715 229.739 272.715 229.739 272.715 229.739L273.718 229.548C273.718 229.548 279.321 228.326 273.718 231.595C269.876 233.837 264.838 236.346 264.926 236.965C265.377 240.12 272.46 234.361 283.78 237.149C283.786 237.264 283.787 237.331 283.787 237.331C283.787 237.331 284.23 237.395 285.017 237.482C285.017 237.482 285.017 237.483 285.023 237.483C285.185 237.533 285.354 237.544 285.516 237.535C290.131 238.006 303.021 238.829 311.883 234.583C311.889 234.58 311.895 234.578 311.895 234.576C312.664 234.439 313.519 234.2 314.487 233.828C323.586 230.327 353.65 206.034 362.449 199.159C372.972 190.939 365.965 178.283 357.709 168.855Z" fill="#F5B251"/>
<path d="M262.881 227.86C265.86 226.459 265.86 226.459 265.86 226.459C265.86 226.459 268.224 225.279 270.262 224.85C270.352 223.883 270.548 222.74 270.062 221.324C269.498 219.681 268.278 220.022 267.398 220.551C267.084 220.801 266.745 221.059 266.387 221.323L266.386 221.324C263.528 223.429 259.514 225.871 258.334 226.693C256.99 227.626 259.902 229.26 262.881 227.86Z" fill="#E3573E"/>
<path d="M270.412 230.661C271.445 230.248 272.012 230.02 272.326 229.895C271.992 228.907 271.677 227.887 270.902 227.16C270.453 226.738 270.285 226.287 270.24 225.791C269.56 226.069 268.803 226.464 267.961 227.042C264.888 229.15 258.158 231.828 260.725 233.229C263.292 234.63 268.108 231.584 270.412 230.661Z" fill="#E3573E"/>
<path d="M275.853 236.399C275.73 234.587 275.196 233.54 273.688 232.296C273.528 232.164 273.39 232.014 273.265 231.857C269.492 234.029 264.842 236.37 264.927 236.965C265.26 239.3 269.227 236.752 275.853 236.4C275.853 236.399 275.853 236.399 275.853 236.399Z" fill="#E3573E"/>
<path d="M301.872 203.403C302.934 202.636 303.846 201.708 304.639 200.686C303.059 202.233 301.872 203.403 301.872 203.403Z" fill="#A71838"/>
<path d="M311.009 190.638L311.021 190.62C311.021 190.62 308.061 182.106 310.753 167.844L311.021 166.734C311.021 166.734 297.345 147.747 298.275 128.135C299.212 108.523 291.674 123.63 292.061 131.252C292.411 138.335 292.224 152.174 307.093 164.948C307.087 164.941 312.027 173.595 304.289 170.252C296.558 166.91 282.993 153.1 282.113 142.135C281.239 131.17 279.022 147.617 282.113 153.753C285.204 159.887 307.493 171.561 307.087 176.93C306.681 182.297 309.966 184.95 307.861 194.351C307.143 196.529 306.113 198.774 304.639 200.686C307.724 197.651 312.301 193.158 312.301 193.16C312.295 193.16 311.671 192.15 311.009 190.638Z" fill="#A71838"/>
<path d="M327.951 175.988L324.866 172.011C324.866 172.011 327.015 167.611 330.518 163.759C334.015 159.906 348.529 145.129 353.306 161.28C353.306 161.28 344.545 157.106 327.951 175.988Z" fill="#E3573E"/>
</g>
<defs>
<clipPath id="clip0_16_1067">
<rect width="440" height="625" fill="white"/>
</clipPath>
</defs>
</svg>
